{"glyphs":{"0":{"ha":864,"x_min":67,"x_max":797,"o":"m 433 -19 q 242 32 324 -19 q 113 186 159 83 q 67 446 67 290 q 113 706 67 603 q 242 860 159 809 q 433 910 324 910 q 623 860 540 910 q 751 706 705 809 q 797 446 797 603 q 751 186 797 290 q 623 32 705 83 q 433 -19 540 -19 m 433 117 q 589 202 534 117 q 644 446 644 288 q 589 690 644 605 q 433 776 534 776 q 276 690 331 776 q 221 446 221 605 q 276 202 221 288 q 433 117 331 117 z "},"1":{"ha":485,"x_min":60,"x_max":352,"o":"m 239 898 l 352 898 l 352 0 l 203 0 l 203 721 q 132 693 168 703 q 60 683 97 683 l 60 825 q 151 848 107 831 q 239 898 194 865 z "},"2":{"ha":831,"x_min":85,"x_max":753,"o":"m 85 0 l 85 147 q 108 275 85 223 q 177 363 131 328 q 289 424 222 399 l 470 494 q 562 557 532 519 q 592 649 592 594 q 552 743 592 706 q 439 781 512 781 q 319 747 367 781 q 265 647 272 713 l 100 647 q 148 793 103 734 q 266 881 192 852 q 436 910 341 910 q 597 877 526 910 q 711 783 669 843 q 753 642 753 722 q 727 522 753 574 q 652 431 702 469 q 528 363 602 392 l 344 291 q 260 241 288 269 q 233 167 233 213 l 233 136 l 747 136 l 747 0 l 85 0 z "},"3":{"ha":852,"x_min":65,"x_max":777,"o":"m 428 -19 q 294 0 359 -19 q 177 57 229 19 q 95 150 126 94 q 65 278 65 206 l 221 278 q 251 192 224 228 q 324 136 278 156 q 428 117 369 117 q 566 159 517 117 q 616 263 616 200 q 595 333 616 303 q 533 380 575 363 q 424 396 490 396 l 310 396 l 310 513 l 401 513 q 535 549 487 513 q 584 647 584 585 q 543 739 584 701 q 422 776 502 776 q 307 749 357 776 q 241 657 256 723 l 85 657 q 141 802 96 747 q 257 884 185 858 q 416 910 328 910 q 585 879 510 910 q 702 792 659 847 q 744 663 744 736 q 706 544 744 594 q 594 468 668 494 q 727 387 676 442 q 777 249 777 332 q 734 110 777 171 q 613 16 691 50 q 428 -19 534 -19 z "},"4":{"ha":813,"x_min":32,"x_max":790,"o":"m 492 904 l 635 904 l 635 331 l 790 331 l 790 203 l 635 203 l 635 0 l 488 0 l 488 203 l 32 203 l 32 316 l 492 904 m 494 681 l 208 316 l 494 316 l 494 681 z "},"5":{"ha":801,"x_min":82,"x_max":740,"o":"m 407 -19 q 241 14 313 -19 q 126 109 168 47 q 82 263 84 172 l 233 263 q 283 153 233 190 q 407 117 333 117 q 537 169 488 117 q 587 295 587 220 q 392 442 587 442 l 129 442 l 169 893 l 694 893 l 694 758 l 289 758 l 319 802 l 291 524 l 277 539 q 356 550 310 547 q 434 553 401 553 q 657 487 574 553 q 740 295 740 421 q 699 136 740 207 q 583 23 658 65 q 407 -19 508 -19 z "},"6":{"ha":830,"x_min":67,"x_max":758,"o":"m 439 -19 q 244 40 328 -19 q 114 200 160 99 q 67 431 67 301 q 114 691 67 583 q 248 854 162 798 q 449 910 333 910 q 602 878 536 910 q 707 789 668 847 q 749 653 745 731 l 590 653 q 549 743 582 710 q 454 776 516 776 q 280 679 344 776 q 216 416 216 583 q 217 367 216 394 q 222 316 218 340 q 269 453 231 403 q 360 524 306 503 q 474 545 414 545 q 621 509 557 545 q 722 409 685 473 q 758 263 758 345 q 718 116 758 179 q 606 17 678 52 q 439 -19 534 -19 m 439 117 q 556 159 508 117 q 604 269 604 200 q 556 381 604 340 q 439 421 508 421 q 357 402 394 421 q 298 348 320 383 q 276 269 276 314 q 324 159 276 200 q 439 117 371 117 z "},"7":{"ha":681,"x_min":33,"x_max":656,"o":"m 67 0 l 481 750 l 33 750 l 33 893 l 656 893 l 656 752 l 267 0 l 67 0 z "},"8":{"ha":885,"x_min":70,"x_max":816,"o":"m 442 -19 q 247 15 331 -19 q 117 108 163 49 q 70 241 70 167 q 105 351 70 306 q 198 421 139 397 q 332 446 257 446 q 382 442 358 446 q 435 430 405 438 l 435 392 q 325 373 373 392 q 251 323 278 354 q 224 255 224 292 q 253 181 224 212 q 332 134 283 150 q 442 117 382 117 q 607 148 552 117 q 662 226 662 178 q 634 290 662 264 q 558 335 607 317 l 306 432 q 213 481 260 449 q 133 559 165 512 q 101 669 101 606 q 141 796 101 742 q 258 881 181 851 q 442 910 334 910 q 617 878 540 910 q 739 788 694 845 q 784 657 784 731 q 756 559 784 604 q 673 487 727 515 q 543 459 619 459 q 498 463 519 459 q 450 475 477 467 l 450 519 q 540 535 499 519 q 605 580 581 551 q 630 647 630 609 q 606 715 630 686 q 540 760 583 744 q 442 776 498 776 q 347 761 390 776 q 280 720 305 746 q 255 663 255 695 q 281 601 255 625 q 354 559 306 578 l 613 460 q 763 372 710 422 q 816 233 816 322 q 772 103 816 160 q 644 14 728 46 q 442 -19 561 -19 z "},"9":{"ha":835,"x_min":78,"x_max":769,"o":"m 408 -19 q 244 17 316 -19 q 130 117 172 53 q 88 265 88 181 l 242 265 q 289 157 244 197 q 403 117 333 117 q 528 162 481 117 q 598 287 576 206 q 619 476 619 368 q 618 519 619 499 q 614 564 617 540 q 566 440 602 488 q 477 370 530 392 q 362 348 424 348 q 216 384 280 348 q 115 484 152 420 q 78 629 78 547 q 119 778 78 715 q 231 876 159 841 q 396 910 302 910 q 543 878 475 910 q 661 787 610 847 q 740 645 712 728 q 769 462 769 563 q 729 207 769 315 q 609 40 690 99 q 408 -19 529 -19 m 397 472 q 479 492 442 472 q 539 545 517 511 q 561 622 561 579 q 513 734 561 693 q 396 775 464 775 q 280 734 327 775 q 233 622 233 693 q 280 512 233 552 q 397 472 327 472 z "},"\r":{"ha":833,"x_min":0,"x_max":0,"o":""}," ":{"ha":346,"x_min":0,"x_max":0,"o":""}," ":{"ha":346,"x_min":0,"x_max":0,"o":""},",":{"ha":335,"x_min":35,"x_max":294,"o":"m 146 -178 l 35 -123 q 113 -73 80 -101 q 156 -7 146 -44 q 95 22 120 -1 q 69 82 69 45 q 99 147 69 120 q 172 173 128 173 q 261 133 228 173 q 294 38 294 93 q 255 -84 294 -24 q 146 -178 216 -144 z "},".":{"ha":285,"x_min":35,"x_max":248,"o":"m 35 88 q 65 160 35 131 q 140 190 94 190 q 217 160 186 190 q 248 88 248 131 q 217 16 248 44 q 140 -12 186 -12 q 65 16 94 -12 q 35 88 35 45 z "},";":{"ha":410,"x_min":76,"x_max":335,"o":"m 186 -178 l 76 -123 q 153 -73 120 -101 q 197 -7 186 -44 q 135 22 160 -1 q 110 82 110 45 q 139 147 110 120 q 213 173 168 173 q 302 133 269 173 q 335 38 335 93 q 295 -84 335 -24 q 186 -178 256 -144 m 117 534 q 146 607 117 577 q 222 636 176 636 q 298 607 267 636 q 329 534 329 577 q 298 463 329 491 q 222 434 267 434 q 146 463 176 434 q 117 534 117 492 z "},":":{"ha":360,"x_min":73,"x_max":285,"o":"m 72 117 q 102 190 72 160 q 177 219 131 219 q 254 190 223 219 q 285 117 285 160 q 254 46 285 74 q 177 17 223 17 q 102 46 131 17 q 72 117 72 75 m 72 534 q 102 607 72 577 q 177 636 131 636 q 254 607 223 636 q 285 534 285 577 q 254 463 285 491 q 177 434 223 434 q 102 463 131 434 q 72 534 72 492 z "},"-":{"ha":509,"x_min":61,"x_max":448,"o":"m 61 350 l 61 480 l 448 480 l 448 350 l 61 350 z "},"–":{"ha":709,"x_min":76,"x_max":633,"o":"m 76 350 l 76 480 l 633 480 l 633 350 l 76 350 z "},"—":{"ha":1050,"x_min":76,"x_max":975,"o":"m 76 350 l 76 480 l 975 480 l 975 350 l 76 350 z "},"!":{"ha":401,"x_min":100,"x_max":312,"o":"m 142 288 l 124 907 l 285 907 l 267 288 l 142 288 m 205 -12 q 130 16 159 -12 q 100 88 100 44 q 130 160 100 131 q 205 190 159 190 q 281 160 251 190 q 312 88 312 131 q 281 16 312 44 q 205 -12 251 -12 z "},"a":{"ha":799,"x_min":78,"x_max":686,"o":"m 556 0 l 538 159 l 538 433 q 506 545 538 510 q 404 581 475 581 q 333 569 363 581 q 285 534 302 557 q 268 476 268 510 l 105 476 q 141 599 105 552 q 245 668 178 646 q 404 690 312 690 q 552 662 488 690 q 651 577 615 635 q 686 428 686 519 l 686 0 l 556 0 m 334 -19 q 192 11 249 -19 q 107 90 135 41 q 78 194 78 138 q 112 302 78 259 q 207 366 146 345 q 349 388 267 388 q 452 379 403 388 q 551 355 502 370 l 551 267 q 465 288 512 281 q 377 296 418 296 q 277 273 317 296 q 237 194 237 249 q 269 124 237 153 q 370 95 301 95 q 459 118 422 95 q 517 176 497 142 q 538 245 538 211 l 573 245 q 545 114 573 174 q 465 18 518 54 q 334 -19 412 -19 z "},"b":{"ha":844,"x_min":132,"x_max":770,"o":"m 465 -19 q 349 16 401 -19 q 265 121 296 51 q 233 294 233 191 l 281 294 q 305 200 281 240 q 367 138 329 160 q 445 116 404 116 q 534 143 495 116 q 597 221 574 171 q 620 339 620 271 q 597 454 620 405 q 535 530 574 503 q 444 556 495 556 q 364 536 401 556 q 303 476 326 515 q 281 380 281 436 l 233 380 q 263 549 233 480 q 348 654 293 618 q 476 690 402 690 q 624 647 558 690 q 731 525 691 603 q 770 339 770 446 q 729 150 770 231 q 619 26 688 70 q 465 -19 550 -19 m 132 0 l 132 951 l 281 951 l 281 164 l 231 0 l 132 0 z "},"c":{"ha":730,"x_min":67,"x_max":660,"o":"m 382 -19 q 227 25 299 -19 q 111 149 155 69 q 67 336 67 228 q 111 529 67 450 q 227 649 155 608 q 382 690 299 690 q 494 669 445 690 q 578 615 543 649 q 633 539 613 581 q 660 453 653 497 l 510 448 q 464 526 497 496 q 381 556 431 556 q 301 533 338 556 q 241 461 264 510 q 217 336 217 413 q 239 216 217 265 q 298 141 260 167 q 381 116 335 116 q 478 148 447 116 q 510 235 510 181 l 660 235 q 628 107 660 165 q 533 15 595 49 q 382 -19 471 -19 z "},"d":{"ha":844,"x_min":74,"x_max":712,"o":"m 378 -19 q 225 26 294 -19 q 115 150 156 70 q 74 339 74 231 q 114 525 74 446 q 220 647 153 603 q 368 690 287 690 q 497 654 442 690 q 582 549 552 618 q 611 380 611 480 l 563 380 q 540 476 563 436 q 480 536 517 515 q 400 556 443 556 q 310 530 350 556 q 247 454 270 503 q 224 339 224 405 q 247 221 224 271 q 310 143 270 171 q 399 116 350 116 q 477 138 440 116 q 539 200 515 160 q 563 294 563 240 l 611 294 q 580 121 611 191 q 495 16 548 51 q 378 -19 442 -19 m 590 0 l 563 164 l 563 951 l 712 951 l 712 0 l 590 0 z "},"e":{"ha":730,"x_min":67,"x_max":667,"o":"m 378 -19 q 221 26 292 -19 q 109 150 151 70 q 67 335 67 230 q 108 526 67 447 q 220 647 150 605 q 378 690 291 690 q 515 658 458 690 q 607 572 572 626 q 654 449 642 517 q 657 308 667 381 l 185 308 l 185 390 l 553 390 l 522 369 q 518 440 524 405 q 497 505 513 476 q 453 553 481 535 q 381 571 424 571 q 289 544 326 571 q 233 471 252 517 q 215 369 215 425 l 215 309 q 233 202 215 249 q 287 128 251 156 q 378 101 323 101 q 466 126 431 101 q 510 200 501 151 l 660 200 q 612 85 650 135 q 514 9 574 36 q 378 -19 454 -19 z "},"f":{"ha":501,"x_min":68,"x_max":505,"o":"m 170 0 l 170 758 q 198 875 170 830 q 272 941 226 919 q 372 962 317 962 q 438 957 403 962 q 505 945 472 953 l 476 830 q 439 841 458 837 q 401 844 419 844 q 363 837 381 844 q 332 810 344 829 q 320 756 320 791 l 320 0 l 170 0 m 68 572 l 68 671 l 447 671 l 447 572 l 68 572 z "},"g":{"ha":801,"x_min":26,"x_max":776,"o":"m 385 -347 q 193 -316 273 -347 q 69 -234 113 -285 q 26 -123 26 -183 q 80 -10 26 -50 q 215 29 133 29 l 318 -13 q 210 -41 248 -13 q 172 -116 172 -68 q 228 -197 172 -166 q 385 -228 284 -228 q 514 -206 459 -228 q 598 -150 568 -185 q 628 -76 628 -115 q 609 -31 628 -49 q 553 -13 591 -13 l 318 -13 q 196 8 250 -13 q 111 66 142 30 q 80 146 80 102 q 103 218 80 188 q 167 265 127 249 q 256 281 207 281 l 292 231 q 252 223 271 231 q 220 198 233 215 q 208 158 208 182 q 232 110 208 129 q 318 92 257 92 l 553 92 q 716 52 657 92 q 776 -66 776 13 q 728 -201 776 -137 q 593 -306 681 -265 q 385 -347 506 -347 m 397 204 q 252 234 317 204 q 149 319 188 265 q 110 447 110 374 q 149 575 110 520 q 252 660 188 630 q 397 690 317 690 q 538 660 474 690 q 642 575 603 630 q 681 447 681 520 q 642 319 681 374 q 538 234 603 265 q 397 204 474 204 m 397 308 q 500 348 465 308 q 535 447 535 388 q 500 547 535 509 q 397 585 465 585 q 294 547 331 585 q 258 447 258 509 q 294 348 258 388 q 397 308 331 308 m 630 582 l 561 619 q 588 724 561 679 q 660 794 615 769 q 763 819 706 819 l 755 676 q 662 653 694 676 q 630 582 630 630 z "},"h":{"ha":858,"x_min":132,"x_max":746,"o":"m 597 0 l 597 393 q 559 515 597 474 q 456 556 520 556 q 365 528 404 556 q 303 443 325 499 q 281 305 281 387 l 230 305 q 262 517 230 432 q 354 646 294 603 q 494 690 413 690 q 632 653 576 690 q 717 549 688 616 q 746 393 746 483 l 746 0 l 597 0 m 132 0 l 132 951 l 281 951 l 281 0 l 132 0 z "},"i":{"ha":444,"x_min":125,"x_max":312,"o":"m 219 803 q 150 827 175 803 q 125 892 125 851 q 150 956 125 933 q 219 980 175 980 q 287 956 262 980 q 312 892 312 933 q 287 827 312 851 q 219 803 262 803 m 144 0 l 144 674 l 293 674 l 293 0 l 144 0 z "},"j":{"ha":457,"x_min":-110,"x_max":324,"o":"m 231 803 q 163 827 188 803 q 138 892 138 851 q 163 956 138 933 q 231 980 188 980 q 299 956 274 980 q 324 892 324 933 q 299 827 324 851 q 231 803 274 803 m 83 -347 q -16 -335 31 -347 q -110 -301 -62 -323 l -106 -173 q -30 -205 -69 -192 q 48 -217 10 -217 q 130 -186 101 -217 q 158 -82 158 -154 l 158 674 l 306 674 l 306 -85 q 246 -286 306 -226 q 83 -347 186 -347 z "},"k":{"ha":811,"x_min":132,"x_max":782,"o":"m 132 0 l 132 951 l 281 951 l 281 0 l 132 0 m 260 408 l 563 671 l 765 671 l 260 253 l 260 408 m 600 0 l 295 426 l 438 459 l 782 0 l 600 0 z "},"l":{"ha":413,"x_min":132,"x_max":281,"o":"m 132 0 l 132 951 l 281 951 l 281 0 l 132 0 z "},"m":{"ha":1313,"x_min":132,"x_max":1202,"o":"m 1053 0 l 1053 393 q 1014 515 1053 474 q 912 556 975 556 q 790 494 833 556 q 746 310 746 432 l 683 310 q 702 484 683 412 q 757 601 721 556 q 842 668 792 647 q 951 690 891 690 q 1089 653 1033 690 q 1173 549 1144 616 q 1202 393 1202 483 l 1202 0 l 1053 0 m 132 0 l 132 671 l 262 671 l 278 551 q 366 655 310 619 q 494 690 422 690 q 632 653 576 690 q 717 549 688 616 q 746 393 746 483 l 746 0 l 597 0 l 597 393 q 559 515 597 474 q 456 556 520 556 q 365 528 404 556 q 303 443 325 499 q 281 305 281 387 l 281 0 l 132 0 z "},"n":{"ha":858,"x_min":132,"x_max":746,"o":"m 597 0 l 597 393 q 559 515 597 474 q 456 556 520 556 q 365 528 404 556 q 303 443 325 499 q 281 305 281 387 l 230 305 q 262 517 230 432 q 354 646 294 603 q 494 690 413 690 q 632 653 576 690 q 717 549 688 616 q 746 393 746 483 l 746 0 l 597 0 m 132 0 l 132 671 l 262 671 l 281 532 l 281 0 l 132 0 z "},"o":{"ha":778,"x_min":67,"x_max":712,"o":"m 390 -19 q 226 21 299 -19 q 110 139 153 60 q 67 335 67 217 q 110 533 67 454 q 226 650 153 611 q 390 690 299 690 q 554 650 481 690 q 669 533 626 611 q 712 335 712 454 q 669 139 712 217 q 554 21 626 60 q 390 -19 481 -19 m 386 111 q 479 137 439 111 q 541 213 519 163 q 563 335 563 263 q 519 503 563 445 q 395 561 475 561 q 302 535 342 561 q 240 459 262 510 q 217 335 217 408 q 262 169 217 226 q 386 111 306 111 z "},"p":{"ha":838,"x_min":132,"x_max":770,"o":"m 460 -19 q 333 14 386 -19 q 253 110 281 46 q 225 272 225 175 l 281 272 q 303 188 281 222 q 361 134 325 153 q 439 116 398 116 q 524 140 483 116 q 593 214 566 165 q 620 336 620 263 q 597 454 620 405 q 533 530 573 503 q 442 556 492 556 q 362 536 399 556 q 303 479 325 517 q 281 386 281 441 l 225 386 q 258 557 225 490 q 345 657 290 624 q 465 690 400 690 q 615 648 545 690 q 727 526 684 606 q 770 336 770 447 q 727 145 770 224 q 612 24 683 66 q 460 -19 541 -19 m 132 -328 l 132 671 l 255 671 l 281 508 l 281 -328 l 132 -328 z "},"q":{"ha":838,"x_min":67,"x_max":799,"o":"m 378 -19 q 225 24 297 -19 q 110 145 154 66 q 67 336 67 224 q 110 526 67 447 q 223 648 153 606 q 371 690 292 690 q 492 657 437 690 q 580 557 547 624 q 613 386 613 490 l 556 386 q 534 479 556 441 q 475 536 512 517 q 396 556 439 556 q 305 530 345 556 q 241 454 264 503 q 217 336 217 405 q 244 214 217 263 q 313 140 271 165 q 398 116 354 116 q 475 134 439 116 q 533 187 510 152 q 556 272 556 222 l 588 272 q 566 120 588 185 q 498 18 544 55 q 378 -19 451 -19 m 755 -347 q 601 -260 647 -319 q 556 -96 556 -201 l 556 508 l 607 671 l 703 671 l 703 -106 q 712 -174 703 -149 q 742 -212 721 -198 q 799 -237 763 -226 l 755 -347 z "},"r":{"ha":533,"x_min":132,"x_max":527,"o":"m 132 0 l 132 674 l 281 674 l 281 0 l 132 0 m 242 297 q 271 514 242 428 q 349 641 299 599 q 461 683 398 683 q 495 681 480 683 q 527 674 511 678 l 523 526 q 483 534 504 531 q 444 537 462 537 q 353 509 390 537 q 299 427 317 481 q 281 297 281 374 l 242 297 z "},"s":{"ha":732,"x_min":73,"x_max":659,"o":"m 380 -19 q 215 8 283 -19 q 110 85 147 35 q 73 203 74 135 l 211 203 q 254 125 214 150 q 363 99 294 99 q 431 111 401 99 q 477 142 460 122 q 494 186 494 162 q 472 235 494 217 q 399 268 449 253 l 257 317 q 133 392 176 345 q 90 503 90 438 q 166 638 90 587 q 367 690 242 690 q 565 635 495 690 q 636 497 634 580 l 495 497 q 460 553 491 533 q 367 574 428 574 q 280 550 311 574 q 248 495 248 526 q 340 415 248 442 l 492 360 q 615 292 572 333 q 659 186 659 250 q 624 86 659 133 q 526 10 589 40 q 380 -19 464 -19 z "},"t":{"ha":541,"x_min":45,"x_max":503,"o":"m 353 -19 q 248 3 295 -19 q 172 70 200 25 q 143 183 143 115 l 143 851 l 291 851 l 291 188 q 375 99 291 99 q 426 105 401 99 q 482 122 451 110 l 503 17 q 430 -8 466 2 q 353 -19 393 -19 m 45 572 l 45 671 l 482 671 l 482 572 l 45 572 z "},"u":{"ha":863,"x_min":117,"x_max":730,"o":"m 582 674 l 730 674 l 730 0 l 582 0 l 582 674 m 117 674 l 265 674 l 265 260 q 300 153 265 189 q 397 117 335 117 q 491 145 449 117 q 558 224 533 172 q 582 351 582 276 l 625 351 q 593 150 625 231 q 504 28 561 69 q 372 -12 447 -12 q 241 14 299 -12 q 150 97 183 40 q 117 245 117 153 l 117 674 z "},"v":{"ha":715,"x_min":19,"x_max":696,"o":"m 19 671 l 190 671 l 364 127 l 351 127 l 525 671 l 696 671 l 440 0 l 274 0 l 19 671 z "},"w":{"ha":1040,"x_min":19,"x_max":1018,"o":"m 19 671 l 174 671 l 326 148 l 310 148 l 456 636 l 588 636 l 733 147 l 717 147 l 869 671 l 1018 671 l 797 0 l 651 0 l 507 459 l 530 459 l 388 0 l 242 0 l 19 671 z "},"x":{"ha":753,"x_min":26,"x_max":726,"o":"m 26 0 l 285 335 l 26 674 l 208 674 l 381 447 l 544 674 l 726 674 l 467 335 l 726 0 l 544 0 l 370 226 l 208 0 l 26 0 z "},"y":{"ha":685,"x_min":-2,"x_max":667,"o":"m 28 671 l 196 671 l 385 130 l 357 130 l 515 671 l 667 671 l 410 -125 q 317 -293 373 -240 q 178 -347 260 -347 q 87 -335 131 -347 q -2 -301 43 -324 l -2 -169 q 71 -206 35 -194 q 143 -217 106 -217 q 203 -197 178 -217 q 248 -143 229 -177 q 278 -66 266 -108 l 299 0 l 28 671 z "},"z":{"ha":680,"x_min":78,"x_max":603,"o":"m 78 0 l 78 121 l 439 551 l 78 551 l 78 671 l 603 671 l 603 551 l 251 121 l 603 121 l 603 0 l 78 0 z "},"A":{"ha":849,"x_min":32,"x_max":817,"o":"m 32 0 l 337 893 l 522 893 l 817 0 l 660 0 l 594 203 l 256 203 l 190 0 l 32 0 m 294 315 l 559 315 l 427 715 l 294 315 z "},"B":{"ha":890,"x_min":132,"x_max":804,"o":"m 132 0 l 132 893 l 486 893 q 655 861 588 893 q 756 776 722 829 q 789 658 789 722 q 747 527 789 582 q 626 451 704 472 q 717 413 677 441 q 781 342 758 385 q 804 247 804 300 q 789 160 804 203 q 738 80 774 116 q 641 22 702 44 q 487 0 579 0 l 132 0 m 281 130 l 483 130 q 606 164 567 130 q 644 255 644 199 q 604 346 644 312 q 483 381 564 381 l 281 381 l 281 130 m 281 765 l 281 510 l 480 510 q 595 545 555 510 q 636 640 636 579 q 597 731 636 697 q 481 765 557 765 l 281 765 z "},"C":{"ha":872,"x_min":67,"x_max":808,"o":"m 453 -19 q 249 38 335 -19 q 114 200 162 95 q 67 450 67 305 q 117 703 67 601 q 254 858 167 806 q 453 910 342 910 q 693 836 606 910 q 808 642 781 761 l 649 613 q 575 731 626 686 q 453 776 525 776 q 339 740 390 776 q 257 631 288 703 q 227 450 227 558 q 253 274 227 349 q 330 158 279 199 q 453 117 380 117 q 597 167 545 117 q 649 293 649 216 l 808 293 q 765 125 808 194 q 642 18 722 56 q 453 -19 563 -19 z "},"D":{"ha":944,"x_min":132,"x_max":867,"o":"m 132 893 l 414 893 q 652 838 550 893 q 810 683 753 783 q 867 446 867 583 q 810 211 867 311 q 652 55 753 110 q 414 0 550 0 l 132 0 l 132 893 m 281 759 l 281 133 l 414 133 q 570 174 504 133 q 671 285 635 215 q 707 446 707 356 q 671 608 707 538 q 570 719 635 678 q 414 759 504 759 l 281 759 z "},"E":{"ha":805,"x_min":131,"x_max":699,"o":"m 131 0 l 131 893 l 699 893 l 699 765 l 279 765 l 279 513 l 674 513 l 674 384 l 279 384 l 279 130 l 699 130 l 699 0 l 131 0 z "},"F":{"ha":751,"x_min":132,"x_max":690,"o":"m 132 0 l 132 893 l 690 893 l 690 765 l 281 765 l 281 513 l 657 513 l 657 386 l 281 386 l 281 0 l 132 0 z "},"G":{"ha":928,"x_min":67,"x_max":825,"o":"m 456 -19 q 259 39 347 -19 q 119 199 171 96 q 67 440 67 302 q 99 639 67 551 q 189 787 131 726 q 323 879 247 847 q 489 910 400 910 q 692 859 608 910 q 825 697 775 808 l 675 659 q 589 746 637 717 q 481 776 540 776 q 354 735 412 776 q 261 619 296 694 q 226 440 226 544 q 256 272 226 344 q 340 158 286 199 q 467 117 394 117 q 574 144 527 117 q 649 223 622 171 q 676 349 676 274 l 712 349 q 685 154 712 237 q 602 26 658 72 q 456 -19 545 -19 m 699 0 l 676 201 l 676 353 l 469 358 l 469 454 l 819 454 l 819 0 l 699 0 z "},"H":{"ha":966,"x_min":132,"x_max":833,"o":"m 132 893 l 281 893 l 281 515 l 685 515 l 685 893 l 833 893 l 833 0 l 685 0 l 685 385 l 281 385 l 281 0 l 132 0 l 132 893 z "},"I":{"ha":413,"x_min":132,"x_max":281,"o":"m 132 0 l 132 893 l 281 893 l 281 0 l 132 0 z "},"J":{"ha":601,"x_min":19,"x_max":492,"o":"m 19 39 l 19 189 q 125 142 73 157 q 223 126 177 126 q 314 163 286 126 q 342 273 342 200 l 342 893 l 492 893 l 492 273 q 459 103 492 167 q 369 10 427 40 q 235 -19 311 -19 q 121 -2 175 -19 q 19 39 67 14 z "},"K":{"ha":891,"x_min":132,"x_max":876,"o":"m 648 893 l 852 893 l 268 294 l 268 499 l 648 893 m 434 522 l 876 0 l 685 0 l 330 425 l 434 522 m 132 893 l 282 893 l 282 0 l 132 0 l 132 893 z "},"L":{"ha":676,"x_min":132,"x_max":657,"o":"m 281 893 l 281 130 l 657 130 l 657 0 l 132 0 l 132 893 l 281 893 z "},"M":{"ha":1204,"x_min":132,"x_max":1072,"o":"m 132 893 l 345 893 l 612 328 l 599 328 l 865 893 l 1072 893 l 1072 0 l 922 0 l 922 726 l 945 726 l 653 101 l 556 101 l 266 722 l 281 722 l 281 0 l 132 0 l 132 893 z "},"N":{"ha":983,"x_min":130,"x_max":851,"o":"m 130 893 l 295 893 l 714 230 l 702 230 l 702 893 l 851 893 l 851 0 l 697 0 l 255 699 l 278 699 l 278 0 l 130 0 l 130 893 z "},"O":{"ha":934,"x_min":67,"x_max":867,"o":"m 467 -19 q 260 33 350 -19 q 118 189 169 85 q 67 447 67 292 q 118 706 67 603 q 260 860 169 809 q 467 910 350 910 q 675 859 584 910 q 816 704 765 807 q 867 447 867 601 q 816 187 867 291 q 675 32 765 83 q 467 -19 584 -19 m 467 117 q 647 202 581 117 q 714 448 714 287 q 647 691 714 605 q 467 777 581 777 q 288 691 355 777 q 221 447 221 604 q 288 201 221 286 q 467 117 355 117 z "},"P":{"ha":796,"x_min":128,"x_max":751,"o":"m 128 0 l 128 893 l 436 893 q 669 819 586 893 q 751 611 751 744 q 669 404 751 478 q 436 330 586 330 l 278 330 l 278 0 l 128 0 m 278 460 l 436 460 q 558 502 517 460 q 599 611 599 544 q 558 722 599 679 q 436 765 517 765 l 278 765 l 278 460 z "},"Q":{"ha":940,"x_min":67,"x_max":867,"o":"m 467 -19 q 260 33 350 -19 q 118 189 169 85 q 67 447 67 292 q 118 706 67 603 q 260 860 169 809 q 467 910 350 910 q 675 859 584 910 q 816 704 765 807 q 867 447 867 601 q 816 187 867 291 q 675 32 765 83 q 467 -19 584 -19 m 739 -245 q 616 -210 672 -245 q 517 -109 560 -174 l 425 28 l 547 81 l 627 -42 q 674 -84 648 -72 q 725 -97 699 -96 q 792 -88 760 -97 q 860 -64 824 -79 l 860 -219 q 798 -239 828 -233 q 739 -245 769 -245 m 467 117 q 647 202 581 117 q 714 448 714 287 q 647 691 714 605 q 467 777 581 777 q 288 691 355 777 q 221 447 221 604 q 288 201 221 286 q 467 117 355 117 z "},"R":{"ha":882,"x_min":132,"x_max":814,"o":"m 132 0 l 132 893 l 458 893 q 700 819 616 893 q 783 622 783 744 q 700 427 783 501 q 458 353 616 353 l 281 353 l 281 0 l 132 0 m 620 0 l 378 415 l 538 415 l 814 0 l 620 0 m 281 453 l 443 453 q 583 497 535 453 q 631 609 631 540 q 587 723 631 680 q 458 765 543 765 l 281 765 l 281 453 z "},"S":{"ha":873,"x_min":92,"x_max":781,"o":"m 437 -19 q 267 14 344 -19 q 142 111 190 46 q 92 276 94 177 l 238 276 q 265 186 238 222 q 336 134 292 151 q 435 117 381 117 q 530 133 489 117 q 595 175 572 148 q 618 238 618 202 q 589 314 618 285 q 497 363 560 342 l 326 429 q 165 523 221 469 q 110 669 110 576 q 194 843 110 776 q 431 910 278 910 q 658 842 577 910 q 749 655 738 774 l 603 655 q 552 743 594 710 q 431 776 511 776 q 314 744 356 776 q 272 665 272 713 q 299 601 272 625 q 382 557 326 578 l 574 485 q 727 389 673 448 q 781 242 781 331 q 741 105 781 164 q 624 14 701 47 q 437 -19 547 -19 z "},"T":{"ha":726,"x_min":8,"x_max":719,"o":"m 8 765 l 8 893 l 719 893 l 719 765 l 404 765 l 438 799 l 438 0 l 289 0 l 289 799 l 322 765 l 8 765 z "},"U":{"ha":944,"x_min":117,"x_max":828,"o":"m 117 893 l 265 893 l 265 333 q 323 168 265 219 q 473 117 381 117 q 622 168 565 117 q 680 333 680 219 l 680 893 l 828 893 l 828 333 q 786 142 828 221 q 663 22 743 63 q 473 -19 583 -19 q 282 22 362 -19 q 160 142 203 63 q 117 333 117 221 l 117 893 z "},"V":{"ha":822,"x_min":25,"x_max":797,"o":"m 403 162 l 641 893 l 797 893 l 487 0 l 331 0 l 25 893 l 183 893 l 418 162 l 403 162 z "},"W":{"ha":1294,"x_min":15,"x_max":1278,"o":"m 15 893 l 182 893 l 402 131 l 363 131 l 583 825 l 684 825 l 909 141 l 874 141 l 1111 893 l 1278 893 l 969 0 l 813 0 l 629 549 l 647 549 l 461 0 l 305 0 l 15 893 z "},"X":{"ha":933,"x_min":51,"x_max":879,"o":"m 53 0 l 368 444 l 51 893 l 233 893 l 467 560 l 674 893 l 854 893 l 550 447 l 879 0 l 694 0 l 452 328 l 233 0 l 53 0 z "},"Y":{"ha":800,"x_min":10,"x_max":789,"o":"m 10 893 l 188 893 l 413 496 l 381 496 l 613 893 l 789 893 l 469 368 l 469 0 l 321 0 l 321 368 l 10 893 z "},"Z":{"ha":859,"x_min":101,"x_max":772,"o":"m 101 0 l 101 129 l 628 810 l 628 756 l 101 758 l 101 893 l 772 893 l 772 765 l 273 118 l 267 138 l 772 136 l 772 0 l 101 0 z "},"'":{"ha":233,"x_min":42,"x_max":191,"o":"m 42 940 l 191 940 l 171 617 l 61 617 l 42 940 z "},"ʼ":{"ha":308,"x_min":50,"x_max":309,"o":"m 160 547 l 50 603 q 127 653 94 625 q 171 719 160 681 q 109 748 135 725 q 84 808 84 771 q 113 872 84 846 q 187 899 142 899 q 276 859 243 899 q 309 764 309 819 q 270 642 309 701 q 160 547 231 582 z "},"‘":{"ha":354,"x_min":50,"x_max":308,"o":"m 172 542 q 108 561 135 542 q 65 611 81 580 q 50 681 50 643 q 92 802 50 744 q 205 896 135 860 l 308 838 q 232 788 265 817 q 186 722 199 760 q 250 694 224 716 q 275 635 275 672 q 246 569 275 597 q 172 542 217 542 z "},"’":{"ha":354,"x_min":35,"x_max":292,"o":"m 139 542 l 35 599 q 112 650 79 621 q 157 716 145 678 q 93 744 119 722 q 68 803 68 767 q 98 869 68 843 q 173 896 128 896 q 237 876 210 896 q 278 826 264 857 q 292 757 292 794 q 250 636 292 693 q 139 542 208 578 z "},"(":{"ha":538,"x_min":101,"x_max":494,"o":"m 388 1037 l 494 960 q 361 793 415 877 q 282 620 308 709 q 256 438 256 532 q 315 169 256 297 q 494 -82 375 41 l 388 -162 q 172 120 242 -32 q 101 438 101 272 q 172 756 101 605 q 388 1037 242 908 z "},")":{"ha":538,"x_min":43,"x_max":438,"o":"m 151 -162 l 43 -82 q 223 169 163 41 q 283 438 283 297 q 256 620 283 532 q 176 793 229 709 q 43 960 123 877 l 151 1037 q 367 756 296 908 q 438 438 438 605 q 406 222 438 326 q 311 21 375 117 q 151 -162 247 -76 z "},"+":{"ha":742,"x_min":21,"x_max":720,"o":"m 297 700 l 445 700 l 445 424 l 720 424 l 720 294 l 445 294 l 445 18 l 297 18 l 297 294 l 21 294 l 21 424 l 297 424 l 297 700 z "},"−":{"ha":742,"x_min":109,"x_max":633,"o":"m 109 293 l 109 424 l 633 424 l 633 293 l 109 293 z "},"=":{"ha":742,"x_min":117,"x_max":624,"o":"m 117 425 l 117 556 l 624 556 l 624 425 l 117 425 m 117 141 l 117 270 l 624 270 l 624 141 l 117 141 z "},"$":{"ha":935,"x_min":92,"x_max":843,"o":"m 478 -19 q 332 -1 401 -19 q 208 53 262 17 q 123 145 153 90 q 92 276 92 201 l 238 276 q 267 185 238 220 q 353 134 297 150 q 485 117 408 117 q 593 134 551 117 q 655 180 635 151 q 676 241 676 208 q 648 315 676 284 q 567 364 619 346 l 471 399 l 471 529 l 638 472 q 791 381 739 436 q 843 238 843 326 q 804 115 843 173 q 684 19 765 56 q 478 -19 603 -19 m 414 -136 l 414 1014 l 522 1014 l 522 -136 l 414 -136 m 444 397 l 351 429 q 173 522 235 468 q 111 669 111 576 q 201 843 111 776 q 463 910 292 910 q 706 841 622 910 q 810 655 790 772 l 662 655 q 601 747 651 710 q 461 783 550 783 q 320 750 367 783 q 272 664 272 716 q 296 601 272 625 q 372 558 320 576 l 444 529 l 444 397 z "},"?":{"ha":711,"x_min":35,"x_max":661,"o":"m 244 256 l 244 314 q 258 413 244 374 q 302 480 272 452 q 383 533 332 507 q 452 575 427 556 q 488 617 477 595 q 498 667 498 638 q 460 745 498 714 q 356 776 422 776 q 239 743 280 776 q 191 655 199 710 l 35 655 q 124 841 44 771 q 351 910 203 910 q 516 878 447 910 q 624 790 586 845 q 661 666 661 735 q 625 544 661 594 q 510 455 588 494 q 439 411 465 431 q 403 365 413 390 q 392 301 392 340 l 392 256 l 244 256 m 322 -19 q 246 10 275 -19 q 217 81 217 39 q 246 153 217 124 q 321 183 275 183 q 398 153 367 183 q 429 81 429 124 q 398 10 429 40 q 322 -19 367 -19 z "},"£":{"ha":822,"x_min":30,"x_max":771,"o":"m 73 90 l 73 133 q 146 163 124 133 q 168 255 168 193 l 168 612 q 201 776 168 710 q 297 876 235 842 q 444 910 358 910 q 620 852 553 910 q 703 677 686 794 l 556 677 q 519 751 550 726 q 444 776 488 776 q 351 736 385 776 q 317 612 317 697 l 317 265 q 265 132 317 174 q 73 90 213 90 m 30 0 l 30 133 l 473 133 q 572 160 542 133 q 610 244 602 188 l 771 244 q 700 65 767 129 q 474 0 634 0 l 30 0 m 50 385 l 50 485 l 558 485 l 558 385 l 50 385 z "},"`":{"ha":486,"x_min":67,"x_max":419,"o":"m 347 777 l 67 1009 l 167 1090 l 419 836 l 347 777 z "},"´":{"ha":486,"x_min":67,"x_max":419,"o":"m 139 777 l 67 836 l 319 1090 l 419 1009 l 139 777 z "},"à":{"ha":799,"x_min":78,"x_max":686,"o":"m 556 0 l 538 159 l 538 433 q 506 545 538 510 q 404 581 475 581 q 333 569 363 581 q 285 534 302 557 q 268 476 268 510 l 105 476 q 141 599 105 552 q 245 668 178 646 q 404 690 312 690 q 552 662 488 690 q 651 577 615 635 q 686 428 686 519 l 686 0 l 556 0 m 334 -19 q 192 11 249 -19 q 107 90 135 41 q 78 194 78 138 q 112 302 78 259 q 207 366 146 345 q 349 388 267 388 q 452 379 403 388 q 551 355 502 370 l 551 267 q 465 288 512 281 q 377 296 418 296 q 277 273 317 296 q 237 194 237 249 q 269 124 237 153 q 370 95 301 95 q 459 118 422 95 q 517 176 497 142 q 538 245 538 211 l 573 245 q 545 114 573 174 q 465 18 518 54 q 334 -19 412 -19 m 503 777 l 223 1009 l 323 1090 l 576 836 l 503 777 z "},"è":{"ha":730,"x_min":67,"x_max":667,"o":"m 378 -19 q 221 26 292 -19 q 109 150 151 70 q 67 335 67 230 q 108 526 67 447 q 220 647 150 605 q 378 690 291 690 q 515 658 458 690 q 607 572 572 626 q 654 449 642 517 q 657 308 667 381 l 185 308 l 185 390 l 553 390 l 522 369 q 518 440 524 405 q 497 505 513 476 q 453 553 481 535 q 381 571 424 571 q 289 544 326 571 q 233 471 252 517 q 215 369 215 425 l 215 309 q 233 202 215 249 q 287 128 251 156 q 378 101 323 101 q 466 126 431 101 q 510 200 501 151 l 660 200 q 612 85 650 135 q 514 9 574 36 q 378 -19 454 -19 m 469 777 l 189 1009 l 289 1090 l 542 836 l 469 777 z "},"ò":{"ha":778,"x_min":67,"x_max":712,"o":"m 390 -19 q 226 21 299 -19 q 110 139 153 60 q 67 335 67 217 q 110 533 67 454 q 226 650 153 611 q 390 690 299 690 q 554 650 481 690 q 669 533 626 611 q 712 335 712 454 q 669 139 712 217 q 554 21 626 60 q 390 -19 481 -19 m 386 111 q 479 137 439 111 q 541 213 519 163 q 563 335 563 263 q 519 503 563 445 q 395 561 475 561 q 302 535 342 561 q 240 459 262 510 q 217 335 217 408 q 262 169 217 226 q 386 111 306 111 m 494 777 l 213 1009 l 313 1090 l 566 836 l 494 777 z "},"À":{"ha":849,"x_min":32,"x_max":817,"o":"m 32 0 l 337 893 l 522 893 l 817 0 l 660 0 l 594 203 l 256 203 l 190 0 l 32 0 m 294 315 l 559 315 l 427 715 l 294 315 m 536 999 l 256 1231 l 356 1312 l 608 1058 l 536 999 z "},"È":{"ha":805,"x_min":131,"x_max":699,"o":"m 131 0 l 131 893 l 699 893 l 699 765 l 279 765 l 279 513 l 674 513 l 674 384 l 279 384 l 279 130 l 699 130 l 699 0 l 131 0 m 507 999 l 226 1231 l 326 1312 l 579 1058 l 507 999 z "},"ù":{"ha":863,"x_min":117,"x_max":730,"o":"m 582 674 l 730 674 l 730 0 l 582 0 l 582 674 m 117 674 l 265 674 l 265 260 q 300 153 265 189 q 397 117 335 117 q 491 145 449 117 q 558 224 533 172 q 582 351 582 276 l 625 351 q 593 150 625 231 q 504 28 561 69 q 372 -12 447 -12 q 241 14 299 -12 q 150 97 183 40 q 117 245 117 153 l 117 674 m 547 777 l 267 1009 l 367 1090 l 619 836 l 547 777 z "},"á":{"ha":799,"x_min":78,"x_max":686,"o":"m 556 0 l 538 159 l 538 433 q 506 545 538 510 q 404 581 475 581 q 333 569 363 581 q 285 534 302 557 q 268 476 268 510 l 105 476 q 141 599 105 552 q 245 668 178 646 q 404 690 312 690 q 552 662 488 690 q 651 577 615 635 q 686 428 686 519 l 686 0 l 556 0 m 334 -19 q 192 11 249 -19 q 107 90 135 41 q 78 194 78 138 q 112 302 78 259 q 207 366 146 345 q 349 388 267 388 q 452 379 403 388 q 551 355 502 370 l 551 267 q 465 288 512 281 q 377 296 418 296 q 277 273 317 296 q 237 194 237 249 q 269 124 237 153 q 370 95 301 95 q 459 118 422 95 q 517 176 497 142 q 538 245 538 211 l 573 245 q 545 114 573 174 q 465 18 518 54 q 334 -19 412 -19 m 356 774 l 283 833 l 536 1088 l 636 1006 l 356 774 z "},"é":{"ha":730,"x_min":67,"x_max":667,"o":"m 378 -19 q 221 26 292 -19 q 109 150 151 70 q 67 335 67 230 q 108 526 67 447 q 220 647 150 605 q 378 690 291 690 q 515 658 458 690 q 607 572 572 626 q 654 449 642 517 q 657 308 667 381 l 185 308 l 185 390 l 553 390 l 522 369 q 518 440 524 405 q 497 505 513 476 q 453 553 481 535 q 381 571 424 571 q 289 544 326 571 q 233 471 252 517 q 215 369 215 425 l 215 309 q 233 202 215 249 q 287 128 251 156 q 378 101 323 101 q 466 126 431 101 q 510 200 501 151 l 660 200 q 612 85 650 135 q 514 9 574 36 q 378 -19 454 -19 m 322 774 l 249 833 l 502 1088 l 602 1006 l 322 774 z "},"ó":{"ha":778,"x_min":67,"x_max":712,"o":"m 390 -19 q 226 21 299 -19 q 110 139 153 60 q 67 335 67 217 q 110 533 67 454 q 226 650 153 611 q 390 690 299 690 q 554 650 481 690 q 669 533 626 611 q 712 335 712 454 q 669 139 712 217 q 554 21 626 60 q 390 -19 481 -19 m 386 111 q 479 137 439 111 q 541 213 519 163 q 563 335 563 263 q 519 503 563 445 q 395 561 475 561 q 302 535 342 561 q 240 459 262 510 q 217 335 217 408 q 262 169 217 226 q 386 111 306 111 m 346 774 l 274 833 l 526 1088 l 626 1006 l 346 774 z "},"ú":{"ha":863,"x_min":117,"x_max":730,"o":"m 582 674 l 730 674 l 730 0 l 582 0 l 582 674 m 117 674 l 265 674 l 265 260 q 300 153 265 189 q 397 117 335 117 q 491 145 449 117 q 558 224 533 172 q 582 351 582 276 l 625 351 q 593 150 625 231 q 504 28 561 69 q 372 -12 447 -12 q 241 14 299 -12 q 150 97 183 40 q 117 245 117 153 l 117 674 m 399 774 l 327 833 l 580 1088 l 680 1006 l 399 774 z "},"Á":{"ha":849,"x_min":32,"x_max":817,"o":"m 32 0 l 337 893 l 522 893 l 817 0 l 660 0 l 594 203 l 256 203 l 190 0 l 32 0 m 294 315 l 559 315 l 427 715 l 294 315 m 389 996 l 317 1055 l 569 1309 l 669 1228 l 389 996 z "},"É":{"ha":805,"x_min":131,"x_max":699,"o":"m 131 0 l 131 893 l 699 893 l 699 765 l 279 765 l 279 513 l 674 513 l 674 384 l 279 384 l 279 130 l 699 130 l 699 0 l 131 0 m 359 996 l 287 1055 l 540 1309 l 640 1228 l 359 996 z "},"Ì":{"ha":413,"x_min":31,"x_max":383,"o":"m 132 0 l 132 893 l 281 893 l 281 0 l 132 0 m 311 999 l 31 1231 l 131 1312 l 383 1058 l 311 999 z "},"Í":{"ha":413,"x_min":91,"x_max":444,"o":"m 132 0 l 132 893 l 281 893 l 281 0 l 132 0 m 163 996 l 91 1055 l 344 1309 l 444 1228 l 163 996 z "},"Ò":{"ha":934,"x_min":67,"x_max":867,"o":"m 467 -19 q 260 33 350 -19 q 118 189 169 85 q 67 447 67 292 q 118 706 67 603 q 260 860 169 809 q 467 910 350 910 q 675 859 584 910 q 816 704 765 807 q 867 447 867 601 q 816 187 867 291 q 675 32 765 83 q 467 -19 584 -19 m 467 117 q 647 202 581 117 q 714 448 714 287 q 647 691 714 605 q 467 777 581 777 q 288 691 355 777 q 221 447 221 604 q 288 201 221 286 q 467 117 355 117 m 574 999 l 294 1231 l 394 1312 l 647 1058 l 574 999 z "},"Ó":{"ha":934,"x_min":67,"x_max":867,"o":"m 467 -19 q 260 33 350 -19 q 118 189 169 85 q 67 447 67 292 q 118 706 67 603 q 260 860 169 809 q 467 910 350 910 q 675 859 584 910 q 816 704 765 807 q 867 447 867 601 q 816 187 867 291 q 675 32 765 83 q 467 -19 584 -19 m 467 117 q 647 202 581 117 q 714 448 714 287 q 647 691 714 605 q 467 777 581 777 q 288 691 355 777 q 221 447 221 604 q 288 201 221 286 q 467 117 355 117 m 427 996 l 355 1055 l 608 1309 l 708 1228 l 427 996 z "},"Ù":{"ha":944,"x_min":117,"x_max":828,"o":"m 117 893 l 265 893 l 265 333 q 323 168 265 219 q 473 117 381 117 q 622 168 565 117 q 680 333 680 219 l 680 893 l 828 893 l 828 333 q 786 142 828 221 q 663 22 743 63 q 473 -19 583 -19 q 282 22 362 -19 q 160 142 203 63 q 117 333 117 221 l 117 893 m 576 999 l 296 1231 l 396 1312 l 649 1058 l 576 999 z "},"Ú":{"ha":944,"x_min":117,"x_max":828,"o":"m 117 893 l 265 893 l 265 333 q 323 168 265 219 q 473 117 381 117 q 622 168 565 117 q 680 333 680 219 l 680 893 l 828 893 l 828 333 q 786 142 828 221 q 663 22 743 63 q 473 -19 583 -19 q 282 22 362 -19 q 160 142 203 63 q 117 333 117 221 l 117 893 m 428 996 l 356 1055 l 609 1309 l 709 1228 l 428 996 z "},"ˆ":{"ha":614,"x_min":67,"x_max":547,"o":"m 155 767 l 67 836 l 306 1050 l 547 836 l 459 767 l 281 933 l 333 933 l 155 767 z "},"â":{"ha":799,"x_min":78,"x_max":686,"o":"m 556 0 l 538 159 l 538 433 q 506 545 538 510 q 404 581 475 581 q 333 569 363 581 q 285 534 302 557 q 268 476 268 510 l 105 476 q 141 599 105 552 q 245 668 178 646 q 404 690 312 690 q 552 662 488 690 q 651 577 615 635 q 686 428 686 519 l 686 0 l 556 0 m 334 -19 q 192 11 249 -19 q 107 90 135 41 q 78 194 78 138 q 112 302 78 259 q 207 366 146 345 q 349 388 267 388 q 452 379 403 388 q 551 355 502 370 l 551 267 q 465 288 512 281 q 377 296 418 296 q 277 273 317 296 q 237 194 237 249 q 269 124 237 153 q 370 95 301 95 q 459 118 422 95 q 517 176 497 142 q 538 245 538 211 l 573 245 q 545 114 573 174 q 465 18 518 54 q 334 -19 412 -19 m 247 761 l 159 830 l 399 1044 l 640 830 l 551 761 l 373 927 l 425 927 l 247 761 z "},"ê":{"ha":730,"x_min":67,"x_max":667,"o":"m 378 -19 q 221 26 292 -19 q 109 150 151 70 q 67 335 67 230 q 108 526 67 447 q 220 647 150 605 q 378 690 291 690 q 515 658 458 690 q 607 572 572 626 q 654 449 642 517 q 657 308 667 381 l 185 308 l 185 390 l 553 390 l 522 369 q 518 440 524 405 q 497 505 513 476 q 453 553 481 535 q 381 571 424 571 q 289 544 326 571 q 233 471 252 517 q 215 369 215 425 l 215 309 q 233 202 215 249 q 287 128 251 156 q 378 101 323 101 q 466 126 431 101 q 510 200 501 151 l 660 200 q 612 85 650 135 q 514 9 574 36 q 378 -19 454 -19 m 213 761 l 125 830 l 365 1044 l 606 830 l 517 761 l 339 927 l 391 927 l 213 761 z "},"ô":{"ha":778,"x_min":67,"x_max":712,"o":"m 390 -19 q 226 21 299 -19 q 110 139 153 60 q 67 335 67 217 q 110 533 67 454 q 226 650 153 611 q 390 690 299 690 q 554 650 481 690 q 669 533 626 611 q 712 335 712 454 q 669 139 712 217 q 554 21 626 60 q 390 -19 481 -19 m 386 111 q 479 137 439 111 q 541 213 519 163 q 563 335 563 263 q 519 503 563 445 q 395 561 475 561 q 302 535 342 561 q 240 459 262 510 q 217 335 217 408 q 262 169 217 226 q 386 111 306 111 m 238 761 l 149 830 l 389 1044 l 630 830 l 542 761 l 363 927 l 415 927 l 238 761 z "},"û":{"ha":863,"x_min":117,"x_max":730,"o":"m 582 674 l 730 674 l 730 0 l 582 0 l 582 674 m 117 674 l 265 674 l 265 260 q 300 153 265 189 q 397 117 335 117 q 491 145 449 117 q 558 224 533 172 q 582 351 582 276 l 625 351 q 593 150 625 231 q 504 28 561 69 q 372 -12 447 -12 q 241 14 299 -12 q 150 97 183 40 q 117 245 117 153 l 117 674 m 291 761 l 203 830 l 442 1044 l 683 830 l 595 761 l 417 927 l 469 927 l 291 761 z "},"Â":{"ha":849,"x_min":32,"x_max":817,"o":"m 32 0 l 337 893 l 522 893 l 817 0 l 660 0 l 594 203 l 256 203 l 190 0 l 32 0 m 294 315 l 559 315 l 427 715 l 294 315 m 280 983 l 192 1051 l 431 1265 l 672 1051 l 584 983 l 406 1149 l 458 1149 l 280 983 z "},"Ê":{"ha":805,"x_min":131,"x_max":699,"o":"m 131 0 l 131 893 l 699 893 l 699 765 l 279 765 l 279 513 l 674 513 l 674 384 l 279 384 l 279 130 l 699 130 l 699 0 l 131 0 m 250 983 l 162 1051 l 401 1265 l 642 1051 l 554 983 l 376 1149 l 428 1149 l 250 983 z "},"Î":{"ha":413,"x_min":-33,"x_max":447,"o":"m 132 0 l 132 893 l 281 893 l 281 0 l 132 0 m 54 983 l -34 1051 l 206 1265 l 447 1051 l 358 983 l 180 1149 l 232 1149 l 54 983 z "},"Ô":{"ha":934,"x_min":67,"x_max":867,"o":"m 467 -19 q 260 33 350 -19 q 118 189 169 85 q 67 447 67 292 q 118 706 67 603 q 260 860 169 809 q 467 910 350 910 q 675 859 584 910 q 816 704 765 807 q 867 447 867 601 q 816 187 867 291 q 675 32 765 83 q 467 -19 584 -19 m 467 117 q 647 202 581 117 q 714 448 714 287 q 647 691 714 605 q 467 777 581 777 q 288 691 355 777 q 221 447 221 604 q 288 201 221 286 q 467 117 355 117 m 318 983 l 230 1051 l 469 1265 l 710 1051 l 622 983 l 444 1149 l 496 1149 l 318 983 z "},"Û":{"ha":944,"x_min":117,"x_max":828,"o":"m 117 893 l 265 893 l 265 333 q 323 168 265 219 q 473 117 381 117 q 622 168 565 117 q 680 333 680 219 l 680 893 l 828 893 l 828 333 q 786 142 828 221 q 663 22 743 63 q 473 -19 583 -19 q 282 22 362 -19 q 160 142 203 63 q 117 333 117 221 l 117 893 m 320 983 l 232 1051 l 472 1265 l 713 1051 l 624 983 l 446 1149 l 498 1149 l 320 983 z "},"˜":{"ha":602,"x_min":67,"x_max":535,"o":"m 126 781 l 67 818 q 120 942 83 898 q 208 986 158 986 q 249 979 228 986 q 310 951 271 972 q 365 924 347 932 q 399 917 383 917 q 438 933 419 917 q 472 986 458 950 l 535 944 q 505 859 526 896 q 457 802 483 823 q 402 781 430 781 q 354 791 378 781 q 289 821 330 800 q 239 846 254 840 q 208 852 223 852 q 166 837 186 852 q 126 781 146 822 z "},"&":{"ha":1321,"x_min":126,"x_max":1249,"o":"m 1041 -19 q 923 9 978 -19 q 806 94 868 37 l 361 493 q 287 585 315 533 q 259 693 259 637 q 294 802 259 753 q 394 880 328 851 q 553 908 460 908 q 707 880 643 908 q 806 803 772 851 q 840 696 840 755 q 811 587 840 635 q 722 499 782 538 q 572 428 663 460 l 492 501 q 599 556 559 529 q 658 613 640 583 q 676 678 676 643 q 642 752 676 723 q 553 781 608 781 q 456 749 489 781 q 422 672 422 717 q 439 608 422 638 q 491 546 456 578 l 925 157 q 973 124 951 135 q 1027 113 995 113 q 1086 138 1061 113 q 1113 218 1110 163 l 1249 218 q 1194 45 1245 109 q 1041 -19 1142 -19 m 490 -19 q 349 2 415 -19 q 233 59 283 22 q 155 146 183 97 q 126 253 126 195 q 213 415 126 360 q 456 482 299 469 l 501 400 q 341 355 391 390 q 290 261 290 320 q 314 188 290 221 q 383 135 338 155 q 492 116 428 116 q 639 148 572 116 q 763 237 706 180 q 864 370 819 294 q 944 536 910 447 l 1045 480 q 955 280 1008 371 q 831 122 901 188 q 676 18 761 55 q 490 -19 590 -19 z "},"@":{"ha":1392,"x_min":93,"x_max":1324,"o":"m 781 -287 q 498 -243 625 -287 q 281 -119 372 -199 q 142 69 190 -39 q 93 306 93 177 q 143 547 93 437 q 282 739 192 658 q 491 866 371 821 q 751 910 611 910 q 988 872 883 910 q 1168 764 1093 833 q 1284 602 1244 694 q 1324 404 1324 510 q 1296 242 1324 313 q 1222 120 1269 170 q 1117 44 1175 70 q 997 18 1058 18 q 895 43 935 18 q 843 111 854 68 l 836 133 q 772 52 813 85 q 663 18 731 18 q 547 50 600 18 q 462 140 494 82 q 430 275 430 198 q 456 405 430 344 q 528 511 483 465 q 633 583 574 557 q 757 609 692 609 q 900 555 847 609 q 952 394 952 501 l 952 203 q 965 149 952 166 q 1002 133 977 133 q 1077 163 1037 133 q 1145 252 1117 192 q 1173 402 1173 313 q 1124 596 1173 511 q 983 729 1076 681 q 758 778 890 778 q 549 740 643 778 q 386 636 454 703 q 281 480 317 569 q 244 287 244 391 q 307 51 244 153 q 490 -109 369 -51 q 781 -167 610 -167 l 781 -287 m 688 138 q 771 167 738 138 q 833 251 804 197 l 833 393 q 815 467 833 440 q 755 494 798 494 q 668 467 712 494 q 595 391 624 440 q 565 276 565 342 q 600 172 565 207 q 688 138 635 138 z "},"¨":{"ha":573,"x_min":67,"x_max":506,"o":"m 415 792 q 351 817 377 792 q 324 878 324 842 q 351 940 324 915 q 415 965 377 965 q 480 940 454 965 q 506 878 506 915 q 480 817 506 842 q 415 792 454 792 m 158 792 q 92 817 117 792 q 67 877 67 842 q 92 939 67 915 q 158 964 117 964 q 223 939 197 964 q 249 877 249 915 q 223 817 249 842 q 158 792 197 792 z "},"ä":{"ha":799,"x_min":78,"x_max":686,"o":"m 556 0 l 538 159 l 538 433 q 506 545 538 510 q 404 581 475 581 q 333 569 363 581 q 285 534 302 557 q 268 476 268 510 l 105 476 q 141 599 105 552 q 245 668 178 646 q 404 690 312 690 q 552 662 488 690 q 651 577 615 635 q 686 428 686 519 l 686 0 l 556 0 m 334 -19 q 192 11 249 -19 q 107 90 135 41 q 78 194 78 138 q 112 302 78 259 q 207 366 146 345 q 349 388 267 388 q 452 379 403 388 q 551 355 502 370 l 551 267 q 465 288 512 281 q 377 296 418 296 q 277 273 317 296 q 237 194 237 249 q 269 124 237 153 q 370 95 301 95 q 459 118 422 95 q 517 176 497 142 q 538 245 538 211 l 573 245 q 545 114 573 174 q 465 18 518 54 q 334 -19 412 -19 m 528 792 q 464 817 490 792 q 438 878 438 842 q 464 940 438 915 q 528 965 490 965 q 593 940 567 965 q 619 878 619 915 q 593 817 619 842 q 528 792 567 792 m 271 792 q 205 817 231 792 q 180 877 180 842 q 205 939 180 915 q 271 964 231 964 q 336 939 310 964 q 363 877 363 915 q 336 817 363 842 q 271 792 310 792 z "},"ë":{"ha":730,"x_min":67,"x_max":667,"o":"m 378 -19 q 221 26 292 -19 q 109 150 151 70 q 67 335 67 230 q 108 526 67 447 q 220 647 150 605 q 378 690 291 690 q 515 658 458 690 q 607 572 572 626 q 654 449 642 517 q 657 308 667 381 l 185 308 l 185 390 l 553 390 l 522 369 q 518 440 524 405 q 497 505 513 476 q 453 553 481 535 q 381 571 424 571 q 289 544 326 571 q 233 471 252 517 q 215 369 215 425 l 215 309 q 233 202 215 249 q 287 128 251 156 q 378 101 323 101 q 466 126 431 101 q 510 200 501 151 l 660 200 q 612 85 650 135 q 514 9 574 36 q 378 -19 454 -19 m 493 792 q 429 817 456 792 q 403 878 403 842 q 429 940 403 915 q 493 965 456 965 q 559 940 533 965 q 585 878 585 915 q 559 817 585 842 q 493 792 533 792 m 236 792 q 170 817 196 792 q 145 877 145 842 q 170 939 145 915 q 236 964 196 964 q 302 939 276 964 q 328 877 328 915 q 302 817 328 842 q 236 792 276 792 z "},"ö":{"ha":778,"x_min":67,"x_max":712,"o":"m 390 -19 q 226 21 299 -19 q 110 139 153 60 q 67 335 67 217 q 110 533 67 454 q 226 650 153 611 q 390 690 299 690 q 554 650 481 690 q 669 533 626 611 q 712 335 712 454 q 669 139 712 217 q 554 21 626 60 q 390 -19 481 -19 m 386 111 q 479 137 439 111 q 541 213 519 163 q 563 335 563 263 q 519 503 563 445 q 395 561 475 561 q 302 535 342 561 q 240 459 262 510 q 217 335 217 408 q 262 169 217 226 q 386 111 306 111 m 518 792 q 454 817 481 792 q 428 878 428 842 q 454 940 428 915 q 518 965 481 965 q 584 940 558 965 q 610 878 610 915 q 584 817 610 842 q 518 792 558 792 m 261 792 q 195 817 221 792 q 170 877 170 842 q 195 939 170 915 q 261 964 221 964 q 327 939 301 964 q 353 877 353 915 q 327 817 353 842 q 261 792 301 792 z "},"ü":{"ha":863,"x_min":117,"x_max":730,"o":"m 582 674 l 730 674 l 730 0 l 582 0 l 582 674 m 117 674 l 265 674 l 265 260 q 300 153 265 189 q 397 117 335 117 q 491 145 449 117 q 558 224 533 172 q 582 351 582 276 l 625 351 q 593 150 625 231 q 504 28 561 69 q 372 -12 447 -12 q 241 14 299 -12 q 150 97 183 40 q 117 245 117 153 l 117 674 m 571 792 q 507 817 533 792 q 481 878 481 842 q 507 940 481 915 q 571 965 533 965 q 636 940 610 965 q 663 878 663 915 q 636 817 663 842 q 571 792 610 792 m 314 792 q 248 817 274 792 q 223 877 223 842 q 248 939 223 915 q 314 964 274 964 q 380 939 353 964 q 406 877 406 915 q 380 817 406 842 q 314 792 353 792 z "},"Ä":{"ha":849,"x_min":32,"x_max":817,"o":"m 32 0 l 337 893 l 522 893 l 817 0 l 660 0 l 594 203 l 256 203 l 190 0 l 32 0 m 294 315 l 559 315 l 427 715 l 294 315 m 560 1014 q 497 1039 523 1014 q 470 1100 470 1063 q 497 1162 470 1137 q 560 1187 523 1187 q 626 1162 600 1187 q 652 1100 652 1137 q 626 1039 652 1063 q 560 1014 600 1014 m 303 1014 q 238 1039 263 1014 q 213 1099 213 1063 q 238 1161 213 1136 q 303 1185 263 1185 q 369 1161 343 1185 q 395 1099 395 1136 q 369 1039 395 1063 q 303 1014 343 1014 z "},"Ë":{"ha":805,"x_min":131,"x_max":699,"o":"m 131 0 l 131 893 l 699 893 l 699 765 l 279 765 l 279 513 l 674 513 l 674 384 l 279 384 l 279 130 l 699 130 l 699 0 l 131 0 m 531 1014 q 467 1039 493 1014 q 440 1100 440 1063 q 467 1162 440 1137 q 531 1187 493 1187 q 596 1162 570 1187 q 622 1100 622 1137 q 596 1039 622 1063 q 531 1014 570 1014 m 274 1014 q 208 1039 233 1014 q 183 1099 183 1063 q 208 1161 183 1136 q 274 1185 233 1185 q 339 1161 313 1185 q 365 1099 365 1136 q 339 1039 365 1063 q 274 1014 313 1014 z "},"Ï":{"ha":413,"x_min":-13,"x_max":426,"o":"m 132 0 l 132 893 l 281 893 l 281 0 l 132 0 m 335 1014 q 271 1039 297 1014 q 244 1100 244 1063 q 271 1162 244 1137 q 335 1187 297 1187 q 400 1162 374 1187 q 426 1100 426 1137 q 400 1039 426 1063 q 335 1014 374 1014 m 78 1014 q 12 1039 38 1014 q -13 1099 -13 1063 q 12 1161 -13 1136 q 78 1185 38 1185 q 143 1161 117 1185 q 169 1099 169 1136 q 143 1039 169 1063 q 78 1014 117 1014 z "},"Ö":{"ha":934,"x_min":67,"x_max":867,"o":"m 467 -19 q 260 33 350 -19 q 118 189 169 85 q 67 447 67 292 q 118 706 67 603 q 260 860 169 809 q 467 910 350 910 q 675 859 584 910 q 816 704 765 807 q 867 447 867 601 q 816 187 867 291 q 675 32 765 83 q 467 -19 584 -19 m 467 117 q 647 202 581 117 q 714 448 714 287 q 647 691 714 605 q 467 777 581 777 q 288 691 355 777 q 221 447 221 604 q 288 201 221 286 q 467 117 355 117 m 599 1014 q 535 1039 561 1014 q 508 1100 508 1063 q 535 1162 508 1137 q 599 1187 561 1187 q 664 1162 638 1187 q 690 1100 690 1137 q 664 1039 690 1063 q 599 1014 638 1014 m 342 1014 q 276 1039 301 1014 q 251 1099 251 1063 q 276 1161 251 1136 q 342 1185 301 1185 q 407 1161 381 1185 q 433 1099 433 1136 q 407 1039 433 1063 q 342 1014 381 1014 z "},"Ü":{"ha":944,"x_min":117,"x_max":828,"o":"m 117 893 l 265 893 l 265 333 q 323 168 265 219 q 473 117 381 117 q 622 168 565 117 q 680 333 680 219 l 680 893 l 828 893 l 828 333 q 786 142 828 221 q 663 22 743 63 q 473 -19 583 -19 q 282 22 362 -19 q 160 142 203 63 q 117 333 117 221 l 117 893 m 600 1014 q 536 1039 563 1014 q 510 1100 510 1063 q 536 1162 510 1137 q 600 1187 563 1187 q 666 1162 640 1187 q 692 1100 692 1137 q 666 1039 692 1063 q 600 1014 640 1014 m 343 1014 q 277 1039 303 1014 q 252 1099 252 1063 q 277 1161 252 1136 q 343 1185 303 1185 q 409 1161 383 1185 q 435 1099 435 1136 q 409 1039 435 1063 q 343 1014 383 1014 z "},"ì":{"ha":444,"x_min":42,"x_max":394,"o":"m 144 0 l 144 674 l 293 674 l 293 0 l 144 0 m 322 777 l 42 1009 l 142 1090 l 394 836 l 322 777 z "},"í":{"ha":444,"x_min":103,"x_max":455,"o":"m 144 0 l 144 674 l 293 674 l 293 0 l 144 0 m 174 774 l 102 833 l 355 1088 l 455 1006 l 174 774 z "},"î":{"ha":444,"x_min":-22,"x_max":458,"o":"m 144 0 l 144 674 l 293 674 l 293 0 l 144 0 m 66 761 l -22 830 l 217 1044 l 458 830 l 370 761 l 192 927 l 244 927 l 66 761 z "},"ï":{"ha":444,"x_min":-1,"x_max":438,"o":"m 144 0 l 144 674 l 293 674 l 293 0 l 144 0 m 347 792 q 283 817 309 792 q 256 878 256 842 q 283 940 256 915 q 347 965 309 965 q 412 940 386 965 q 438 878 438 915 q 412 817 438 842 q 347 792 386 792 m 90 792 q 24 817 49 792 q -1 877 -1 842 q 24 939 -1 915 q 90 964 49 964 q 155 939 129 964 q 181 877 181 915 q 155 817 181 842 q 90 792 129 792 z "},"<":{"ha":742,"x_min":94,"x_max":648,"o":"m 550 840 l 648 726 l 200 410 l 200 472 l 648 158 l 550 44 l 94 374 l 94 507 l 550 840 z "},">":{"ha":742,"x_min":94,"x_max":648,"o":"m 192 44 l 94 158 l 540 472 l 540 410 l 94 726 l 192 840 l 648 507 l 648 374 l 192 44 z "},"\"":{"ha":501,"x_min":43,"x_max":459,"o":"m 328 627 l 309 951 l 459 951 l 438 627 l 328 627 m 63 627 l 43 951 l 192 951 l 172 627 l 63 627 z "},"#":{"ha":922,"x_min":78,"x_max":861,"o":"m 189 45 l 208 230 l 78 230 l 87 328 l 219 328 l 243 556 l 111 556 l 121 653 l 253 653 l 273 836 l 413 836 l 393 653 l 589 653 l 608 836 l 747 836 l 728 653 l 861 653 l 851 556 l 717 556 l 694 328 l 828 328 l 817 230 l 683 230 l 664 45 l 524 45 l 544 230 l 348 230 l 328 45 l 189 45 m 358 328 l 554 328 l 578 556 l 383 556 l 358 328 z "},"*":{"ha":569,"x_min":72,"x_max":503,"o":"m 107 613 l 228 728 l 72 781 l 111 872 l 251 801 l 236 970 l 339 970 l 324 801 l 464 874 l 503 782 l 349 730 l 470 613 l 394 547 l 289 688 l 182 547 l 107 613 z "},"/":{"ha":640,"x_min":75,"x_max":582,"o":"m 75 -108 l 430 1029 l 582 1029 l 225 -108 l 75 -108 z "},"%":{"ha":1047,"x_min":85,"x_max":973,"o":"m 149 0 l 753 893 l 904 893 l 301 0 l 149 0 m 785 -15 q 693 8 736 -15 q 625 77 651 31 q 599 193 599 124 q 625 309 599 263 q 693 378 651 355 q 785 401 736 401 q 878 378 835 401 q 947 309 921 355 q 973 193 973 263 q 947 77 973 124 q 878 8 921 31 q 785 -15 835 -15 m 785 82 q 839 108 818 82 q 859 193 859 133 q 839 279 859 253 q 785 305 818 305 q 731 279 751 305 q 711 193 711 253 q 731 108 711 133 q 785 82 751 82 m 270 497 q 179 519 222 497 q 111 589 137 542 q 85 704 85 635 q 111 819 85 773 q 179 888 137 865 q 270 910 222 910 q 364 888 321 910 q 432 819 406 865 q 458 704 458 773 q 432 589 458 635 q 364 519 406 542 q 270 497 321 497 m 270 592 q 324 618 303 592 q 344 704 344 644 q 324 789 344 763 q 270 815 303 815 q 217 789 238 815 q 197 704 197 763 q 217 618 197 644 q 270 592 238 592 z "},"\\":{"ha":640,"x_min":58,"x_max":565,"o":"m 58 1030 l 208 1030 l 565 -108 l 413 -108 l 58 1030 z "},"|":{"ha":413,"x_min":132,"x_max":281,"o":"m 132 -169 l 132 1062 l 281 1062 l 281 -169 l 132 -169 z "},"[":{"ha":475,"x_min":132,"x_max":456,"o":"m 132 -181 l 132 1074 l 456 1074 l 456 940 l 281 940 l 281 -47 l 456 -47 l 456 -181 l 132 -181 z "},"]":{"ha":447,"x_min":-10,"x_max":315,"o":"m 315 -181 l -10 -181 l -10 -47 l 166 -47 l 166 940 l -10 940 l -10 1074 l 315 1074 l 315 -181 z "},"^":{"ha":742,"x_min":45,"x_max":697,"o":"m 45 313 l 311 831 l 431 831 l 697 313 l 533 313 l 342 717 l 399 717 l 210 313 l 45 313 z "},"_":{"ha":1050,"x_min":76,"x_max":975,"o":"m 76 0 l 76 130 l 975 130 l 975 0 l 76 0 z "},"{":{"ha":526,"x_min":100,"x_max":519,"o":"m 519 -210 q 323 -166 399 -210 q 213 -44 248 -122 q 178 133 178 34 l 178 260 q 169 341 178 318 q 132 363 159 363 l 100 363 l 100 513 l 132 513 q 169 535 159 513 q 178 616 178 557 l 178 744 q 213 920 178 844 q 323 1041 248 997 q 519 1085 399 1085 l 519 951 q 372 900 417 951 q 326 741 326 848 l 326 609 q 302 502 326 543 q 240 441 278 460 l 240 435 q 302 374 278 416 q 326 267 326 333 l 326 135 q 372 -24 326 28 q 519 -76 417 -76 l 519 -210 z "},"}":{"ha":526,"x_min":7,"x_max":426,"o":"m 7 -210 l 7 -76 q 155 -24 109 -76 q 201 135 201 28 l 201 267 q 225 374 201 333 q 287 435 250 416 l 287 441 q 225 502 250 460 q 201 609 201 543 l 201 741 q 155 900 201 848 q 7 951 109 951 l 7 1085 q 203 1041 128 1085 q 313 920 278 997 q 348 744 348 844 l 348 616 q 358 535 348 557 q 395 513 368 513 l 426 513 l 426 363 l 395 363 q 358 341 368 363 q 348 260 348 318 l 348 133 q 313 -44 348 34 q 203 -166 278 -122 q 7 -210 128 -210 z "},"~":{"ha":742,"x_min":64,"x_max":678,"o":"m 144 290 l 64 333 q 129 468 88 419 q 233 517 170 517 q 296 507 263 517 q 381 478 329 498 q 460 450 433 458 q 508 442 488 442 q 558 461 535 442 q 599 519 582 481 l 678 468 q 604 342 651 383 q 497 300 558 300 q 441 309 474 300 q 356 339 408 318 q 278 366 304 358 q 232 374 253 374 q 184 355 206 374 q 144 290 162 336 z "},"ã":{"ha":799,"x_min":78,"x_max":686,"o":"m 556 0 l 538 159 l 538 433 q 506 545 538 510 q 404 581 475 581 q 333 569 363 581 q 285 534 302 557 q 268 476 268 510 l 105 476 q 141 599 105 552 q 245 668 178 646 q 404 690 312 690 q 552 662 488 690 q 651 577 615 635 q 686 428 686 519 l 686 0 l 556 0 m 334 -19 q 192 11 249 -19 q 107 90 135 41 q 78 194 78 138 q 112 302 78 259 q 207 366 146 345 q 349 388 267 388 q 452 379 403 388 q 551 355 502 370 l 551 267 q 465 288 512 281 q 377 296 418 296 q 277 273 317 296 q 237 194 237 249 q 269 124 237 153 q 370 95 301 95 q 459 118 422 95 q 517 176 497 142 q 538 245 538 211 l 573 245 q 545 114 573 174 q 465 18 518 54 q 334 -19 412 -19 m 224 777 l 165 814 q 218 938 181 894 q 306 982 256 982 q 347 975 326 982 q 408 947 369 967 q 463 920 445 928 q 497 913 481 913 q 536 929 517 913 q 570 982 556 946 l 633 940 q 602 855 624 892 q 555 798 581 819 q 500 777 528 777 q 452 786 476 777 q 387 817 428 796 q 336 842 352 835 q 306 848 321 848 q 264 833 284 848 q 224 777 244 818 z "},"ñ":{"ha":858,"x_min":132,"x_max":746,"o":"m 597 0 l 597 393 q 559 515 597 474 q 456 556 520 556 q 365 528 404 556 q 303 443 325 499 q 281 305 281 387 l 230 305 q 262 517 230 432 q 354 646 294 603 q 494 690 413 690 q 632 653 576 690 q 717 549 688 616 q 746 393 746 483 l 746 0 l 597 0 m 132 0 l 132 671 l 262 671 l 281 532 l 281 0 l 132 0 m 267 783 l 207 820 q 261 944 224 900 q 349 988 298 988 q 390 981 368 988 q 450 953 411 974 q 505 926 488 934 q 539 919 523 919 q 578 935 559 919 q 613 988 598 952 l 676 947 q 645 861 666 898 q 597 804 624 825 q 542 783 570 783 q 494 793 519 783 q 429 823 470 802 q 379 848 394 842 q 349 854 363 854 q 306 839 326 854 q 267 783 286 824 z "},"õ":{"ha":778,"x_min":67,"x_max":712,"o":"m 390 -19 q 226 21 299 -19 q 110 139 153 60 q 67 335 67 217 q 110 533 67 454 q 226 650 153 611 q 390 690 299 690 q 554 650 481 690 q 669 533 626 611 q 712 335 712 454 q 669 139 712 217 q 554 21 626 60 q 390 -19 481 -19 m 386 111 q 479 137 439 111 q 541 213 519 163 q 563 335 563 263 q 519 503 563 445 q 395 561 475 561 q 302 535 342 561 q 240 459 262 510 q 217 335 217 408 q 262 169 217 226 q 386 111 306 111 m 215 777 l 156 814 q 209 938 172 894 q 297 982 247 982 q 338 975 317 982 q 399 947 360 967 q 454 920 436 928 q 488 913 472 913 q 527 929 508 913 q 561 982 547 946 l 624 940 q 593 855 615 892 q 545 798 572 819 q 491 777 519 777 q 443 786 467 777 q 378 817 419 796 q 327 842 343 835 q 297 848 312 848 q 255 833 275 848 q 215 777 235 818 z "},"Ã":{"ha":849,"x_min":32,"x_max":817,"o":"m 32 0 l 337 893 l 522 893 l 817 0 l 660 0 l 594 203 l 256 203 l 190 0 l 32 0 m 294 315 l 559 315 l 427 715 l 294 315 m 258 999 l 198 1035 q 252 1159 215 1115 q 340 1203 289 1203 q 381 1196 359 1203 q 441 1169 402 1189 q 496 1142 478 1149 q 530 1134 514 1134 q 569 1151 550 1134 q 603 1203 589 1167 l 667 1162 q 636 1077 657 1113 q 588 1019 615 1040 q 533 999 561 999 q 485 1008 510 999 q 420 1038 461 1017 q 370 1063 385 1057 q 340 1069 354 1069 q 297 1055 317 1069 q 258 999 277 1040 z "},"Ñ":{"ha":983,"x_min":130,"x_max":851,"o":"m 130 893 l 295 893 l 714 230 l 702 230 l 702 893 l 851 893 l 851 0 l 697 0 l 255 699 l 278 699 l 278 0 l 130 0 l 130 893 m 317 999 l 257 1035 q 311 1159 274 1115 q 399 1203 348 1203 q 440 1196 418 1203 q 500 1169 461 1189 q 555 1142 538 1149 q 589 1134 573 1134 q 628 1151 609 1134 q 663 1203 648 1167 l 726 1162 q 695 1077 716 1113 q 647 1019 674 1040 q 592 999 620 999 q 544 1008 569 999 q 479 1038 520 1017 q 429 1063 444 1057 q 399 1069 413 1069 q 356 1055 376 1069 q 317 999 336 1040 z "},"Õ":{"ha":934,"x_min":67,"x_max":867,"o":"m 467 -19 q 260 33 350 -19 q 118 189 169 85 q 67 447 67 292 q 118 706 67 603 q 260 860 169 809 q 467 910 350 910 q 675 859 584 910 q 816 704 765 807 q 867 447 867 601 q 816 187 867 291 q 675 32 765 83 q 467 -19 584 -19 m 467 117 q 647 202 581 117 q 714 448 714 287 q 647 691 714 605 q 467 777 581 777 q 288 691 355 777 q 221 447 221 604 q 288 201 221 286 q 467 117 355 117 m 296 999 l 236 1035 q 290 1159 253 1115 q 378 1203 327 1203 q 419 1196 397 1203 q 479 1169 440 1189 q 534 1142 517 1149 q 568 1134 552 1134 q 608 1151 588 1134 q 642 1203 627 1167 l 705 1162 q 674 1077 695 1113 q 626 1019 653 1040 q 572 999 599 999 q 524 1008 548 999 q 458 1038 499 1017 q 408 1063 424 1057 q 378 1069 392 1069 q 335 1055 356 1069 q 296 999 315 1040 z "},"Ă":{"ha":849,"x_min":32,"x_max":817,"o":"m 32 0 l 337 893 l 522 893 l 817 0 l 660 0 l 594 203 l 256 203 l 190 0 l 32 0 m 294 315 l 559 315 l 427 715 l 294 315 m 432 1026 q 276 1082 333 1026 q 219 1232 219 1137 l 338 1232 q 363 1152 338 1179 q 432 1124 388 1124 q 501 1152 476 1124 q 526 1232 526 1179 l 644 1232 q 588 1082 644 1137 q 432 1026 531 1026 z "},"Ā":{"ha":849,"x_min":32,"x_max":817,"o":"m 32 0 l 337 893 l 522 893 l 817 0 l 660 0 l 594 203 l 256 203 l 190 0 l 32 0 m 294 315 l 559 315 l 427 715 l 294 315 m 199 1155 l 666 1155 l 666 1033 l 199 1033 l 199 1155 z "},"Ą":{"ha":849,"x_min":32,"x_max":897,"o":"m 32 0 l 337 893 l 522 893 l 817 0 l 660 0 l 594 203 l 256 203 l 190 0 l 32 0 m 294 315 l 559 315 l 427 715 l 294 315 m 897 -227 q 806 -264 853 -251 q 713 -276 758 -276 q 594 -244 641 -276 q 547 -151 547 -211 q 585 -51 547 -99 q 698 27 624 -3 l 808 0 q 692 -57 735 -26 q 649 -124 649 -87 q 673 -165 649 -153 q 726 -176 697 -176 q 788 -166 756 -176 q 862 -134 820 -156 l 897 -227 z "},"Å":{"ha":849,"x_min":32,"x_max":817,"o":"m 32 0 l 337 893 l 522 893 l 817 0 l 660 0 l 594 203 l 256 203 l 190 0 l 32 0 m 294 315 l 559 315 l 427 715 l 294 315 m 433 967 q 354 989 390 967 q 297 1046 318 1010 q 275 1126 275 1082 q 297 1205 275 1169 q 354 1262 318 1240 q 433 1283 390 1283 q 512 1262 476 1283 q 569 1205 548 1240 q 591 1126 591 1169 q 569 1046 591 1082 q 512 989 548 1010 q 433 967 476 967 m 433 1068 q 474 1085 458 1068 q 491 1126 491 1101 q 474 1167 491 1150 q 433 1183 458 1183 q 392 1167 409 1183 q 376 1125 376 1150 q 392 1085 376 1101 q 433 1068 409 1068 z "},"Æ":{"ha":1210,"x_min":57,"x_max":1103,"o":"m 1103 893 l 1103 765 l 690 765 l 715 788 l 715 453 l 690 509 l 1078 509 l 1078 381 l 690 381 l 715 422 l 715 64 l 690 131 l 1103 131 l 1103 0 l 567 0 l 567 253 l 592 203 l 238 203 l 310 249 l 211 0 l 57 0 l 413 893 l 1103 893 m 592 315 l 567 273 l 567 786 l 592 765 l 478 765 l 538 820 l 322 280 l 281 315 l 592 315 z "},"Ć":{"ha":872,"x_min":67,"x_max":808,"o":"m 453 -19 q 249 38 335 -19 q 114 200 162 95 q 67 450 67 305 q 117 703 67 601 q 254 858 167 806 q 453 910 342 910 q 693 836 606 910 q 808 642 781 761 l 649 613 q 575 731 626 686 q 453 776 525 776 q 339 740 390 776 q 257 631 288 703 q 227 450 227 558 q 253 274 227 349 q 330 158 279 199 q 453 117 380 117 q 597 167 545 117 q 649 293 649 216 l 808 293 q 765 125 808 194 q 642 18 722 56 q 453 -19 563 -19 m 403 996 l 331 1055 l 584 1309 l 684 1228 l 403 996 z "},"Č":{"ha":872,"x_min":67,"x_max":808,"o":"m 453 -19 q 249 38 335 -19 q 114 200 162 95 q 67 450 67 305 q 117 703 67 601 q 254 858 167 806 q 453 910 342 910 q 693 836 606 910 q 808 642 781 761 l 649 613 q 575 731 626 686 q 453 776 525 776 q 339 740 390 776 q 257 631 288 703 q 227 450 227 558 q 253 274 227 349 q 330 158 279 199 q 453 117 380 117 q 597 167 545 117 q 649 293 649 216 l 808 293 q 765 125 808 194 q 642 18 722 56 q 453 -19 563 -19 m 451 995 l 211 1208 l 299 1277 l 477 1095 l 425 1095 l 603 1277 l 692 1208 l 451 995 z "},"Ç":{"ha":872,"x_min":67,"x_max":808,"o":"m 453 -19 q 249 38 335 -19 q 114 200 162 95 q 67 450 67 305 q 117 703 67 601 q 254 858 167 806 q 453 910 342 910 q 693 836 606 910 q 808 642 781 761 l 649 613 q 575 731 626 686 q 453 776 525 776 q 339 740 390 776 q 257 631 288 703 q 227 450 227 558 q 253 274 227 349 q 330 158 279 199 q 453 117 380 117 q 597 167 545 117 q 649 293 649 216 l 808 293 q 765 125 808 194 q 642 18 722 56 q 453 -19 563 -19 m 322 -253 l 344 -199 q 430 -225 392 -222 q 490 -216 467 -228 q 515 -181 513 -203 q 500 -144 517 -160 q 453 -116 483 -128 q 387 -96 424 -104 l 440 51 l 509 42 l 460 -92 l 438 -51 q 546 -83 504 -62 q 607 -131 588 -103 q 624 -189 626 -158 q 589 -253 621 -229 q 511 -286 558 -278 q 414 -286 465 -294 q 322 -253 363 -278 z "},"Ċ":{"ha":872,"x_min":67,"x_max":808,"o":"m 453 -19 q 249 38 335 -19 q 114 200 162 95 q 67 450 67 305 q 117 703 67 601 q 254 858 167 806 q 453 910 342 910 q 693 836 606 910 q 808 642 781 761 l 649 613 q 575 731 626 686 q 453 776 525 776 q 339 740 390 776 q 257 631 288 703 q 227 450 227 558 q 253 274 227 349 q 330 158 279 199 q 453 117 380 117 q 597 167 545 117 q 649 293 649 216 l 808 293 q 765 125 808 194 q 642 18 722 56 q 453 -19 563 -19 m 447 1022 q 374 1049 403 1022 q 346 1117 346 1076 q 374 1188 346 1159 q 447 1217 403 1217 q 520 1188 491 1217 q 550 1117 550 1160 q 520 1049 550 1076 q 447 1022 491 1022 z "},"Ď":{"ha":944,"x_min":132,"x_max":867,"o":"m 132 893 l 414 893 q 652 838 550 893 q 810 683 753 783 q 867 446 867 583 q 810 211 867 311 q 652 55 753 110 q 414 0 550 0 l 132 0 l 132 893 m 281 759 l 281 133 l 414 133 q 570 174 504 133 q 671 285 635 215 q 707 446 707 356 q 671 608 707 538 q 570 719 635 678 q 414 759 504 759 l 281 759 m 476 995 l 236 1208 l 324 1277 l 502 1095 l 450 1095 l 628 1277 l 717 1208 l 476 995 z "},"Đ":{"ha":944,"x_min":31,"x_max":867,"o":"m 31 511 l 469 511 l 469 383 l 31 383 l 31 511 m 132 893 l 414 893 q 652 838 550 893 q 810 683 753 783 q 867 446 867 583 q 810 211 867 311 q 652 55 753 110 q 414 0 550 0 l 132 0 l 132 893 m 281 759 l 281 133 l 414 133 q 570 174 504 133 q 671 285 635 215 q 707 446 707 356 q 671 608 707 538 q 570 719 635 678 q 414 759 504 759 l 281 759 z "},"Ð":{"ha":944,"x_min":31,"x_max":867,"o":"m 31 511 l 469 511 l 469 383 l 31 383 l 31 511 m 132 893 l 414 893 q 652 838 550 893 q 810 683 753 783 q 867 446 867 583 q 810 211 867 311 q 652 55 753 110 q 414 0 550 0 l 132 0 l 132 893 m 281 759 l 281 133 l 414 133 q 570 174 504 133 q 671 285 635 215 q 707 446 707 356 q 671 608 707 538 q 570 719 635 678 q 414 759 504 759 l 281 759 z "},"Ě":{"ha":805,"x_min":131,"x_max":699,"o":"m 131 0 l 131 893 l 699 893 l 699 765 l 279 765 l 279 513 l 674 513 l 674 384 l 279 384 l 279 130 l 699 130 l 699 0 l 131 0 m 406 995 l 167 1208 l 255 1277 l 433 1095 l 381 1095 l 559 1277 l 647 1208 l 406 995 z "},"Ė":{"ha":805,"x_min":131,"x_max":699,"o":"m 131 0 l 131 893 l 699 893 l 699 765 l 279 765 l 279 513 l 674 513 l 674 384 l 279 384 l 279 130 l 699 130 l 699 0 l 131 0 m 402 1022 q 330 1049 358 1022 q 301 1117 301 1076 q 330 1188 301 1159 q 402 1217 358 1217 q 476 1188 447 1217 q 506 1117 506 1160 q 476 1049 506 1076 q 402 1022 447 1022 z "},"Ē":{"ha":805,"x_min":131,"x_max":699,"o":"m 131 0 l 131 893 l 699 893 l 699 765 l 279 765 l 279 513 l 674 513 l 674 384 l 279 384 l 279 130 l 699 130 l 699 0 l 131 0 m 169 1155 l 636 1155 l 636 1033 l 169 1033 l 169 1155 z "},"Ę":{"ha":805,"x_min":131,"x_max":766,"o":"m 131 0 l 131 893 l 699 893 l 699 765 l 279 765 l 279 513 l 674 513 l 674 384 l 279 384 l 279 130 l 699 130 l 699 0 l 131 0 m 766 -227 q 675 -264 722 -251 q 583 -276 628 -276 q 464 -244 510 -276 q 417 -151 417 -211 q 455 -51 417 -99 q 567 27 493 -3 l 677 0 q 561 -57 604 -26 q 519 -124 519 -87 q 542 -165 519 -153 q 595 -176 566 -176 q 658 -166 626 -176 q 731 -134 690 -156 l 766 -227 z "},"Ğ":{"ha":928,"x_min":67,"x_max":825,"o":"m 456 -19 q 259 39 347 -19 q 119 199 171 96 q 67 440 67 302 q 99 639 67 551 q 189 787 131 726 q 323 879 247 847 q 489 910 400 910 q 692 859 608 910 q 825 697 775 808 l 675 659 q 589 746 637 717 q 481 776 540 776 q 354 735 412 776 q 261 619 296 694 q 226 440 226 544 q 256 272 226 344 q 340 158 286 199 q 467 117 394 117 q 574 144 527 117 q 649 223 622 171 q 676 349 676 274 l 712 349 q 685 154 712 237 q 602 26 658 72 q 456 -19 545 -19 m 699 0 l 676 201 l 676 353 l 469 358 l 469 454 l 819 454 l 819 0 l 699 0 m 464 1026 q 308 1082 365 1026 q 251 1232 251 1137 l 370 1232 q 395 1152 370 1179 q 464 1124 420 1124 q 533 1152 508 1124 q 558 1232 558 1179 l 676 1232 q 619 1082 676 1137 q 464 1026 563 1026 z "},"Ģ":{"ha":928,"x_min":67,"x_max":825,"o":"m 456 -19 q 259 39 347 -19 q 119 199 171 96 q 67 440 67 302 q 99 639 67 551 q 189 787 131 726 q 323 879 247 847 q 489 910 400 910 q 692 859 608 910 q 825 697 775 808 l 675 659 q 589 746 637 717 q 481 776 540 776 q 354 735 412 776 q 261 619 296 694 q 226 440 226 544 q 256 272 226 344 q 340 158 286 199 q 467 117 394 117 q 574 144 527 117 q 649 223 622 171 q 676 349 676 274 l 712 349 q 685 154 712 237 q 602 26 658 72 q 456 -19 545 -19 m 699 0 l 676 201 l 676 353 l 469 358 l 469 454 l 819 454 l 819 0 l 699 0 m 431 -310 l 359 -273 q 420 -235 394 -256 q 455 -185 445 -214 q 411 -165 428 -181 q 397 -123 394 -149 q 419 -78 398 -96 q 471 -60 440 -60 q 529 -86 508 -60 q 549 -153 551 -113 q 516 -240 547 -196 q 431 -310 485 -283 z "},"Ġ":{"ha":928,"x_min":67,"x_max":825,"o":"m 456 -19 q 259 39 347 -19 q 119 199 171 96 q 67 440 67 302 q 99 639 67 551 q 189 787 131 726 q 323 879 247 847 q 489 910 400 910 q 692 859 608 910 q 825 697 775 808 l 675 659 q 589 746 637 717 q 481 776 540 776 q 354 735 412 776 q 261 619 296 694 q 226 440 226 544 q 256 272 226 344 q 340 158 286 199 q 467 117 394 117 q 574 144 527 117 q 649 223 622 171 q 676 349 676 274 l 712 349 q 685 154 712 237 q 602 26 658 72 q 456 -19 545 -19 m 699 0 l 676 201 l 676 353 l 469 358 l 469 454 l 819 454 l 819 0 l 699 0 m 464 1022 q 392 1049 420 1022 q 363 1117 363 1076 q 392 1188 363 1159 q 464 1217 420 1217 q 538 1188 508 1217 q 567 1117 567 1160 q 538 1049 567 1076 q 464 1022 508 1022 z "},"Ħ":{"ha":966,"x_min":132,"x_max":833,"o":"m 132 0 l 132 893 l 281 893 l 281 474 l 685 474 l 685 893 l 833 893 l 833 0 l 685 0 l 685 344 l 281 344 l 281 0 l 132 0 m 185 581 l 185 692 l 804 692 l 804 581 l 185 581 z "},"Ĳ":{"ha":1014,"x_min":132,"x_max":906,"o":"m 132 0 l 132 893 l 281 893 l 281 0 l 132 0 m 433 39 l 433 189 q 538 142 486 157 q 636 126 590 126 q 727 163 699 126 q 756 273 756 200 l 756 893 l 905 893 l 905 273 q 873 103 905 167 q 782 10 840 40 q 648 -19 724 -19 q 534 -2 588 -19 q 433 39 481 14 z "},"İ":{"ha":413,"x_min":106,"x_max":310,"o":"m 132 0 l 132 893 l 281 893 l 281 0 l 132 0 m 206 1022 q 134 1049 163 1022 q 106 1117 106 1076 q 134 1188 106 1159 q 206 1217 163 1217 q 280 1188 251 1217 q 310 1117 310 1160 q 280 1049 310 1076 q 206 1022 251 1022 z "},"Ī":{"ha":413,"x_min":52,"x_max":361,"o":"m 132 0 l 132 893 l 281 893 l 281 0 l 132 0 m 52 1155 l 361 1155 l 361 1033 l 52 1033 l 52 1155 z "},"Į":{"ha":413,"x_min":20,"x_max":369,"o":"m 132 0 l 132 893 l 281 893 l 281 0 l 132 0 m 369 -227 q 278 -264 325 -251 q 185 -276 231 -276 q 66 -244 113 -276 q 19 -151 19 -211 q 58 -51 19 -99 q 170 27 96 -3 l 280 0 q 164 -57 207 -26 q 122 -124 122 -87 q 145 -165 122 -153 q 198 -176 169 -176 q 260 -166 228 -176 q 334 -134 292 -156 l 369 -227 z "},"Ķ":{"ha":891,"x_min":132,"x_max":876,"o":"m 648 893 l 852 893 l 268 294 l 268 499 l 648 893 m 434 522 l 876 0 l 685 0 l 330 425 l 434 522 m 132 893 l 282 893 l 282 0 l 132 0 l 132 893 m 413 -310 l 341 -273 q 402 -235 376 -256 q 437 -185 427 -214 q 393 -165 410 -181 q 378 -123 376 -149 q 401 -78 380 -96 q 453 -60 422 -60 q 511 -86 490 -60 q 531 -153 533 -113 q 498 -240 528 -196 q 413 -310 467 -283 z "},"Ĺ":{"ha":676,"x_min":132,"x_max":657,"o":"m 281 893 l 281 130 l 657 130 l 657 0 l 132 0 l 132 893 l 281 893 m 310 996 l 238 1055 l 491 1309 l 591 1228 l 310 996 z "},"Ľ":{"ha":676,"x_min":132,"x_max":706,"o":"m 281 893 l 281 130 l 657 130 l 657 0 l 132 0 l 132 893 l 281 893 m 598 644 l 524 681 q 582 718 558 697 q 613 769 606 740 q 568 788 587 772 q 550 831 550 804 q 569 875 550 856 q 620 894 589 894 q 682 866 658 894 q 705 800 705 838 q 677 713 705 756 q 598 644 650 670 z "},"Ļ":{"ha":676,"x_min":132,"x_max":657,"o":"m 281 893 l 281 130 l 657 130 l 657 0 l 132 0 l 132 893 l 281 893 m 305 -310 l 233 -273 q 294 -235 269 -256 q 329 -185 319 -214 q 286 -165 303 -181 q 271 -123 269 -149 q 293 -78 272 -96 q 345 -60 315 -60 q 403 -86 382 -60 q 423 -153 425 -113 q 390 -240 421 -196 q 305 -310 360 -283 z "},"Ł":{"ha":676,"x_min":28,"x_max":657,"o":"m 51 437 l 28 564 l 396 626 l 418 499 l 51 437 m 281 893 l 281 130 l 657 130 l 657 0 l 132 0 l 132 893 l 281 893 z "},"Ń":{"ha":983,"x_min":130,"x_max":851,"o":"m 130 893 l 295 893 l 714 230 l 702 230 l 702 893 l 851 893 l 851 0 l 697 0 l 255 699 l 278 699 l 278 0 l 130 0 l 130 893 m 448 996 l 376 1055 l 628 1309 l 728 1228 l 448 996 z "},"Ň":{"ha":983,"x_min":130,"x_max":851,"o":"m 130 893 l 295 893 l 714 230 l 702 230 l 702 893 l 851 893 l 851 0 l 697 0 l 255 699 l 278 699 l 278 0 l 130 0 l 130 893 m 496 995 l 256 1208 l 344 1277 l 522 1095 l 470 1095 l 649 1277 l 737 1208 l 496 995 z "},"Ņ":{"ha":983,"x_min":130,"x_max":851,"o":"m 130 893 l 295 893 l 714 230 l 702 230 l 702 893 l 851 893 l 851 0 l 697 0 l 255 699 l 278 699 l 278 0 l 130 0 l 130 893 m 458 -310 l 387 -273 q 448 -235 422 -256 q 483 -185 473 -214 q 439 -165 456 -181 q 424 -123 422 -149 q 447 -78 426 -96 q 499 -60 468 -60 q 557 -86 535 -60 q 576 -153 578 -113 q 544 -240 574 -196 q 458 -310 513 -283 z "},"Ŋ":{"ha":983,"x_min":130,"x_max":851,"o":"m 628 -347 q 529 -335 575 -347 q 435 -301 483 -323 l 440 -173 q 516 -205 476 -192 q 594 -217 555 -217 q 677 -186 646 -217 q 708 -82 709 -154 l 703 404 l 851 404 l 851 -85 q 791 -286 851 -226 q 628 -347 732 -347 m 130 893 l 295 893 l 714 230 l 702 230 l 702 893 l 851 893 l 851 0 l 801 -160 l 255 699 l 278 699 l 278 0 l 130 0 l 130 893 z "},"Ő":{"ha":934,"x_min":67,"x_max":867,"o":"m 467 -19 q 260 33 350 -19 q 118 189 169 85 q 67 447 67 292 q 118 706 67 603 q 260 860 169 809 q 467 910 350 910 q 675 859 584 910 q 816 704 765 807 q 867 447 867 601 q 816 187 867 291 q 675 32 765 83 q 467 -19 584 -19 m 467 117 q 647 202 581 117 q 714 448 714 287 q 647 691 714 605 q 467 777 581 777 q 288 691 355 777 q 221 447 221 604 q 288 201 221 286 q 467 117 355 117 m 588 988 l 513 1001 l 535 1234 l 642 1210 l 588 988 m 408 997 l 330 1008 l 339 1242 l 447 1225 l 408 997 z "},"Ō":{"ha":934,"x_min":67,"x_max":867,"o":"m 467 -19 q 260 33 350 -19 q 118 189 169 85 q 67 447 67 292 q 118 706 67 603 q 260 860 169 809 q 467 910 350 910 q 675 859 584 910 q 816 704 765 807 q 867 447 867 601 q 816 187 867 291 q 675 32 765 83 q 467 -19 584 -19 m 467 117 q 647 202 581 117 q 714 448 714 287 q 647 691 714 605 q 467 777 581 777 q 288 691 355 777 q 221 447 221 604 q 288 201 221 286 q 467 117 355 117 m 237 1155 l 704 1155 l 704 1033 l 237 1033 l 237 1155 z "},"Ø":{"ha":934,"x_min":48,"x_max":871,"o":"m 48 0 l 744 894 l 871 894 l 172 0 l 48 0 m 467 -19 q 259 33 349 -19 q 118 189 169 85 q 67 447 67 292 q 118 706 67 603 q 259 860 169 809 q 467 910 349 910 q 674 859 584 910 q 816 704 765 807 q 867 447 867 601 q 816 187 867 291 q 674 32 765 83 q 467 -19 584 -19 m 467 117 q 647 202 580 117 q 713 448 713 287 q 647 691 713 605 q 467 777 580 777 q 287 691 354 777 q 220 447 220 604 q 287 201 220 286 q 467 117 354 117 z "},"Œ":{"ha":1237,"x_min":67,"x_max":1130,"o":"m 449 -19 q 251 34 338 -19 q 116 190 165 86 q 67 449 67 294 q 116 707 67 604 q 252 860 165 809 q 449 910 338 910 q 603 884 535 910 q 710 805 671 857 l 622 733 q 545 765 588 753 q 456 777 501 777 q 282 690 344 777 q 221 444 221 603 q 282 202 221 288 q 458 117 344 117 q 547 130 506 117 q 627 163 588 142 l 710 69 q 603 7 671 33 q 449 -19 536 -19 m 617 0 l 617 893 l 1130 893 l 1130 765 l 732 765 l 761 799 l 761 479 l 732 513 l 1105 513 l 1105 384 l 732 384 l 761 417 l 761 97 l 732 130 l 1130 130 l 1130 0 l 617 0 z "},"Þ":{"ha":796,"x_min":128,"x_max":751,"o":"m 128 0 l 128 893 l 278 893 l 278 714 l 244 747 l 436 747 q 669 673 586 747 q 751 465 751 599 q 669 258 751 333 q 436 184 586 184 l 244 184 l 278 217 l 278 0 l 128 0 m 278 281 l 244 314 l 436 314 q 558 356 517 314 q 599 465 599 398 q 558 576 599 533 q 436 619 517 619 l 244 619 l 278 653 l 278 281 z "},"Ŕ":{"ha":882,"x_min":132,"x_max":814,"o":"m 132 0 l 132 893 l 458 893 q 700 819 616 893 q 783 622 783 744 q 700 427 783 501 q 458 353 616 353 l 281 353 l 281 0 l 132 0 m 620 0 l 378 415 l 538 415 l 814 0 l 620 0 m 281 453 l 443 453 q 583 497 535 453 q 631 609 631 540 q 587 723 631 680 q 458 765 543 765 l 281 765 l 281 453 m 398 996 l 326 1055 l 578 1309 l 678 1228 l 398 996 z "},"Ř":{"ha":882,"x_min":132,"x_max":814,"o":"m 132 0 l 132 893 l 458 893 q 700 819 616 893 q 783 622 783 744 q 700 427 783 501 q 458 353 616 353 l 281 353 l 281 0 l 132 0 m 620 0 l 378 415 l 538 415 l 814 0 l 620 0 m 281 453 l 443 453 q 583 497 535 453 q 631 609 631 540 q 587 723 631 680 q 458 765 543 765 l 281 765 l 281 453 m 445 995 l 206 1208 l 294 1277 l 472 1095 l 419 1095 l 598 1277 l 686 1208 l 445 995 z "},"Ŗ":{"ha":882,"x_min":132,"x_max":814,"o":"m 132 0 l 132 893 l 458 893 q 700 819 616 893 q 783 622 783 744 q 700 427 783 501 q 458 353 616 353 l 281 353 l 281 0 l 132 0 m 620 0 l 378 415 l 538 415 l 814 0 l 620 0 m 281 453 l 443 453 q 583 497 535 453 q 631 609 631 540 q 587 723 631 680 q 458 765 543 765 l 281 765 l 281 453 m 408 -310 l 336 -273 q 397 -235 372 -256 q 432 -185 422 -214 q 389 -165 406 -181 q 374 -123 372 -149 q 396 -78 375 -96 q 448 -60 417 -60 q 506 -86 485 -60 q 526 -153 528 -113 q 493 -240 524 -196 q 408 -310 463 -283 z "},"Ś":{"ha":873,"x_min":92,"x_max":781,"o":"m 437 -19 q 267 14 344 -19 q 142 111 190 46 q 92 276 94 177 l 238 276 q 265 186 238 222 q 336 134 292 151 q 435 117 381 117 q 530 133 489 117 q 595 175 572 148 q 618 238 618 202 q 589 314 618 285 q 497 363 560 342 l 326 429 q 165 523 221 469 q 110 669 110 576 q 194 843 110 776 q 431 910 278 910 q 658 842 577 910 q 749 655 738 774 l 603 655 q 552 743 594 710 q 431 776 511 776 q 314 744 356 776 q 272 665 272 713 q 299 601 272 625 q 382 557 326 578 l 574 485 q 727 389 673 448 q 781 242 781 331 q 741 105 781 164 q 624 14 701 47 q 437 -19 547 -19 m 393 996 l 321 1055 l 574 1309 l 674 1228 l 393 996 z "},"Š":{"ha":873,"x_min":92,"x_max":781,"o":"m 437 -19 q 267 14 344 -19 q 142 111 190 46 q 92 276 94 177 l 238 276 q 265 186 238 222 q 336 134 292 151 q 435 117 381 117 q 530 133 489 117 q 595 175 572 148 q 618 238 618 202 q 589 314 618 285 q 497 363 560 342 l 326 429 q 165 523 221 469 q 110 669 110 576 q 194 843 110 776 q 431 910 278 910 q 658 842 577 910 q 749 655 738 774 l 603 655 q 552 743 594 710 q 431 776 511 776 q 314 744 356 776 q 272 665 272 713 q 299 601 272 625 q 382 557 326 578 l 574 485 q 727 389 673 448 q 781 242 781 331 q 741 105 781 164 q 624 14 701 47 q 437 -19 547 -19 m 440 995 l 201 1208 l 289 1277 l 467 1095 l 415 1095 l 593 1277 l 681 1208 l 440 995 z "},"Ş":{"ha":873,"x_min":92,"x_max":781,"o":"m 437 -19 q 267 14 344 -19 q 142 111 190 46 q 92 276 94 177 l 238 276 q 265 186 238 222 q 336 134 292 151 q 435 117 381 117 q 530 133 489 117 q 595 175 572 148 q 618 238 618 202 q 589 314 618 285 q 497 363 560 342 l 326 429 q 165 523 221 469 q 110 669 110 576 q 194 843 110 776 q 431 910 278 910 q 658 842 577 910 q 749 655 738 774 l 603 655 q 552 743 594 710 q 431 776 511 776 q 314 744 356 776 q 272 665 272 713 q 299 601 272 625 q 382 557 326 578 l 574 485 q 727 389 673 448 q 781 242 781 331 q 741 105 781 164 q 624 14 701 47 q 437 -19 547 -19 m 301 -253 l 324 -199 q 409 -225 372 -222 q 470 -216 447 -228 q 494 -181 492 -203 q 480 -144 497 -160 q 433 -116 463 -128 q 367 -96 404 -104 l 419 51 l 489 42 l 440 -92 l 418 -51 q 526 -83 484 -62 q 586 -131 567 -103 q 603 -189 606 -158 q 569 -253 601 -229 q 491 -286 538 -278 q 394 -286 444 -294 q 301 -253 343 -278 z "},"Ș":{"ha":873,"x_min":92,"x_max":781,"o":"m 437 -19 q 267 14 344 -19 q 142 111 190 46 q 92 276 94 177 l 238 276 q 265 186 238 222 q 336 134 292 151 q 435 117 381 117 q 530 133 489 117 q 595 175 572 148 q 618 238 618 202 q 589 314 618 285 q 497 363 560 342 l 326 429 q 165 523 221 469 q 110 669 110 576 q 194 843 110 776 q 431 910 278 910 q 658 842 577 910 q 749 655 738 774 l 603 655 q 552 743 594 710 q 431 776 511 776 q 314 744 356 776 q 272 665 272 713 q 299 601 272 625 q 382 557 326 578 l 574 485 q 727 389 673 448 q 781 242 781 331 q 741 105 781 164 q 624 14 701 47 q 437 -19 547 -19 m 408 -310 l 336 -273 q 397 -235 372 -256 q 432 -185 422 -214 q 389 -165 406 -181 q 374 -123 372 -149 q 396 -78 375 -96 q 448 -60 417 -60 q 506 -86 485 -60 q 526 -153 528 -113 q 493 -240 524 -196 q 408 -310 463 -283 z "},"ẞ":{"ha":931,"x_min":131,"x_max":881,"o":"m 620 500 q 751 470 692 500 q 845 385 810 441 q 881 248 881 328 q 841 101 881 160 q 739 11 802 42 q 604 -19 676 -19 q 522 -13 556 -19 q 438 11 488 -7 l 438 130 q 517 106 483 115 q 588 97 550 97 q 663 116 632 97 q 711 166 694 135 q 727 233 727 197 q 713 309 727 273 q 658 367 699 344 q 540 390 618 390 l 460 390 l 460 476 l 628 765 l 279 765 l 279 0 l 131 0 l 131 893 l 788 893 l 788 778 l 620 500 z "},"Ŧ":{"ha":726,"x_min":8,"x_max":719,"o":"m 117 365 l 117 491 l 608 491 l 608 365 l 117 365 m 8 765 l 8 893 l 719 893 l 719 765 l 404 765 l 438 799 l 438 0 l 289 0 l 289 799 l 322 765 l 8 765 z "},"Ť":{"ha":726,"x_min":8,"x_max":719,"o":"m 8 765 l 8 893 l 719 893 l 719 765 l 404 765 l 438 799 l 438 0 l 289 0 l 289 799 l 322 765 l 8 765 m 367 995 l 128 1208 l 216 1277 l 394 1095 l 342 1095 l 520 1277 l 608 1208 l 367 995 z "},"Ţ":{"ha":726,"x_min":8,"x_max":719,"o":"m 8 765 l 8 893 l 719 893 l 719 765 l 404 765 l 438 799 l 438 0 l 289 0 l 289 799 l 322 765 l 8 765 m 189 -251 l 211 -197 q 297 -223 259 -220 q 357 -214 335 -226 q 382 -178 380 -201 q 367 -142 384 -158 q 321 -114 350 -126 q 254 -94 292 -102 l 307 53 l 376 44 l 328 -90 l 306 -49 q 413 -81 372 -60 q 474 -128 455 -101 q 491 -187 493 -156 q 457 -251 488 -227 q 378 -284 425 -276 q 281 -284 332 -292 q 189 -251 231 -276 z "},"Ț":{"ha":726,"x_min":8,"x_max":719,"o":"m 8 765 l 8 893 l 719 893 l 719 765 l 404 765 l 438 799 l 438 0 l 289 0 l 289 799 l 322 765 l 8 765 m 295 -308 l 224 -271 q 284 -233 259 -253 q 319 -183 310 -212 q 276 -163 293 -179 q 261 -121 259 -147 q 284 -76 263 -94 q 335 -58 305 -58 q 394 -84 372 -58 q 413 -151 415 -111 q 381 -237 411 -194 q 295 -308 350 -281 z "},"Ŭ":{"ha":944,"x_min":117,"x_max":828,"o":"m 117 893 l 265 893 l 265 333 q 323 168 265 219 q 473 117 381 117 q 622 168 565 117 q 680 333 680 219 l 680 893 l 828 893 l 828 333 q 786 142 828 221 q 663 22 743 63 q 473 -19 583 -19 q 282 22 362 -19 q 160 142 203 63 q 117 333 117 221 l 117 893 m 472 1026 q 317 1082 374 1026 q 260 1232 260 1137 l 378 1232 q 403 1152 378 1179 q 472 1124 428 1124 q 541 1152 516 1124 q 566 1232 566 1179 l 685 1232 q 628 1082 685 1137 q 472 1026 571 1026 z "},"Ű":{"ha":944,"x_min":117,"x_max":828,"o":"m 117 893 l 265 893 l 265 333 q 323 168 265 219 q 473 117 381 117 q 622 168 565 117 q 680 333 680 219 l 680 893 l 828 893 l 828 333 q 786 142 828 221 q 663 22 743 63 q 473 -19 583 -19 q 282 22 362 -19 q 160 142 203 63 q 117 333 117 221 l 117 893 m 590 988 l 514 1001 l 537 1234 l 643 1210 l 590 988 m 409 997 l 331 1008 l 340 1242 l 449 1225 l 409 997 z "},"Ū":{"ha":944,"x_min":117,"x_max":828,"o":"m 117 893 l 265 893 l 265 333 q 323 168 265 219 q 473 117 381 117 q 622 168 565 117 q 680 333 680 219 l 680 893 l 828 893 l 828 333 q 786 142 828 221 q 663 22 743 63 q 473 -19 583 -19 q 282 22 362 -19 q 160 142 203 63 q 117 333 117 221 l 117 893 m 238 1155 l 706 1155 l 706 1033 l 238 1033 l 238 1155 z "},"Ų":{"ha":944,"x_min":117,"x_max":828,"o":"m 117 893 l 265 893 l 265 333 q 323 168 265 219 q 473 117 381 117 q 622 168 565 117 q 680 333 680 219 l 680 893 l 828 893 l 828 333 q 786 142 828 221 q 663 22 743 63 q 473 -19 583 -19 q 282 22 362 -19 q 160 142 203 63 q 117 333 117 221 l 117 893 m 697 -227 q 606 -264 653 -251 q 513 -276 558 -276 q 394 -244 441 -276 q 347 -151 347 -211 q 385 -51 347 -99 q 498 27 424 -3 l 608 0 q 492 -57 535 -26 q 449 -124 449 -87 q 473 -165 449 -153 q 526 -176 497 -176 q 588 -166 556 -176 q 662 -134 620 -156 l 697 -227 z "},"Ů":{"ha":944,"x_min":117,"x_max":828,"o":"m 117 893 l 265 893 l 265 333 q 323 168 265 219 q 473 117 381 117 q 622 168 565 117 q 680 333 680 219 l 680 893 l 828 893 l 828 333 q 786 142 828 221 q 663 22 743 63 q 473 -19 583 -19 q 282 22 362 -19 q 160 142 203 63 q 117 333 117 221 l 117 893 m 473 967 q 393 989 429 967 q 336 1046 358 1010 q 315 1126 315 1082 q 336 1205 315 1169 q 393 1262 358 1240 q 473 1283 429 1283 q 552 1262 516 1283 q 609 1205 588 1240 q 631 1126 631 1169 q 609 1046 631 1082 q 552 989 588 1010 q 473 967 516 967 m 473 1068 q 514 1085 497 1068 q 531 1126 531 1101 q 514 1167 531 1150 q 472 1183 497 1183 q 432 1167 449 1183 q 415 1125 415 1150 q 432 1085 415 1101 q 473 1068 449 1068 z "},"Ẃ":{"ha":1294,"x_min":15,"x_max":1278,"o":"m 15 893 l 182 893 l 402 131 l 363 131 l 583 825 l 684 825 l 909 141 l 874 141 l 1111 893 l 1278 893 l 969 0 l 813 0 l 629 549 l 647 549 l 461 0 l 305 0 l 15 893 m 601 1003 l 528 1062 l 781 1316 l 881 1235 l 601 1003 z "},"Ŵ":{"ha":1294,"x_min":15,"x_max":1278,"o":"m 15 893 l 182 893 l 402 131 l 363 131 l 583 825 l 684 825 l 909 141 l 874 141 l 1111 893 l 1278 893 l 969 0 l 813 0 l 629 549 l 647 549 l 461 0 l 305 0 l 15 893 m 492 990 l 403 1058 l 643 1272 l 884 1058 l 796 990 l 617 1156 l 669 1156 l 492 990 z "},"Ẅ":{"ha":1294,"x_min":15,"x_max":1278,"o":"m 15 893 l 182 893 l 402 131 l 363 131 l 583 825 l 684 825 l 909 141 l 874 141 l 1111 893 l 1278 893 l 969 0 l 813 0 l 629 549 l 647 549 l 461 0 l 305 0 l 15 893 m 772 1021 q 708 1045 735 1021 q 682 1107 682 1070 q 708 1169 682 1144 q 772 1194 735 1194 q 838 1169 812 1194 q 864 1107 864 1144 q 838 1045 864 1070 q 772 1021 812 1021 m 515 1021 q 450 1045 475 1021 q 424 1106 424 1070 q 450 1168 424 1143 q 515 1192 475 1192 q 581 1168 555 1192 q 607 1106 607 1143 q 581 1045 607 1070 q 515 1021 555 1021 z "},"Ẁ":{"ha":1294,"x_min":15,"x_max":1278,"o":"m 15 893 l 182 893 l 402 131 l 363 131 l 583 825 l 684 825 l 909 141 l 874 141 l 1111 893 l 1278 893 l 969 0 l 813 0 l 629 549 l 647 549 l 461 0 l 305 0 l 15 893 m 748 1006 l 467 1238 l 567 1319 l 820 1065 l 748 1006 z "},"Ý":{"ha":800,"x_min":10,"x_max":789,"o":"m 10 893 l 188 893 l 413 496 l 381 496 l 613 893 l 789 893 l 469 368 l 469 0 l 321 0 l 321 368 l 10 893 m 357 996 l 285 1055 l 538 1309 l 638 1228 l 357 996 z "},"Ŷ":{"ha":800,"x_min":10,"x_max":789,"o":"m 10 893 l 188 893 l 413 496 l 381 496 l 613 893 l 789 893 l 469 368 l 469 0 l 321 0 l 321 368 l 10 893 m 248 983 l 160 1051 l 399 1265 l 640 1051 l 552 983 l 374 1149 l 426 1149 l 248 983 z "},"Ÿ":{"ha":800,"x_min":10,"x_max":789,"o":"m 10 893 l 188 893 l 413 496 l 381 496 l 613 893 l 789 893 l 469 368 l 469 0 l 321 0 l 321 368 l 10 893 m 528 1014 q 465 1039 491 1014 q 438 1100 438 1063 q 465 1162 438 1137 q 528 1187 491 1187 q 594 1162 568 1187 q 620 1100 620 1137 q 594 1039 620 1063 q 528 1014 568 1014 m 272 1014 q 206 1039 231 1014 q 181 1099 181 1063 q 206 1161 181 1136 q 272 1185 231 1185 q 337 1161 311 1185 q 363 1099 363 1136 q 337 1039 363 1063 q 272 1014 311 1014 z "},"Ỳ":{"ha":800,"x_min":10,"x_max":789,"o":"m 10 893 l 188 893 l 413 496 l 381 496 l 613 893 l 789 893 l 469 368 l 469 0 l 321 0 l 321 368 l 10 893 m 504 999 l 224 1231 l 324 1312 l 576 1058 l 504 999 z "},"Ź":{"ha":859,"x_min":101,"x_max":772,"o":"m 101 0 l 101 129 l 628 810 l 628 756 l 101 758 l 101 893 l 772 893 l 772 765 l 273 118 l 267 138 l 772 136 l 772 0 l 101 0 m 406 996 l 334 1055 l 587 1309 l 687 1228 l 406 996 z "},"Ž":{"ha":859,"x_min":101,"x_max":772,"o":"m 101 0 l 101 129 l 628 810 l 628 756 l 101 758 l 101 893 l 772 893 l 772 765 l 273 118 l 267 138 l 772 136 l 772 0 l 101 0 m 453 995 l 214 1208 l 302 1277 l 480 1095 l 428 1095 l 606 1277 l 694 1208 l 453 995 z "},"Ż":{"ha":859,"x_min":101,"x_max":772,"o":"m 101 0 l 101 129 l 628 810 l 628 756 l 101 758 l 101 893 l 772 893 l 772 765 l 273 118 l 267 138 l 772 136 l 772 0 l 101 0 m 449 1022 q 377 1049 406 1022 q 349 1117 349 1076 q 377 1188 349 1159 q 449 1217 406 1217 q 523 1188 494 1217 q 553 1117 553 1160 q 523 1049 553 1076 q 449 1022 494 1022 z "},"ă":{"ha":799,"x_min":78,"x_max":686,"o":"m 556 0 l 538 159 l 538 433 q 506 545 538 510 q 404 581 475 581 q 333 569 363 581 q 285 534 302 557 q 268 476 268 510 l 105 476 q 141 599 105 552 q 245 668 178 646 q 404 690 312 690 q 552 662 488 690 q 651 577 615 635 q 686 428 686 519 l 686 0 l 556 0 m 334 -19 q 192 11 249 -19 q 107 90 135 41 q 78 194 78 138 q 112 302 78 259 q 207 366 146 345 q 349 388 267 388 q 452 379 403 388 q 551 355 502 370 l 551 267 q 465 288 512 281 q 377 296 418 296 q 277 273 317 296 q 237 194 237 249 q 269 124 237 153 q 370 95 301 95 q 459 118 422 95 q 517 176 497 142 q 538 245 538 211 l 573 245 q 545 114 573 174 q 465 18 518 54 q 334 -19 412 -19 m 399 805 q 244 860 301 805 q 187 1010 187 915 l 306 1010 q 331 930 306 958 q 399 903 356 903 q 468 930 443 903 q 493 1010 493 958 l 612 1010 q 555 860 612 915 q 399 805 498 805 z "},"ā":{"ha":799,"x_min":78,"x_max":686,"o":"m 556 0 l 538 159 l 538 433 q 506 545 538 510 q 404 581 475 581 q 333 569 363 581 q 285 534 302 557 q 268 476 268 510 l 105 476 q 141 599 105 552 q 245 668 178 646 q 404 690 312 690 q 552 662 488 690 q 651 577 615 635 q 686 428 686 519 l 686 0 l 556 0 m 334 -19 q 192 11 249 -19 q 107 90 135 41 q 78 194 78 138 q 112 302 78 259 q 207 366 146 345 q 349 388 267 388 q 452 379 403 388 q 551 355 502 370 l 551 267 q 465 288 512 281 q 377 296 418 296 q 277 273 317 296 q 237 194 237 249 q 269 124 237 153 q 370 95 301 95 q 459 118 422 95 q 517 176 497 142 q 538 245 538 211 l 573 245 q 545 114 573 174 q 465 18 518 54 q 334 -19 412 -19 m 166 933 l 633 933 l 633 811 l 166 811 l 166 933 z "},"ą":{"ha":799,"x_min":78,"x_max":775,"o":"m 556 0 l 538 159 l 538 433 q 506 545 538 510 q 404 581 475 581 q 333 569 363 581 q 285 534 302 557 q 268 476 268 510 l 105 476 q 141 599 105 552 q 245 668 178 646 q 404 690 312 690 q 552 662 488 690 q 651 577 615 635 q 686 428 686 519 l 686 0 l 556 0 m 334 -19 q 192 11 249 -19 q 107 90 135 41 q 78 194 78 138 q 112 302 78 259 q 207 366 146 345 q 349 388 267 388 q 452 379 403 388 q 551 355 502 370 l 551 267 q 465 288 512 281 q 377 296 418 296 q 277 273 317 296 q 237 194 237 249 q 269 124 237 153 q 370 95 301 95 q 459 118 422 95 q 517 176 497 142 q 538 245 538 211 l 573 245 q 545 114 573 174 q 465 18 518 54 q 334 -19 412 -19 m 775 -227 q 684 -264 731 -251 q 592 -276 637 -276 q 473 -244 519 -276 q 426 -151 426 -211 q 464 -51 426 -99 q 576 27 502 -3 l 686 0 q 570 -57 613 -26 q 528 -124 528 -87 q 551 -165 528 -153 q 604 -176 575 -176 q 667 -166 635 -176 q 740 -134 699 -156 l 775 -227 z "},"å":{"ha":799,"x_min":78,"x_max":686,"o":"m 556 0 l 538 159 l 538 433 q 506 545 538 510 q 404 581 475 581 q 333 569 363 581 q 285 534 302 557 q 268 476 268 510 l 105 476 q 141 599 105 552 q 245 668 178 646 q 404 690 312 690 q 552 662 488 690 q 651 577 615 635 q 686 428 686 519 l 686 0 l 556 0 m 334 -19 q 192 11 249 -19 q 107 90 135 41 q 78 194 78 138 q 112 302 78 259 q 207 366 146 345 q 349 388 267 388 q 452 379 403 388 q 551 355 502 370 l 551 267 q 465 288 512 281 q 377 296 418 296 q 277 273 317 296 q 237 194 237 249 q 269 124 237 153 q 370 95 301 95 q 459 118 422 95 q 517 176 497 142 q 538 245 538 211 l 573 245 q 545 114 573 174 q 465 18 518 54 q 334 -19 412 -19 m 400 746 q 320 767 356 746 q 263 825 285 789 q 242 904 242 860 q 263 983 242 947 q 320 1040 285 1019 q 400 1062 356 1062 q 479 1040 443 1062 q 536 983 515 1019 q 558 904 558 947 q 536 825 558 860 q 479 767 515 789 q 400 746 443 746 m 400 847 q 441 863 424 847 q 458 904 458 880 q 441 945 458 928 q 399 962 424 962 q 359 945 376 962 q 342 903 342 928 q 359 863 342 880 q 400 847 376 847 z "},"æ":{"ha":1192,"x_min":78,"x_max":1129,"o":"m 549 210 l 529 210 l 529 433 q 497 544 529 508 q 397 581 464 581 q 330 569 359 581 q 284 534 301 557 q 268 476 268 510 l 105 476 q 141 599 105 552 q 237 668 177 646 q 369 690 297 690 q 520 657 460 690 q 612 561 581 624 q 642 408 642 499 l 642 299 l 549 210 m 329 -19 q 193 10 249 -19 q 108 88 137 39 q 78 195 78 136 q 111 302 78 259 q 203 366 144 345 q 340 388 263 388 q 443 378 392 388 q 543 355 495 369 l 543 267 q 455 288 504 281 q 371 296 406 296 q 275 272 314 296 q 237 197 237 249 q 267 125 237 154 q 357 95 297 95 q 449 118 410 95 q 508 175 488 140 q 529 245 529 209 l 626 245 q 591 120 626 181 q 491 20 557 60 q 329 -19 426 -19 m 847 -19 q 684 28 756 -19 q 573 155 613 74 q 532 338 532 236 q 573 520 532 441 q 683 644 613 599 q 844 690 753 690 q 977 658 920 690 q 1068 571 1033 626 q 1116 449 1103 517 q 1119 308 1129 381 l 647 308 l 647 390 l 1015 390 l 983 369 q 979 440 985 405 q 958 505 974 476 q 914 553 942 535 q 842 571 885 571 q 751 544 788 571 q 695 471 715 517 q 676 369 676 425 l 676 309 q 694 202 676 249 q 748 128 712 156 q 840 101 785 101 q 926 125 891 101 q 971 200 962 149 l 1122 200 q 1074 85 1113 135 q 976 9 1035 36 q 847 -19 917 -19 z "},"ć":{"ha":730,"x_min":67,"x_max":660,"o":"m 382 -19 q 227 25 299 -19 q 111 149 155 69 q 67 336 67 228 q 111 529 67 450 q 227 649 155 608 q 382 690 299 690 q 494 669 445 690 q 578 615 543 649 q 633 539 613 581 q 660 453 653 497 l 510 448 q 464 526 497 496 q 381 556 431 556 q 301 533 338 556 q 241 461 264 510 q 217 336 217 413 q 239 216 217 265 q 298 141 260 167 q 381 116 335 116 q 478 148 447 116 q 510 235 510 181 l 660 235 q 628 107 660 165 q 533 15 595 49 q 382 -19 471 -19 m 338 774 l 265 833 l 518 1088 l 618 1006 l 338 774 z "},"č":{"ha":730,"x_min":67,"x_max":660,"o":"m 382 -19 q 227 25 299 -19 q 111 149 155 69 q 67 336 67 228 q 111 529 67 450 q 227 649 155 608 q 382 690 299 690 q 494 669 445 690 q 578 615 543 649 q 633 539 613 581 q 660 453 653 497 l 510 448 q 464 526 497 496 q 381 556 431 556 q 301 533 338 556 q 241 461 264 510 q 217 336 217 413 q 239 216 217 265 q 298 141 260 167 q 381 116 335 116 q 478 148 447 116 q 510 235 510 181 l 660 235 q 628 107 660 165 q 533 15 595 49 q 382 -19 471 -19 m 385 774 l 146 986 l 234 1056 l 412 874 l 360 874 l 538 1056 l 626 986 l 385 774 z "},"ç":{"ha":730,"x_min":67,"x_max":660,"o":"m 382 -19 q 227 25 299 -19 q 111 149 155 69 q 67 336 67 228 q 111 529 67 450 q 227 649 155 608 q 382 690 299 690 q 494 669 445 690 q 578 615 543 649 q 633 539 613 581 q 660 453 653 497 l 510 448 q 464 526 497 496 q 381 556 431 556 q 301 533 338 556 q 241 461 264 510 q 217 336 217 413 q 239 216 217 265 q 298 141 260 167 q 381 116 335 116 q 478 148 447 116 q 510 235 510 181 l 660 235 q 628 107 660 165 q 533 15 595 49 q 382 -19 471 -19 m 241 -251 l 263 -197 q 349 -224 311 -221 q 409 -215 387 -227 q 434 -179 432 -202 q 419 -142 436 -158 q 373 -115 402 -126 q 306 -94 344 -103 l 359 52 l 428 43 l 380 -91 l 358 -50 q 465 -82 424 -61 q 526 -129 507 -102 q 543 -187 545 -156 q 509 -252 540 -228 q 431 -285 477 -276 q 333 -285 384 -293 q 241 -251 283 -276 z "},"ċ":{"ha":730,"x_min":67,"x_max":660,"o":"m 382 -19 q 227 25 299 -19 q 111 149 155 69 q 67 336 67 228 q 111 529 67 450 q 227 649 155 608 q 382 690 299 690 q 494 669 445 690 q 578 615 543 649 q 633 539 613 581 q 660 453 653 497 l 510 448 q 464 526 497 496 q 381 556 431 556 q 301 533 338 556 q 241 461 264 510 q 217 336 217 413 q 239 216 217 265 q 298 141 260 167 q 381 116 335 116 q 478 148 447 116 q 510 235 510 181 l 660 235 q 628 107 660 165 q 533 15 595 49 q 382 -19 471 -19 m 381 800 q 309 827 338 800 q 281 896 281 855 q 309 966 281 938 q 381 995 338 995 q 455 967 426 995 q 485 896 485 938 q 455 827 485 855 q 381 800 426 800 z "},"ď":{"ha":844,"x_min":74,"x_max":935,"o":"m 378 -19 q 225 26 294 -19 q 115 150 156 70 q 74 339 74 231 q 114 525 74 446 q 220 647 153 603 q 368 690 287 690 q 497 654 442 690 q 582 549 552 618 q 611 380 611 480 l 563 380 q 540 476 563 436 q 480 536 517 515 q 400 556 443 556 q 310 530 350 556 q 247 454 270 503 q 224 339 224 405 q 247 221 224 271 q 310 143 270 171 q 399 116 350 116 q 477 138 440 116 q 539 200 515 160 q 563 294 563 240 l 611 294 q 580 121 611 191 q 495 16 548 51 q 378 -19 442 -19 m 590 0 l 563 164 l 563 951 l 712 951 l 712 0 l 590 0 m 828 715 l 754 752 q 812 790 788 769 q 843 840 835 811 q 798 860 817 844 q 780 902 780 876 q 799 947 780 928 q 850 965 819 965 q 911 938 888 965 q 935 872 935 910 q 907 784 935 827 q 828 715 880 742 z "},"đ":{"ha":844,"x_min":74,"x_max":812,"o":"m 378 -19 q 225 26 294 -19 q 115 150 156 70 q 74 339 74 231 q 114 525 74 446 q 220 647 153 603 q 368 690 287 690 q 497 654 442 690 q 582 549 552 618 q 611 380 611 480 l 563 380 q 540 476 563 436 q 480 536 517 515 q 400 556 443 556 q 310 530 350 556 q 247 454 270 503 q 224 339 224 405 q 247 221 224 271 q 310 143 270 171 q 399 116 350 116 q 477 138 440 116 q 539 200 515 160 q 563 294 563 240 l 611 294 q 580 121 611 191 q 495 16 548 51 q 378 -19 442 -19 m 590 0 l 563 164 l 563 951 l 712 951 l 712 0 l 590 0 m 390 758 l 390 860 l 812 860 l 812 758 l 390 758 z "},"ð":{"ha":785,"x_min":74,"x_max":722,"o":"m 381 -19 q 228 26 298 -19 q 116 151 158 70 q 74 340 74 231 q 114 524 74 446 q 220 646 153 603 q 364 690 286 690 q 503 646 444 690 q 594 528 562 603 q 627 359 627 453 l 578 359 q 551 470 578 426 q 483 535 524 514 q 399 556 442 556 q 310 530 349 556 q 247 453 270 503 q 224 338 224 404 q 247 221 224 271 q 310 143 270 171 q 401 116 350 116 q 494 147 456 116 q 553 229 532 177 q 577 344 574 281 q 568 551 581 453 q 518 738 554 649 q 420 906 483 826 q 264 1058 358 986 l 387 1143 q 536 982 473 1067 q 640 804 599 896 q 702 620 681 713 q 722 440 722 528 q 694 245 722 330 q 619 101 667 160 q 510 12 572 42 q 381 -19 449 -19 m 296 773 l 253 865 l 676 1074 l 719 983 l 296 773 z "},"ě":{"ha":730,"x_min":67,"x_max":667,"o":"m 378 -19 q 221 26 292 -19 q 109 150 151 70 q 67 335 67 230 q 108 526 67 447 q 220 647 150 605 q 378 690 291 690 q 515 658 458 690 q 607 572 572 626 q 654 449 642 517 q 657 308 667 381 l 185 308 l 185 390 l 553 390 l 522 369 q 518 440 524 405 q 497 505 513 476 q 453 553 481 535 q 381 571 424 571 q 289 544 326 571 q 233 471 252 517 q 215 369 215 425 l 215 309 q 233 202 215 249 q 287 128 251 156 q 378 101 323 101 q 466 126 431 101 q 510 200 501 151 l 660 200 q 612 85 650 135 q 514 9 574 36 q 378 -19 454 -19 m 369 774 l 130 986 l 218 1056 l 396 874 l 344 874 l 522 1056 l 610 986 l 369 774 z "},"ė":{"ha":730,"x_min":67,"x_max":667,"o":"m 378 -19 q 221 26 292 -19 q 109 150 151 70 q 67 335 67 230 q 108 526 67 447 q 220 647 150 605 q 378 690 291 690 q 515 658 458 690 q 607 572 572 626 q 654 449 642 517 q 657 308 667 381 l 185 308 l 185 390 l 553 390 l 522 369 q 518 440 524 405 q 497 505 513 476 q 453 553 481 535 q 381 571 424 571 q 289 544 326 571 q 233 471 252 517 q 215 369 215 425 l 215 309 q 233 202 215 249 q 287 128 251 156 q 378 101 323 101 q 466 126 431 101 q 510 200 501 151 l 660 200 q 612 85 650 135 q 514 9 574 36 q 378 -19 454 -19 m 365 800 q 293 827 322 800 q 265 896 265 855 q 293 966 265 938 q 365 995 322 995 q 439 967 410 995 q 469 896 469 938 q 439 827 469 855 q 365 800 410 800 z "},"ē":{"ha":730,"x_min":67,"x_max":667,"o":"m 378 -19 q 221 26 292 -19 q 109 150 151 70 q 67 335 67 230 q 108 526 67 447 q 220 647 150 605 q 378 690 291 690 q 515 658 458 690 q 607 572 572 626 q 654 449 642 517 q 657 308 667 381 l 185 308 l 185 390 l 553 390 l 522 369 q 518 440 524 405 q 497 505 513 476 q 453 553 481 535 q 381 571 424 571 q 289 544 326 571 q 233 471 252 517 q 215 369 215 425 l 215 309 q 233 202 215 249 q 287 128 251 156 q 378 101 323 101 q 466 126 431 101 q 510 200 501 151 l 660 200 q 612 85 650 135 q 514 9 574 36 q 378 -19 454 -19 m 132 933 l 599 933 l 599 811 l 132 811 l 132 933 z "},"ę":{"ha":730,"x_min":67,"x_max":667,"o":"m 647 -227 q 556 -264 603 -251 q 464 -277 508 -277 q 344 -244 391 -277 q 298 -153 298 -212 q 323 -75 298 -112 q 389 -6 347 -38 q 483 54 431 27 l 558 37 q 479 -19 515 8 q 421 -71 442 -45 q 399 -124 399 -97 q 423 -165 399 -153 q 476 -176 447 -176 q 539 -167 507 -176 q 613 -135 570 -157 l 647 -227 m 378 -19 q 221 26 292 -19 q 109 150 151 70 q 67 335 67 230 q 108 526 67 447 q 220 647 150 605 q 378 690 291 690 q 515 658 458 690 q 607 572 572 626 q 654 449 642 517 q 657 308 667 381 l 185 308 l 185 390 l 553 390 l 522 369 q 518 440 524 405 q 497 505 513 476 q 453 553 481 535 q 381 571 424 571 q 289 544 326 571 q 233 471 252 517 q 215 369 215 425 l 215 309 q 233 202 215 249 q 287 128 251 156 q 378 101 323 101 q 466 126 431 101 q 510 200 501 151 l 660 200 q 612 85 650 135 q 514 9 574 36 q 378 -19 454 -19 z "},"ğ":{"ha":801,"x_min":26,"x_max":776,"o":"m 385 -347 q 193 -316 273 -347 q 69 -234 113 -285 q 26 -123 26 -183 q 80 -10 26 -50 q 215 29 133 29 l 318 -13 q 210 -41 248 -13 q 172 -116 172 -68 q 228 -197 172 -166 q 385 -228 284 -228 q 514 -206 459 -228 q 598 -150 568 -185 q 628 -76 628 -115 q 609 -31 628 -49 q 553 -13 591 -13 l 318 -13 q 196 8 250 -13 q 111 66 142 30 q 80 146 80 102 q 103 218 80 188 q 167 265 127 249 q 256 281 207 281 l 292 231 q 252 223 271 231 q 220 198 233 215 q 208 158 208 182 q 232 110 208 129 q 318 92 257 92 l 553 92 q 716 52 657 92 q 776 -66 776 13 q 728 -201 776 -137 q 593 -306 681 -265 q 385 -347 506 -347 m 397 204 q 252 234 317 204 q 149 319 188 265 q 110 447 110 374 q 149 575 110 520 q 252 660 188 630 q 397 690 317 690 q 538 660 474 690 q 642 575 603 630 q 681 447 681 520 q 642 319 681 374 q 538 234 603 265 q 397 204 474 204 m 397 308 q 500 348 465 308 q 535 447 535 388 q 500 547 535 509 q 397 585 465 585 q 294 547 331 585 q 258 447 258 509 q 294 348 258 388 q 397 308 331 308 m 630 582 l 561 619 q 588 724 561 679 q 660 794 615 769 q 763 819 706 819 l 755 676 q 662 653 694 676 q 630 582 630 630 m 401 805 q 246 860 303 805 q 189 1010 189 915 l 308 1010 q 333 930 308 958 q 401 903 358 903 q 470 930 445 903 q 495 1010 495 958 l 614 1010 q 557 860 614 915 q 401 805 500 805 z "},"ģ":{"ha":801,"x_min":26,"x_max":776,"o":"m 385 -347 q 193 -316 273 -347 q 69 -234 113 -285 q 26 -123 26 -183 q 80 -10 26 -50 q 215 29 133 29 l 318 -13 q 210 -41 248 -13 q 172 -116 172 -68 q 228 -197 172 -166 q 385 -228 284 -228 q 514 -206 459 -228 q 598 -150 568 -185 q 628 -76 628 -115 q 609 -31 628 -49 q 553 -13 591 -13 l 318 -13 q 196 8 250 -13 q 111 66 142 30 q 80 146 80 102 q 103 218 80 188 q 167 265 127 249 q 256 281 207 281 l 292 231 q 252 223 271 231 q 220 198 233 215 q 208 158 208 182 q 232 110 208 129 q 318 92 257 92 l 553 92 q 716 52 657 92 q 776 -66 776 13 q 728 -201 776 -137 q 593 -306 681 -265 q 385 -347 506 -347 m 397 204 q 252 234 317 204 q 149 319 188 265 q 110 447 110 374 q 149 575 110 520 q 252 660 188 630 q 397 690 317 690 q 538 660 474 690 q 642 575 603 630 q 681 447 681 520 q 642 319 681 374 q 538 234 603 265 q 397 204 474 204 m 397 308 q 500 348 465 308 q 535 447 535 388 q 500 547 535 509 q 397 585 465 585 q 294 547 331 585 q 258 447 258 509 q 294 348 258 388 q 397 308 331 308 m 630 582 l 561 619 q 588 724 561 679 q 660 794 615 769 q 763 819 706 819 l 755 676 q 662 653 694 676 q 630 582 630 630 m 422 969 l 493 932 q 433 894 458 915 q 398 844 408 873 q 441 824 424 840 q 456 781 458 808 q 434 737 455 755 q 382 719 413 719 q 324 745 345 719 q 304 813 302 772 q 337 899 306 855 q 422 969 367 942 z "},"ġ":{"ha":801,"x_min":26,"x_max":776,"o":"m 385 -347 q 193 -316 273 -347 q 69 -234 113 -285 q 26 -123 26 -183 q 80 -10 26 -50 q 215 29 133 29 l 318 -13 q 210 -41 248 -13 q 172 -116 172 -68 q 228 -197 172 -166 q 385 -228 284 -228 q 514 -206 459 -228 q 598 -150 568 -185 q 628 -76 628 -115 q 609 -31 628 -49 q 553 -13 591 -13 l 318 -13 q 196 8 250 -13 q 111 66 142 30 q 80 146 80 102 q 103 218 80 188 q 167 265 127 249 q 256 281 207 281 l 292 231 q 252 223 271 231 q 220 198 233 215 q 208 158 208 182 q 232 110 208 129 q 318 92 257 92 l 553 92 q 716 52 657 92 q 776 -66 776 13 q 728 -201 776 -137 q 593 -306 681 -265 q 385 -347 506 -347 m 397 204 q 252 234 317 204 q 149 319 188 265 q 110 447 110 374 q 149 575 110 520 q 252 660 188 630 q 397 690 317 690 q 538 660 474 690 q 642 575 603 630 q 681 447 681 520 q 642 319 681 374 q 538 234 603 265 q 397 204 474 204 m 397 308 q 500 348 465 308 q 535 447 535 388 q 500 547 535 509 q 397 585 465 585 q 294 547 331 585 q 258 447 258 509 q 294 348 258 388 q 397 308 331 308 m 630 582 l 561 619 q 588 724 561 679 q 660 794 615 769 q 763 819 706 819 l 755 676 q 662 653 694 676 q 630 582 630 630 m 401 800 q 328 827 357 800 q 300 896 300 855 q 328 966 300 938 q 401 995 357 995 q 475 967 445 995 q 504 896 504 938 q 475 827 504 855 q 401 800 445 800 z "},"ħ":{"ha":858,"x_min":33,"x_max":746,"o":"m 597 0 l 597 393 q 559 515 597 474 q 456 556 520 556 q 365 528 404 556 q 303 443 325 499 q 281 305 281 387 l 230 305 q 262 517 230 432 q 354 646 294 603 q 494 690 413 690 q 632 653 576 690 q 717 549 688 616 q 746 393 746 483 l 746 0 l 597 0 m 132 0 l 132 951 l 281 951 l 281 0 l 132 0 m 33 758 l 33 860 l 460 860 l 460 758 l 33 758 z "},"ı":{"ha":444,"x_min":144,"x_max":293,"o":"m 144 0 l 144 674 l 293 674 l 293 0 l 144 0 z "},"ī":{"ha":444,"x_min":64,"x_max":372,"o":"m 144 0 l 144 674 l 293 674 l 293 0 l 144 0 m 64 933 l 372 933 l 372 811 l 64 811 l 64 933 z "},"į":{"ha":444,"x_min":31,"x_max":381,"o":"m 144 0 l 144 674 l 293 674 l 293 0 l 144 0 m 218 800 q 146 827 174 800 q 117 896 117 855 q 146 966 117 938 q 218 995 174 995 q 292 967 263 995 q 322 896 322 938 q 292 827 322 855 q 218 800 263 800 m 381 -227 q 290 -264 337 -251 q 197 -276 242 -276 q 78 -244 125 -276 q 31 -151 31 -211 q 69 -51 31 -99 q 182 27 108 -3 l 292 0 q 176 -57 219 -26 q 133 -124 133 -87 q 157 -165 133 -153 q 210 -176 181 -176 q 272 -166 240 -176 q 346 -134 304 -156 l 381 -227 z "},"ĳ":{"ha":901,"x_min":125,"x_max":768,"o":"m 219 803 q 150 827 175 803 q 125 892 125 851 q 150 956 125 933 q 219 980 175 980 q 287 956 262 980 q 312 892 312 933 q 287 827 312 851 q 219 803 262 803 m 144 0 l 144 674 l 293 674 l 293 0 l 144 0 m 674 803 q 606 827 631 803 q 581 892 581 851 q 606 956 581 933 q 674 980 631 980 q 742 956 717 980 q 767 892 767 933 q 742 827 767 851 q 674 803 717 803 m 526 -347 q 428 -335 474 -347 q 334 -301 382 -323 l 338 -173 q 414 -205 375 -192 q 492 -217 453 -217 q 573 -186 545 -217 q 601 -82 601 -154 l 601 674 l 749 674 l 749 -85 q 690 -286 749 -226 q 526 -347 630 -347 z "},"ȷ":{"ha":457,"x_min":-110,"x_max":306,"o":"m 83 -347 q -16 -335 31 -347 q -110 -301 -62 -323 l -106 -173 q -30 -205 -69 -192 q 48 -217 10 -217 q 130 -186 101 -217 q 158 -82 158 -154 l 158 674 l 306 674 l 306 -85 q 246 -286 306 -226 q 83 -347 186 -347 z "},"ķ":{"ha":811,"x_min":132,"x_max":782,"o":"m 132 0 l 132 951 l 281 951 l 281 0 l 132 0 m 260 408 l 563 671 l 765 671 l 260 253 l 260 408 m 600 0 l 295 426 l 438 459 l 782 0 l 600 0 m 372 -310 l 301 -273 q 361 -235 336 -256 q 397 -185 387 -214 q 353 -165 370 -181 q 338 -123 336 -149 q 361 -78 340 -96 q 413 -60 382 -60 q 471 -86 449 -60 q 490 -153 492 -113 q 458 -240 488 -196 q 372 -310 427 -283 z "},"ĺ":{"ha":413,"x_min":91,"x_max":444,"o":"m 132 0 l 132 951 l 281 951 l 281 0 l 132 0 m 163 1069 l 91 1128 l 344 1383 l 444 1301 l 163 1069 z "},"ľ":{"ha":413,"x_min":132,"x_max":503,"o":"m 132 0 l 132 951 l 281 951 l 281 0 l 132 0 m 397 715 l 323 752 q 381 790 357 769 q 412 840 404 811 q 367 860 385 844 q 349 902 349 876 q 368 947 349 928 q 419 965 388 965 q 480 938 457 965 q 503 872 503 910 q 476 784 503 827 q 397 715 449 742 z "},"ļ":{"ha":413,"x_min":102,"x_max":294,"o":"m 132 0 l 132 951 l 281 951 l 281 0 l 132 0 m 174 -310 l 102 -273 q 163 -235 138 -256 q 198 -185 188 -214 q 155 -165 172 -181 q 140 -123 138 -149 q 162 -78 141 -96 q 214 -60 183 -60 q 272 -86 251 -60 q 292 -153 294 -113 q 259 -240 290 -196 q 174 -310 228 -283 z "},"ł":{"ha":413,"x_min":24,"x_max":410,"o":"m 43 502 l 24 598 l 392 660 l 410 564 l 43 502 m 132 0 l 132 951 l 281 951 l 281 0 l 132 0 z "},"ń":{"ha":858,"x_min":132,"x_max":746,"o":"m 597 0 l 597 393 q 559 515 597 474 q 456 556 520 556 q 365 528 404 556 q 303 443 325 499 q 281 305 281 387 l 230 305 q 262 517 230 432 q 354 646 294 603 q 494 690 413 690 q 632 653 576 690 q 717 549 688 616 q 746 393 746 483 l 746 0 l 597 0 m 132 0 l 132 671 l 262 671 l 281 532 l 281 0 l 132 0 m 398 781 l 326 840 l 578 1094 l 678 1013 l 398 781 z "},"ň":{"ha":858,"x_min":132,"x_max":746,"o":"m 597 0 l 597 393 q 559 515 597 474 q 456 556 520 556 q 365 528 404 556 q 303 443 325 499 q 281 305 281 387 l 230 305 q 262 517 230 432 q 354 646 294 603 q 494 690 413 690 q 632 653 576 690 q 717 549 688 616 q 746 393 746 483 l 746 0 l 597 0 m 132 0 l 132 671 l 262 671 l 281 532 l 281 0 l 132 0 m 445 780 l 206 992 l 294 1062 l 472 880 l 419 880 l 598 1062 l 686 992 l 445 780 z "},"ņ":{"ha":858,"x_min":132,"x_max":746,"o":"m 597 0 l 597 393 q 559 515 597 474 q 456 556 520 556 q 365 528 404 556 q 303 443 325 499 q 281 305 281 387 l 230 305 q 262 517 230 432 q 354 646 294 603 q 494 690 413 690 q 632 653 576 690 q 717 549 688 616 q 746 393 746 483 l 746 0 l 597 0 m 132 0 l 132 671 l 262 671 l 281 532 l 281 0 l 132 0 m 396 -310 l 324 -273 q 385 -235 360 -256 q 420 -185 410 -214 q 377 -165 394 -181 q 362 -123 360 -149 q 384 -78 363 -96 q 436 -60 406 -60 q 494 -86 473 -60 q 514 -153 516 -113 q 481 -240 512 -196 q 396 -310 451 -283 z "},"ŋ":{"ha":880,"x_min":132,"x_max":747,"o":"m 523 -347 q 425 -335 471 -347 q 331 -301 379 -323 l 335 -173 q 411 -205 372 -192 q 489 -217 450 -217 q 570 -186 542 -217 q 598 -82 598 -154 l 598 357 l 747 357 l 747 -85 q 687 -286 747 -226 q 523 -347 627 -347 m 597 0 l 597 393 q 559 515 597 474 q 456 556 520 556 q 365 528 404 556 q 303 443 325 499 q 281 305 281 387 l 230 305 q 262 517 230 432 q 354 646 294 603 q 494 690 413 690 q 632 653 576 690 q 717 549 688 616 q 746 393 746 483 l 746 0 l 597 0 m 132 0 l 132 671 l 262 671 l 281 532 l 281 0 l 132 0 z "},"ő":{"ha":778,"x_min":67,"x_max":712,"o":"m 390 -19 q 226 21 299 -19 q 110 139 153 60 q 67 335 67 217 q 110 533 67 454 q 226 650 153 611 q 390 690 299 690 q 554 650 481 690 q 669 533 626 611 q 712 335 712 454 q 669 139 712 217 q 554 21 626 60 q 390 -19 481 -19 m 386 111 q 479 137 439 111 q 541 213 519 163 q 563 335 563 263 q 519 503 563 445 q 395 561 475 561 q 302 535 342 561 q 240 459 262 510 q 217 335 217 408 q 262 169 217 226 q 386 111 306 111 m 507 767 l 431 780 l 454 1013 l 560 989 l 507 767 m 326 776 l 249 786 l 258 1021 l 366 1003 l 326 776 z "},"ō":{"ha":778,"x_min":67,"x_max":712,"o":"m 390 -19 q 226 21 299 -19 q 110 139 153 60 q 67 335 67 217 q 110 533 67 454 q 226 650 153 611 q 390 690 299 690 q 554 650 481 690 q 669 533 626 611 q 712 335 712 454 q 669 139 712 217 q 554 21 626 60 q 390 -19 481 -19 m 386 111 q 479 137 439 111 q 541 213 519 163 q 563 335 563 263 q 519 503 563 445 q 395 561 475 561 q 302 535 342 561 q 240 459 262 510 q 217 335 217 408 q 262 169 217 226 q 386 111 306 111 m 156 933 l 624 933 l 624 811 l 156 811 l 156 933 z "},"ø":{"ha":778,"x_min":60,"x_max":734,"o":"m 60 0 l 617 672 l 734 672 l 175 0 l 60 0 m 390 -19 q 226 21 299 -19 q 110 139 153 60 q 67 335 67 217 q 110 533 67 454 q 226 650 153 611 q 390 690 299 690 q 554 650 481 690 q 669 533 626 611 q 712 335 712 454 q 669 139 712 217 q 554 21 626 60 q 390 -19 481 -19 m 386 111 q 479 137 439 111 q 541 213 519 163 q 563 335 563 263 q 519 503 563 445 q 395 561 475 561 q 302 535 342 561 q 240 459 262 510 q 217 335 217 408 q 262 169 217 226 q 386 111 306 111 z "},"œ":{"ha":1174,"x_min":67,"x_max":1111,"o":"m 375 -19 q 218 21 288 -19 q 108 139 149 60 q 67 335 67 217 q 108 533 67 454 q 218 650 149 611 q 375 690 288 690 q 531 650 462 690 q 641 533 600 611 q 681 335 681 454 q 641 139 681 217 q 531 21 600 60 q 375 -19 462 -19 m 371 111 q 459 137 422 111 q 518 213 497 163 q 539 335 539 263 q 497 503 539 445 q 380 561 456 561 q 290 535 328 561 q 231 459 252 510 q 210 335 210 408 q 253 169 210 226 q 371 111 295 111 m 836 -19 q 687 26 754 -19 q 580 150 619 70 q 540 335 540 230 q 580 526 540 447 q 686 647 619 605 q 836 690 753 690 q 966 658 912 690 q 1054 572 1021 626 q 1099 449 1088 517 q 1102 308 1111 381 l 653 308 l 653 390 l 1003 390 l 973 369 q 969 440 975 405 q 949 505 964 476 q 907 553 935 535 q 838 571 880 571 q 752 544 787 571 q 699 471 717 517 q 681 369 681 425 l 681 309 q 698 202 681 249 q 749 128 715 156 q 836 101 784 101 q 919 126 886 101 q 962 200 953 151 l 1105 200 q 1059 85 1095 135 q 966 9 1023 36 q 836 -19 909 -19 z "},"þ":{"ha":833,"x_min":132,"x_max":770,"o":"m 460 -19 q 333 14 386 -19 q 253 110 281 46 q 225 272 225 175 l 281 272 q 303 188 281 222 q 361 134 325 153 q 439 116 398 116 q 524 140 483 116 q 593 214 566 165 q 620 336 620 263 q 597 454 620 405 q 533 530 573 503 q 442 556 492 556 q 362 536 399 556 q 303 479 325 517 q 281 386 281 441 l 225 386 q 258 557 225 490 q 345 657 290 624 q 465 690 400 690 q 615 648 545 690 q 727 526 684 606 q 770 336 770 447 q 727 145 770 224 q 612 24 683 66 q 460 -19 541 -19 m 132 -328 l 132 893 l 281 893 l 281 -328 l 132 -328 z "},"ŕ":{"ha":533,"x_min":132,"x_max":567,"o":"m 132 0 l 132 674 l 281 674 l 281 0 l 132 0 m 242 297 q 271 514 242 428 q 349 641 299 599 q 461 683 398 683 q 495 681 480 683 q 527 674 511 678 l 523 526 q 483 534 504 531 q 444 537 462 537 q 353 509 390 537 q 299 427 317 481 q 281 297 281 374 l 242 297 m 287 774 l 215 833 l 467 1088 l 567 1006 l 287 774 z "},"ř":{"ha":533,"x_min":95,"x_max":575,"o":"m 132 0 l 132 674 l 281 674 l 281 0 l 132 0 m 242 297 q 271 514 242 428 q 349 641 299 599 q 461 683 398 683 q 495 681 480 683 q 527 674 511 678 l 523 526 q 483 534 504 531 q 444 537 462 537 q 353 509 390 537 q 299 427 317 481 q 281 297 281 374 l 242 297 m 334 774 l 94 986 l 183 1056 l 360 874 l 308 874 l 487 1056 l 575 986 l 334 774 z "},"ŗ":{"ha":533,"x_min":132,"x_max":527,"o":"m 132 0 l 132 674 l 281 674 l 281 0 l 132 0 m 242 297 q 271 514 242 428 q 349 641 299 599 q 461 683 398 683 q 495 681 480 683 q 527 674 511 678 l 523 526 q 483 534 504 531 q 444 537 462 537 q 353 509 390 537 q 299 427 317 481 q 281 297 281 374 l 242 297 m 315 -306 l 244 -269 q 305 -231 279 -252 q 340 -181 330 -210 q 296 -161 313 -178 q 281 -119 279 -145 q 304 -74 283 -92 q 356 -56 325 -56 q 414 -83 392 -56 q 433 -150 435 -110 q 401 -236 431 -192 q 315 -306 370 -280 z "},"ś":{"ha":732,"x_min":73,"x_max":659,"o":"m 380 -19 q 215 8 283 -19 q 110 85 147 35 q 73 203 74 135 l 211 203 q 254 125 214 150 q 363 99 294 99 q 431 111 401 99 q 477 142 460 122 q 494 186 494 162 q 472 235 494 217 q 399 268 449 253 l 257 317 q 133 392 176 345 q 90 503 90 438 q 166 638 90 587 q 367 690 242 690 q 565 635 495 690 q 636 497 634 580 l 495 497 q 460 553 491 533 q 367 574 428 574 q 280 550 311 574 q 248 495 248 526 q 340 415 248 442 l 492 360 q 615 292 572 333 q 659 186 659 250 q 624 86 659 133 q 526 10 589 40 q 380 -19 464 -19 m 323 774 l 251 833 l 503 1088 l 603 1006 l 323 774 z "},"š":{"ha":732,"x_min":73,"x_max":659,"o":"m 380 -19 q 215 8 283 -19 q 110 85 147 35 q 73 203 74 135 l 211 203 q 254 125 214 150 q 363 99 294 99 q 431 111 401 99 q 477 142 460 122 q 494 186 494 162 q 472 235 494 217 q 399 268 449 253 l 257 317 q 133 392 176 345 q 90 503 90 438 q 166 638 90 587 q 367 690 242 690 q 565 635 495 690 q 636 497 634 580 l 495 497 q 460 553 491 533 q 367 574 428 574 q 280 550 311 574 q 248 495 248 526 q 340 415 248 442 l 492 360 q 615 292 572 333 q 659 186 659 250 q 624 86 659 133 q 526 10 589 40 q 380 -19 464 -19 m 370 774 l 131 986 l 219 1056 l 397 874 l 344 874 l 523 1056 l 611 986 l 370 774 z "},"ş":{"ha":732,"x_min":73,"x_max":659,"o":"m 380 -19 q 215 8 283 -19 q 110 85 147 35 q 73 203 74 135 l 211 203 q 254 125 214 150 q 363 99 294 99 q 431 111 401 99 q 477 142 460 122 q 494 186 494 162 q 472 235 494 217 q 399 268 449 253 l 257 317 q 133 392 176 345 q 90 503 90 438 q 166 638 90 587 q 367 690 242 690 q 565 635 495 690 q 636 497 634 580 l 495 497 q 460 553 491 533 q 367 574 428 574 q 280 550 311 574 q 248 495 248 526 q 340 415 248 442 l 492 360 q 615 292 572 333 q 659 186 659 250 q 624 86 659 133 q 526 10 589 40 q 380 -19 464 -19 m 232 -252 l 254 -198 q 340 -225 302 -222 q 400 -215 378 -228 q 425 -180 423 -203 q 410 -143 427 -159 q 364 -115 393 -127 q 297 -95 335 -103 l 350 51 l 419 42 l 371 -92 l 349 -51 q 456 -82 415 -62 q 517 -130 498 -103 q 534 -188 536 -157 q 500 -253 531 -228 q 422 -285 468 -277 q 324 -285 375 -294 q 232 -252 274 -277 z "},"ș":{"ha":732,"x_min":73,"x_max":659,"o":"m 380 -19 q 215 8 283 -19 q 110 85 147 35 q 73 203 74 135 l 211 203 q 254 125 214 150 q 363 99 294 99 q 431 111 401 99 q 477 142 460 122 q 494 186 494 162 q 472 235 494 217 q 399 268 449 253 l 257 317 q 133 392 176 345 q 90 503 90 438 q 166 638 90 587 q 367 690 242 690 q 565 635 495 690 q 636 497 634 580 l 495 497 q 460 553 491 533 q 367 574 428 574 q 280 550 311 574 q 248 495 248 526 q 340 415 248 442 l 492 360 q 615 292 572 333 q 659 186 659 250 q 624 86 659 133 q 526 10 589 40 q 380 -19 464 -19 m 338 -309 l 266 -272 q 327 -234 301 -255 q 362 -184 352 -213 q 318 -164 335 -181 q 303 -122 301 -148 q 326 -77 305 -95 q 378 -59 347 -59 q 436 -86 415 -59 q 456 -153 458 -112 q 423 -239 453 -195 q 338 -309 392 -283 z "},"ß":{"ha":888,"x_min":132,"x_max":815,"o":"m 712 747 q 693 662 712 696 q 651 603 675 628 q 609 558 627 578 q 590 512 590 537 q 613 465 590 485 q 669 423 636 444 q 736 375 703 402 q 792 309 769 348 q 815 212 815 269 q 778 91 815 142 q 685 11 742 39 q 560 -17 627 -17 q 472 -7 521 -17 q 384 23 424 3 l 385 144 q 465 103 426 116 q 540 90 503 90 q 605 104 580 90 q 640 142 629 118 q 651 195 651 167 q 630 272 651 240 q 578 327 609 303 q 517 374 548 351 q 465 424 486 397 q 444 488 444 451 q 464 553 444 526 q 510 604 483 580 q 556 656 536 628 q 576 725 576 685 q 536 808 576 777 q 431 839 497 839 q 316 790 351 839 q 282 633 282 742 l 282 0 l 132 0 l 132 636 q 168 812 132 741 q 273 920 205 883 q 438 956 341 956 q 586 930 524 956 q 680 856 647 903 q 712 747 712 808 z "},"ŧ":{"ha":541,"x_min":45,"x_max":503,"o":"m 45 356 l 45 460 l 478 460 l 478 356 l 45 356 m 353 -19 q 248 3 295 -19 q 172 70 200 25 q 143 183 143 115 l 143 851 l 291 851 l 291 188 q 375 99 291 99 q 426 105 401 99 q 482 122 451 110 l 503 17 q 430 -8 466 2 q 353 -19 393 -19 m 45 572 l 45 671 l 482 671 l 482 572 l 45 572 z "},"ť":{"ha":541,"x_min":45,"x_max":544,"o":"m 353 -19 q 248 3 295 -19 q 172 70 200 25 q 143 183 143 115 l 143 851 l 291 851 l 291 188 q 375 99 291 99 q 426 105 401 99 q 482 122 451 110 l 503 17 q 430 -8 466 2 q 353 -19 393 -19 m 45 572 l 45 671 l 482 671 l 482 572 l 45 572 m 436 752 l 363 789 q 420 827 397 806 q 451 877 444 848 q 407 897 425 881 q 388 939 388 913 q 408 983 388 965 q 458 1002 427 1002 q 520 974 497 1002 q 543 908 543 947 q 516 821 543 864 q 436 752 488 778 z "},"ţ":{"ha":541,"x_min":45,"x_max":503,"o":"m 353 -19 q 248 3 295 -19 q 172 70 200 25 q 143 183 143 115 l 143 851 l 291 851 l 291 188 q 375 99 291 99 q 426 105 401 99 q 482 122 451 110 l 503 17 q 430 -8 466 2 q 353 -19 393 -19 m 45 572 l 45 671 l 482 671 l 482 572 l 45 572 m 170 -249 l 192 -195 q 278 -222 240 -219 q 339 -212 316 -225 q 363 -177 361 -200 q 348 -140 365 -156 q 302 -112 331 -124 q 235 -92 273 -101 l 288 54 l 358 45 l 309 -89 l 287 -48 q 394 -80 353 -59 q 455 -127 436 -100 q 472 -185 474 -154 q 438 -250 469 -226 q 360 -283 406 -274 q 263 -283 313 -291 q 170 -249 212 -274 z "},"ț":{"ha":541,"x_min":45,"x_max":503,"o":"m 353 -19 q 248 3 295 -19 q 172 70 200 25 q 143 183 143 115 l 143 851 l 291 851 l 291 188 q 375 99 291 99 q 426 105 401 99 q 482 122 451 110 l 503 17 q 430 -8 466 2 q 353 -19 393 -19 m 45 572 l 45 671 l 482 671 l 482 572 l 45 572 m 276 -306 l 205 -269 q 266 -231 240 -252 q 301 -181 291 -210 q 257 -161 274 -178 q 242 -119 240 -145 q 265 -74 244 -92 q 317 -56 286 -56 q 375 -83 353 -56 q 394 -150 397 -110 q 362 -236 392 -192 q 276 -306 331 -280 z "},"ŭ":{"ha":863,"x_min":117,"x_max":730,"o":"m 582 674 l 730 674 l 730 0 l 582 0 l 582 674 m 117 674 l 265 674 l 265 260 q 300 153 265 189 q 397 117 335 117 q 491 145 449 117 q 558 224 533 172 q 582 351 582 276 l 625 351 q 593 150 625 231 q 504 28 561 69 q 372 -12 447 -12 q 241 14 299 -12 q 150 97 183 40 q 117 245 117 153 l 117 674 m 443 805 q 288 860 344 805 q 231 1010 231 915 l 349 1010 q 374 930 349 958 q 443 903 399 903 q 512 930 487 903 q 537 1010 537 958 l 656 1010 q 599 860 656 915 q 443 805 542 805 z "},"ű":{"ha":863,"x_min":117,"x_max":730,"o":"m 582 674 l 730 674 l 730 0 l 582 0 l 582 674 m 117 674 l 265 674 l 265 260 q 300 153 265 189 q 397 117 335 117 q 491 145 449 117 q 558 224 533 172 q 582 351 582 276 l 625 351 q 593 150 625 231 q 504 28 561 69 q 372 -12 447 -12 q 241 14 299 -12 q 150 97 183 40 q 117 245 117 153 l 117 674 m 560 767 l 485 780 l 508 1013 l 614 989 l 560 767 m 380 776 l 302 786 l 311 1021 l 419 1003 l 380 776 z "},"ū":{"ha":863,"x_min":117,"x_max":730,"o":"m 582 674 l 730 674 l 730 0 l 582 0 l 582 674 m 117 674 l 265 674 l 265 260 q 300 153 265 189 q 397 117 335 117 q 491 145 449 117 q 558 224 533 172 q 582 351 582 276 l 625 351 q 593 150 625 231 q 504 28 561 69 q 372 -12 447 -12 q 241 14 299 -12 q 150 97 183 40 q 117 245 117 153 l 117 674 m 209 933 l 676 933 l 676 811 l 209 811 l 209 933 z "},"ų":{"ha":863,"x_min":117,"x_max":819,"o":"m 582 674 l 730 674 l 730 0 l 582 0 l 582 674 m 117 674 l 265 674 l 265 260 q 300 153 265 189 q 397 117 335 117 q 491 145 449 117 q 558 224 533 172 q 582 351 582 276 l 625 351 q 593 150 625 231 q 504 28 561 69 q 372 -12 447 -12 q 241 14 299 -12 q 150 97 183 40 q 117 245 117 153 l 117 674 m 819 -227 q 728 -264 775 -251 q 635 -276 681 -276 q 516 -244 563 -276 q 469 -151 469 -211 q 508 -51 469 -99 q 620 27 546 -3 l 730 0 q 614 -57 657 -26 q 572 -124 572 -87 q 595 -165 572 -153 q 648 -176 619 -176 q 710 -166 678 -176 q 784 -134 742 -156 l 819 -227 z "},"ů":{"ha":863,"x_min":117,"x_max":730,"o":"m 582 674 l 730 674 l 730 0 l 582 0 l 582 674 m 117 674 l 265 674 l 265 260 q 300 153 265 189 q 397 117 335 117 q 491 145 449 117 q 558 224 533 172 q 582 351 582 276 l 625 351 q 593 150 625 231 q 504 28 561 69 q 372 -12 447 -12 q 241 14 299 -12 q 150 97 183 40 q 117 245 117 153 l 117 674 m 444 746 q 364 767 400 746 q 307 825 328 789 q 285 904 285 860 q 307 983 285 947 q 364 1040 328 1019 q 444 1062 400 1062 q 523 1040 487 1062 q 580 983 558 1019 q 601 904 601 947 q 580 825 601 860 q 523 767 558 789 q 444 746 487 746 m 444 847 q 485 863 468 847 q 501 904 501 880 q 485 945 501 928 q 443 962 468 962 q 403 945 419 962 q 386 903 386 928 q 403 863 386 880 q 444 847 419 847 z "},"ẃ":{"ha":1040,"x_min":19,"x_max":1018,"o":"m 19 671 l 174 671 l 326 148 l 310 148 l 456 636 l 588 636 l 733 147 l 717 147 l 869 671 l 1018 671 l 797 0 l 651 0 l 507 459 l 530 459 l 388 0 l 242 0 l 19 671 m 476 774 l 404 833 l 657 1088 l 757 1006 l 476 774 z "},"ŵ":{"ha":1040,"x_min":19,"x_max":1018,"o":"m 19 671 l 174 671 l 326 148 l 310 148 l 456 636 l 588 636 l 733 147 l 717 147 l 869 671 l 1018 671 l 797 0 l 651 0 l 507 459 l 530 459 l 388 0 l 242 0 l 19 671 m 367 761 l 279 830 l 519 1044 l 760 830 l 672 761 l 493 927 l 545 927 l 367 761 z "},"ẅ":{"ha":1040,"x_min":19,"x_max":1018,"o":"m 19 671 l 174 671 l 326 148 l 310 148 l 456 636 l 588 636 l 733 147 l 717 147 l 869 671 l 1018 671 l 797 0 l 651 0 l 507 459 l 530 459 l 388 0 l 242 0 l 19 671 m 648 792 q 584 817 610 792 q 558 878 558 842 q 584 940 558 915 q 648 965 610 965 q 714 940 688 965 q 740 878 740 915 q 714 817 740 842 q 648 792 688 792 m 391 792 q 325 817 351 792 q 300 877 300 842 q 325 939 300 915 q 391 964 351 964 q 457 939 431 964 q 483 877 483 915 q 457 817 483 842 q 391 792 431 792 z "},"ẁ":{"ha":1040,"x_min":19,"x_max":1018,"o":"m 19 671 l 174 671 l 326 148 l 310 148 l 456 636 l 588 636 l 733 147 l 717 147 l 869 671 l 1018 671 l 797 0 l 651 0 l 507 459 l 530 459 l 388 0 l 242 0 l 19 671 m 624 777 l 343 1009 l 443 1090 l 696 836 l 624 777 z "},"ý":{"ha":685,"x_min":-2,"x_max":667,"o":"m 28 671 l 196 671 l 385 130 l 357 130 l 515 671 l 667 671 l 410 -125 q 317 -293 373 -240 q 178 -347 260 -347 q 87 -335 131 -347 q -2 -301 43 -324 l -2 -169 q 71 -206 35 -194 q 143 -217 106 -217 q 203 -197 178 -217 q 248 -143 229 -177 q 278 -66 266 -108 l 299 0 l 28 671 m 299 774 l 227 833 l 480 1088 l 580 1006 l 299 774 z "},"ŷ":{"ha":685,"x_min":-2,"x_max":667,"o":"m 28 671 l 196 671 l 385 130 l 357 130 l 515 671 l 667 671 l 410 -125 q 317 -293 373 -240 q 178 -347 260 -347 q 87 -335 131 -347 q -2 -301 43 -324 l -2 -169 q 71 -206 35 -194 q 143 -217 106 -217 q 203 -197 178 -217 q 248 -143 229 -177 q 278 -66 266 -108 l 299 0 l 28 671 m 190 761 l 102 830 l 342 1044 l 583 830 l 494 761 l 316 927 l 368 927 l 190 761 z "},"ÿ":{"ha":685,"x_min":-2,"x_max":667,"o":"m 28 671 l 196 671 l 385 130 l 357 130 l 515 671 l 667 671 l 410 -125 q 317 -293 373 -240 q 178 -347 260 -347 q 87 -335 131 -347 q -2 -301 43 -324 l -2 -169 q 71 -206 35 -194 q 143 -217 106 -217 q 203 -197 178 -217 q 248 -143 229 -177 q 278 -66 266 -108 l 299 0 l 28 671 m 471 792 q 407 817 433 792 q 381 878 381 842 q 407 940 381 915 q 471 965 433 965 q 536 940 510 965 q 563 878 563 915 q 536 817 563 842 q 471 792 510 792 m 214 792 q 148 817 174 792 q 123 877 123 842 q 148 939 123 915 q 214 964 174 964 q 280 939 253 964 q 306 877 306 915 q 280 817 306 842 q 214 792 253 792 z "},"ỳ":{"ha":685,"x_min":-2,"x_max":667,"o":"m 28 671 l 196 671 l 385 130 l 357 130 l 515 671 l 667 671 l 410 -125 q 317 -293 373 -240 q 178 -347 260 -347 q 87 -335 131 -347 q -2 -301 43 -324 l -2 -169 q 71 -206 35 -194 q 143 -217 106 -217 q 203 -197 178 -217 q 248 -143 229 -177 q 278 -66 266 -108 l 299 0 l 28 671 m 447 777 l 166 1009 l 266 1090 l 519 836 l 447 777 z "},"ź":{"ha":680,"x_min":78,"x_max":603,"o":"m 78 0 l 78 121 l 439 551 l 78 551 l 78 671 l 603 671 l 603 551 l 251 121 l 603 121 l 603 0 l 78 0 m 297 774 l 224 833 l 477 1088 l 577 1006 l 297 774 z "},"ž":{"ha":680,"x_min":78,"x_max":603,"o":"m 78 0 l 78 121 l 439 551 l 78 551 l 78 671 l 603 671 l 603 551 l 251 121 l 603 121 l 603 0 l 78 0 m 344 774 l 104 986 l 192 1056 l 370 874 l 318 874 l 497 1056 l 585 986 l 344 774 z "},"ż":{"ha":680,"x_min":78,"x_max":603,"o":"m 78 0 l 78 121 l 439 551 l 78 551 l 78 671 l 603 671 l 603 551 l 251 121 l 603 121 l 603 0 l 78 0 m 340 800 q 267 827 296 800 q 239 896 239 855 q 267 966 239 938 q 340 995 296 995 q 414 967 384 995 q 443 896 443 938 q 414 827 443 855 q 340 800 384 800 z "},"ﬁ":{"ha":946,"x_min":68,"x_max":813,"o":"m 170 0 l 170 758 q 198 875 170 830 q 272 941 226 919 q 372 962 317 962 q 438 957 403 962 q 505 945 472 953 l 476 830 q 439 841 458 837 q 401 844 419 844 q 363 837 381 844 q 332 810 344 829 q 320 756 320 791 l 320 0 l 170 0 m 68 572 l 68 671 l 447 671 l 447 572 l 68 572 m 719 803 q 651 827 676 803 q 626 892 626 851 q 651 956 626 933 q 719 980 676 980 q 788 956 763 980 q 813 892 813 933 q 788 827 813 851 q 719 803 763 803 m 645 0 l 645 674 l 794 674 l 794 0 l 645 0 z "},"ﬂ":{"ha":915,"x_min":68,"x_max":782,"o":"m 170 0 l 170 758 q 198 875 170 830 q 272 941 226 919 q 372 962 317 962 q 438 957 403 962 q 505 945 472 953 l 476 830 q 439 841 458 837 q 401 844 419 844 q 363 837 381 844 q 332 810 344 829 q 320 756 320 791 l 320 0 l 170 0 m 68 572 l 68 671 l 447 671 l 447 572 l 68 572 m 633 0 l 633 951 l 781 951 l 781 0 l 633 0 z "},"ª":{"ha":799,"x_min":78,"x_max":686,"o":"m 556 0 l 538 159 l 538 433 q 506 545 538 510 q 404 581 475 581 q 333 569 363 581 q 285 534 302 557 q 268 476 268 510 l 105 476 q 141 599 105 552 q 245 668 178 646 q 404 690 312 690 q 552 662 488 690 q 651 577 615 635 q 686 428 686 519 l 686 0 l 556 0 m 334 -19 q 192 11 249 -19 q 107 90 135 41 q 78 194 78 138 q 112 302 78 259 q 207 366 146 345 q 349 388 267 388 q 452 379 403 388 q 551 355 502 370 l 551 267 q 465 288 512 281 q 377 296 418 296 q 277 273 317 296 q 237 194 237 249 q 269 124 237 153 q 370 95 301 95 q 459 118 422 95 q 517 176 497 142 q 538 245 538 211 l 573 245 q 545 114 573 174 q 465 18 518 54 q 334 -19 412 -19 z "},"º":{"ha":778,"x_min":67,"x_max":712,"o":"m 390 -19 q 226 21 299 -19 q 110 139 153 60 q 67 335 67 217 q 110 533 67 454 q 226 650 153 611 q 390 690 299 690 q 554 650 481 690 q 669 533 626 611 q 712 335 712 454 q 669 139 712 217 q 554 21 626 60 q 390 -19 481 -19 m 386 111 q 479 137 439 111 q 541 213 519 163 q 563 335 563 263 q 519 503 563 445 q 395 561 475 561 q 302 535 342 561 q 240 459 262 510 q 217 335 217 408 q 262 169 217 226 q 386 111 306 111 z "},"Δ":{"ha":849,"x_min":32,"x_max":817,"o":"m 32 0 l 337 893 l 522 893 l 817 0 l 660 0 l 427 715 l 190 0 l 32 0 m 117 0 l 117 130 l 717 130 l 717 0 l 117 0 z "},"Ω":{"ha":934,"x_min":67,"x_max":867,"o":"m 397 28 q 277 55 336 28 q 170 134 218 81 q 95 264 123 186 q 67 447 67 342 q 118 706 67 603 q 260 860 169 809 q 467 910 350 910 q 675 859 584 910 q 816 704 765 807 q 867 447 867 601 q 839 262 867 341 q 764 132 811 183 q 657 54 716 80 q 535 28 598 28 l 535 99 q 618 141 577 99 q 686 261 659 183 q 714 448 714 340 q 647 691 714 605 q 467 777 581 777 q 288 691 355 777 q 221 447 221 604 q 248 261 221 339 q 316 141 276 183 q 397 99 357 99 l 397 28 m 67 -1 l 67 99 l 397 99 l 397 -1 l 67 -1 m 535 -1 l 535 99 l 866 99 l 866 -1 l 535 -1 z "},"μ":{"ha":863,"x_min":117,"x_max":730,"o":"m 582 674 l 730 674 l 730 0 l 582 0 l 582 124 q 495 22 549 56 q 372 -12 441 -12 q 265 10 310 -12 l 265 -278 l 117 -278 l 117 674 l 265 674 l 265 260 q 300 153 265 189 q 397 117 335 117 q 491 145 449 117 q 558 224 533 172 q 582 351 582 276 l 582 674 z "},"π":{"ha":868,"x_min":33,"x_max":845,"o":"m 760 -6 q 631 28 684 -6 q 549 125 577 62 q 521 278 521 189 l 521 672 l 669 672 l 669 278 q 707 163 669 198 q 799 127 744 127 l 760 -6 m 194 0 l 194 671 l 343 671 l 343 0 l 194 0 m 33 543 l 33 673 l 845 673 l 845 543 l 33 543 z "},"⁄":{"ha":391,"x_min":-196,"x_max":608,"o":"m -196 -14 l 487 942 l 608 942 l -77 -14 l -196 -14 z "},"½":{"ha":1349,"x_min":60,"x_max":1247,"o":"m 168 958 l 236 958 l 236 417 l 147 417 l 147 851 q 103 834 125 840 q 60 828 82 828 l 60 914 q 115 927 88 917 q 168 958 142 938 m 174 -14 l 856 942 l 977 942 l 292 -14 l 174 -14 m 844 0 l 844 89 q 876 195 844 157 q 968 256 908 233 l 1076 298 q 1132 335 1114 313 q 1150 392 1150 358 q 1126 448 1150 426 q 1058 470 1102 470 q 986 450 1014 470 q 953 390 958 429 l 854 390 q 882 478 856 442 q 954 531 909 513 q 1056 549 999 549 q 1153 528 1110 549 q 1222 472 1197 508 q 1247 388 1247 435 q 1213 285 1247 325 q 1112 219 1179 245 l 1001 176 q 950 145 967 163 q 934 101 934 128 l 934 82 l 1243 82 l 1243 0 l 844 0 z "},"¼":{"ha":1310,"x_min":60,"x_max":1249,"o":"m 168 958 l 236 958 l 236 417 l 147 417 l 147 851 q 103 834 125 840 q 60 828 82 828 l 60 914 q 115 927 88 917 q 168 958 142 938 m 174 -14 l 856 942 l 977 942 l 292 -14 l 174 -14 m 1069 544 l 1155 544 l 1155 199 l 1249 199 l 1249 122 l 1155 122 l 1155 0 l 1067 0 l 1067 122 l 792 122 l 792 190 l 1069 544 m 1070 410 l 899 190 l 1070 190 l 1070 410 z "},"¾":{"ha":1488,"x_min":65,"x_max":1449,"o":"m 285 398 q 178 418 228 398 q 97 479 128 439 q 65 577 65 519 l 159 577 q 196 506 161 531 q 285 480 231 480 q 367 505 338 480 q 397 567 397 530 q 369 626 397 604 q 281 648 342 648 l 213 648 l 213 718 l 268 718 q 349 740 319 718 q 378 799 378 762 q 353 855 378 832 q 280 877 328 877 q 211 861 241 877 q 171 805 181 845 l 78 805 q 142 922 87 885 q 276 958 197 958 q 418 917 363 958 q 474 808 474 875 q 451 737 474 767 q 384 691 428 706 q 464 642 433 675 q 494 560 494 610 q 436 443 494 489 q 285 398 379 398 m 373 -14 l 1056 942 l 1176 942 l 492 -14 l 373 -14 m 1269 544 l 1355 544 l 1355 199 l 1449 199 l 1449 122 l 1355 122 l 1355 0 l 1267 0 l 1267 122 l 992 122 l 992 190 l 1269 544 m 1270 410 l 1099 190 l 1270 190 l 1270 410 z "},"⅛":{"ha":1369,"x_min":60,"x_max":1279,"o":"m 168 958 l 236 958 l 236 417 l 147 417 l 147 851 q 103 834 125 840 q 60 828 82 828 l 60 914 q 115 927 88 917 q 168 958 142 938 m 174 -14 l 856 942 l 977 942 l 292 -14 l 174 -14 m 1054 -19 q 891 26 953 -19 q 830 138 830 70 q 875 228 830 196 q 988 261 919 261 q 1017 259 1003 261 q 1049 252 1031 256 l 1049 228 q 958 204 994 228 q 922 147 922 180 q 961 85 922 107 q 1054 63 999 63 q 1153 82 1120 63 q 1186 128 1186 100 q 1169 167 1186 151 q 1124 194 1153 183 l 972 253 q 916 282 944 263 q 867 329 887 301 q 848 396 848 357 q 902 502 848 462 q 1054 542 956 542 q 1159 522 1113 542 q 1232 467 1206 502 q 1259 388 1259 433 q 1222 305 1259 341 q 1115 269 1184 269 q 1088 272 1100 269 q 1058 278 1075 274 l 1058 305 q 1135 326 1103 305 q 1167 383 1167 348 q 1136 439 1167 417 q 1054 460 1104 460 q 973 441 1006 460 q 940 392 940 421 q 956 355 940 369 q 1001 329 972 341 l 1156 269 q 1247 217 1215 247 q 1279 133 1279 186 q 1220 24 1279 67 q 1054 -19 1161 -19 z "},"⅜":{"ha":1547,"x_min":65,"x_max":1478,"o":"m 285 398 q 178 418 228 398 q 97 479 128 439 q 65 577 65 519 l 159 577 q 196 506 161 531 q 285 480 231 480 q 367 505 338 480 q 397 567 397 530 q 369 626 397 604 q 281 648 342 648 l 213 648 l 213 718 l 268 718 q 349 740 319 718 q 378 799 378 762 q 353 855 378 832 q 280 877 328 877 q 211 861 241 877 q 171 805 181 845 l 78 805 q 142 922 87 885 q 276 958 197 958 q 418 917 363 958 q 474 808 474 875 q 451 737 474 767 q 384 691 428 706 q 464 642 433 675 q 494 560 494 610 q 436 443 494 489 q 285 398 379 398 m 373 -14 l 1056 942 l 1176 942 l 492 -14 l 373 -14 m 1254 -19 q 1091 26 1153 -19 q 1030 138 1030 70 q 1075 228 1030 196 q 1188 261 1119 261 q 1217 259 1203 261 q 1249 252 1231 256 l 1249 228 q 1158 204 1194 228 q 1122 147 1122 180 q 1161 85 1122 107 q 1254 63 1199 63 q 1353 82 1320 63 q 1386 128 1386 100 q 1369 167 1386 151 q 1324 194 1353 183 l 1172 253 q 1116 282 1144 263 q 1067 329 1087 301 q 1048 396 1048 357 q 1102 502 1048 462 q 1254 542 1156 542 q 1359 522 1313 542 q 1432 467 1406 502 q 1459 388 1459 433 q 1422 305 1459 341 q 1315 269 1384 269 q 1288 272 1300 269 q 1258 278 1275 274 l 1258 305 q 1335 326 1303 305 q 1367 383 1367 348 q 1336 439 1367 417 q 1254 460 1304 460 q 1173 441 1206 460 q 1140 392 1140 421 q 1156 355 1140 369 q 1201 329 1172 341 l 1356 269 q 1447 217 1415 247 q 1479 133 1479 186 q 1420 24 1479 67 q 1254 -19 1361 -19 z "},"⅝":{"ha":1510,"x_min":82,"x_max":1450,"o":"m 277 398 q 178 418 222 398 q 109 475 134 438 q 82 567 83 513 l 172 567 q 203 502 172 524 q 277 480 233 480 q 356 511 326 480 q 386 587 386 542 q 269 676 386 676 l 110 676 l 135 947 l 451 947 l 451 866 l 207 866 l 224 892 l 208 725 l 200 734 q 247 740 220 738 q 294 742 274 742 q 428 703 378 742 q 478 587 478 663 q 453 491 478 534 q 383 423 428 448 q 277 398 338 398 m 344 -14 l 1026 942 l 1147 942 l 463 -14 l 344 -14 m 1225 -19 q 1062 26 1124 -19 q 1001 138 1001 70 q 1045 228 1001 196 q 1158 261 1090 261 q 1188 259 1174 261 q 1220 252 1201 256 l 1220 228 q 1129 204 1165 228 q 1093 147 1093 180 q 1132 85 1093 107 q 1225 63 1170 63 q 1324 82 1291 63 q 1357 128 1357 100 q 1340 167 1357 151 q 1294 194 1324 183 l 1143 253 q 1086 282 1115 263 q 1038 329 1058 301 q 1019 396 1019 357 q 1073 502 1019 462 q 1225 542 1127 542 q 1330 522 1283 542 q 1403 467 1376 502 q 1430 388 1430 433 q 1392 305 1430 341 q 1285 269 1355 269 q 1258 272 1271 269 q 1229 278 1246 274 l 1229 305 q 1306 326 1274 305 q 1338 383 1338 348 q 1307 439 1338 417 q 1225 460 1275 460 q 1144 441 1177 460 q 1111 392 1111 421 q 1127 355 1111 369 q 1172 329 1143 341 l 1327 269 q 1418 217 1386 247 q 1450 133 1450 186 q 1391 24 1450 67 q 1225 -19 1332 -19 z "},"⅞":{"ha":1400,"x_min":33,"x_max":1343,"o":"m 53 417 l 303 868 l 33 868 l 33 955 l 408 955 l 408 869 l 174 417 l 53 417 m 237 -14 l 919 942 l 1040 942 l 356 -14 l 237 -14 m 1118 -19 q 955 26 1017 -19 q 894 138 894 70 q 939 228 894 196 q 1051 261 983 261 q 1081 259 1067 261 q 1113 252 1094 256 l 1113 228 q 1022 204 1058 228 q 986 147 986 180 q 1025 85 986 107 q 1118 63 1063 63 q 1217 82 1184 63 q 1250 128 1250 100 q 1233 167 1250 151 q 1188 194 1217 183 l 1036 253 q 980 282 1008 263 q 931 329 951 301 q 912 396 912 357 q 966 502 912 462 q 1118 542 1020 542 q 1223 522 1176 542 q 1296 467 1269 502 q 1323 388 1323 433 q 1285 305 1323 341 q 1178 269 1248 269 q 1151 272 1164 269 q 1122 278 1139 274 l 1122 305 q 1199 326 1167 305 q 1231 383 1231 348 q 1200 439 1231 417 q 1118 460 1168 460 q 1037 441 1070 460 q 1004 392 1004 421 q 1020 355 1004 369 q 1065 329 1036 341 l 1220 269 q 1311 217 1279 247 q 1343 133 1343 186 q 1284 24 1343 67 q 1118 -19 1225 -19 z "},"₀":{"ha":590,"x_min":67,"x_max":524,"o":"m 295 -19 q 130 53 193 -19 q 67 272 67 125 q 130 491 67 419 q 295 563 193 563 q 460 491 396 563 q 524 272 524 419 q 460 53 524 125 q 295 -19 396 -19 m 295 67 q 393 120 358 67 q 428 272 428 173 q 393 425 428 372 q 295 478 358 478 q 197 425 232 478 q 163 272 163 372 q 197 120 163 173 q 295 67 232 67 z "},"₁":{"ha":369,"x_min":60,"x_max":236,"o":"m 168 541 l 236 541 l 236 0 l 147 0 l 147 434 q 103 417 125 424 q 60 411 82 411 l 60 497 q 115 511 88 501 q 168 541 142 521 z "},"₂":{"ha":565,"x_min":85,"x_max":488,"o":"m 85 0 l 85 89 q 116 195 85 157 q 208 256 148 233 l 317 298 q 373 335 355 313 q 391 391 391 358 q 367 448 391 426 q 298 470 342 470 q 226 450 255 470 q 194 390 198 429 l 94 390 q 123 478 97 442 q 194 531 149 513 q 297 549 240 549 q 394 528 351 549 q 462 472 437 508 q 488 387 488 435 q 453 285 488 325 q 352 219 419 245 l 242 176 q 191 145 207 163 q 174 101 174 128 l 174 82 l 483 82 l 483 0 l 85 0 z "},"₃":{"ha":569,"x_min":65,"x_max":494,"o":"m 285 -19 q 178 2 228 -19 q 97 62 128 22 q 65 160 65 101 l 159 160 q 196 89 161 115 q 285 63 231 63 q 367 88 338 63 q 397 151 397 113 q 369 209 397 188 q 281 231 342 231 l 213 231 l 213 301 l 268 301 q 349 323 319 301 q 378 381 378 344 q 353 438 378 415 q 280 460 328 460 q 211 444 241 460 q 171 388 181 428 l 78 388 q 142 505 87 469 q 276 541 197 541 q 418 499 363 541 q 474 392 474 458 q 451 320 474 350 q 384 274 428 290 q 464 225 433 258 q 494 142 494 192 q 436 26 494 72 q 285 -19 379 -19 z "},"₄":{"ha":511,"x_min":32,"x_max":489,"o":"m 309 544 l 395 544 l 395 199 l 489 199 l 489 122 l 395 122 l 395 0 l 307 0 l 307 122 l 32 122 l 32 190 l 309 544 m 311 410 l 138 190 l 311 190 l 311 410 z "},"₅":{"ha":540,"x_min":82,"x_max":478,"o":"m 278 -19 q 178 1 222 -19 q 109 59 134 21 q 82 151 83 97 l 173 151 q 203 85 173 107 q 278 63 234 63 q 357 94 327 63 q 386 170 386 125 q 269 258 386 258 l 110 258 l 135 531 l 451 531 l 451 449 l 207 449 l 225 476 l 209 308 l 200 317 q 247 324 220 322 q 294 326 274 326 q 428 286 378 326 q 478 170 478 246 q 454 74 478 117 q 384 6 429 31 q 278 -19 339 -19 z "},"₆":{"ha":555,"x_min":67,"x_max":483,"o":"m 292 -19 q 174 16 225 -19 q 95 113 124 51 q 67 252 67 174 q 130 465 67 390 q 298 541 193 541 q 425 499 376 541 q 478 386 474 456 l 383 386 q 357 440 377 420 q 300 460 338 460 q 195 402 234 460 q 157 243 157 344 q 158 214 157 230 q 160 183 158 197 q 189 266 166 235 q 244 308 211 296 q 313 321 276 321 q 435 273 388 321 q 483 151 483 225 q 430 28 483 75 q 292 -19 377 -19 m 292 63 q 362 88 333 63 q 391 154 391 113 q 362 222 391 198 q 292 246 333 246 q 222 220 250 246 q 194 154 194 195 q 222 88 194 113 q 292 63 250 63 z "},"₇":{"ha":433,"x_min":33,"x_max":408,"o":"m 53 0 l 303 451 l 33 451 l 33 538 l 408 538 l 408 453 l 174 0 l 53 0 z "},"₈":{"ha":590,"x_min":70,"x_max":520,"o":"m 295 -19 q 132 26 194 -19 q 70 138 70 70 q 115 228 70 196 q 228 261 160 261 q 258 259 244 261 q 290 251 272 256 l 290 228 q 199 204 234 228 q 163 146 163 179 q 201 85 163 107 q 295 63 240 63 q 394 82 361 63 q 427 128 427 100 q 410 167 427 151 q 365 194 394 183 l 213 252 q 156 282 185 263 q 108 329 128 301 q 89 395 89 357 q 143 501 89 461 q 295 541 197 541 q 400 521 353 541 q 473 467 447 501 q 500 388 500 433 q 463 305 500 341 q 356 269 425 269 q 328 271 341 269 q 299 278 315 274 l 299 305 q 375 326 343 305 q 408 382 408 348 q 376 438 408 417 q 295 460 345 460 q 214 440 247 460 q 181 392 181 421 q 197 355 181 369 q 242 329 213 340 l 397 269 q 488 216 456 247 q 520 133 520 186 q 461 24 520 67 q 295 -19 402 -19 z "},"₉":{"ha":561,"x_min":78,"x_max":494,"o":"m 276 -19 q 178 3 222 -19 q 109 63 134 25 q 83 151 83 101 l 177 151 q 205 87 178 111 q 274 63 231 63 q 374 122 344 63 q 404 279 404 181 q 403 305 404 292 q 401 332 403 317 q 348 233 390 264 q 249 202 306 202 q 126 250 174 202 q 78 372 78 297 q 132 494 78 448 q 269 541 185 541 q 384 507 333 541 q 464 413 435 474 q 494 271 494 352 q 440 60 494 138 q 276 -19 386 -19 m 269 276 q 340 302 310 276 q 369 367 369 328 q 340 434 369 410 q 269 459 310 459 q 199 434 228 459 q 171 367 171 410 q 200 300 171 324 q 269 276 228 276 z "},"⁰":{"ha":590,"x_min":67,"x_max":524,"o":"m 295 331 q 176 362 228 331 q 95 458 124 394 q 67 621 67 523 q 95 783 67 719 q 176 879 124 847 q 295 911 228 911 q 414 879 363 911 q 494 783 465 847 q 524 621 524 719 q 494 458 524 523 q 414 362 465 394 q 295 331 363 331 m 295 415 q 393 468 359 415 q 428 621 428 522 q 393 774 428 720 q 295 827 359 827 q 197 774 232 827 q 163 621 163 720 q 197 468 163 522 q 295 415 232 415 z "},"¹":{"ha":369,"x_min":60,"x_max":236,"o":"m 168 898 l 236 898 l 236 357 l 147 357 l 147 791 q 103 774 125 780 q 60 768 82 768 l 60 854 q 115 868 88 858 q 168 898 141 878 z "},"²":{"ha":565,"x_min":85,"x_max":488,"o":"m 85 362 l 85 451 q 99 528 85 497 q 141 580 113 559 q 208 617 168 601 l 317 660 q 373 697 355 674 q 391 753 391 719 q 367 810 391 787 q 298 833 342 833 q 226 812 255 833 q 194 751 198 791 l 94 751 q 123 840 97 804 q 194 893 149 875 q 297 910 240 910 q 394 890 351 910 q 462 833 437 869 q 488 749 488 797 q 472 676 488 708 q 427 622 457 644 q 352 581 397 599 l 242 538 q 191 507 207 524 q 174 463 174 490 l 174 444 l 483 444 l 483 362 l 85 362 z "},"³":{"ha":569,"x_min":65,"x_max":494,"o":"m 285 351 q 203 362 242 351 q 133 396 164 374 q 83 452 101 419 q 65 530 65 485 l 159 530 q 177 478 160 499 q 221 444 193 456 q 285 433 249 433 q 367 458 337 433 q 397 520 397 483 q 385 563 397 544 q 347 590 372 581 q 281 600 322 600 l 213 600 l 213 671 l 268 671 q 349 692 319 671 q 378 751 378 714 q 353 807 378 785 q 280 829 328 829 q 210 814 241 829 q 171 758 180 798 l 78 758 q 110 845 83 812 q 180 894 138 878 q 276 910 223 910 q 378 891 333 910 q 449 839 423 872 q 474 761 474 806 q 451 689 474 719 q 384 644 428 659 q 464 595 433 628 q 494 512 494 562 q 468 428 494 465 q 394 371 442 392 q 285 351 347 351 z "},"⁴":{"ha":511,"x_min":32,"x_max":489,"o":"m 309 904 l 395 904 l 395 559 l 489 559 l 489 482 l 395 482 l 395 360 l 307 360 l 307 482 l 32 482 l 32 550 l 309 904 m 310 769 l 138 550 l 310 550 l 310 769 z "},"⁵":{"ha":540,"x_min":82,"x_max":478,"o":"m 278 344 q 178 364 222 344 q 109 421 135 383 q 82 513 83 459 l 173 513 q 203 448 173 469 q 278 426 233 426 q 357 457 327 426 q 386 533 386 488 q 269 621 386 621 l 110 621 l 135 893 l 451 893 l 451 811 l 207 811 l 225 838 l 209 671 l 200 680 q 247 686 220 684 q 294 689 274 689 q 428 649 378 689 q 478 533 478 608 q 454 437 478 480 q 384 369 429 394 q 278 344 338 344 z "},"⁶":{"ha":555,"x_min":67,"x_max":483,"o":"m 292 351 q 174 386 225 351 q 95 482 124 421 q 67 622 67 544 q 95 778 67 713 q 175 876 124 842 q 298 910 227 910 q 389 891 349 910 q 452 837 428 872 q 478 756 476 802 l 383 756 q 357 809 377 790 q 300 829 338 829 q 195 771 233 829 q 157 613 157 713 q 158 583 157 599 q 160 552 158 567 q 189 635 166 605 q 244 678 211 665 q 313 690 276 690 q 401 668 363 690 q 461 608 440 647 q 483 520 483 570 q 459 431 483 469 q 392 372 435 393 q 292 351 349 351 m 292 433 q 362 458 333 433 q 391 524 391 483 q 362 591 391 567 q 292 615 333 615 q 242 604 264 615 q 207 572 219 592 q 194 524 194 551 q 222 458 194 483 q 292 433 250 433 z "},"⁷":{"ha":433,"x_min":33,"x_max":408,"o":"m 53 355 l 303 807 l 33 807 l 33 893 l 408 893 l 408 808 l 174 355 l 53 355 z "},"⁸":{"ha":590,"x_min":70,"x_max":520,"o":"m 295 351 q 177 371 227 351 q 98 427 126 391 q 70 507 70 463 q 91 573 70 546 q 147 616 112 601 q 228 631 183 631 q 258 628 244 631 q 290 621 272 626 l 290 598 q 224 586 253 598 q 179 557 195 575 q 163 515 163 538 q 181 471 163 490 q 228 442 198 452 q 295 433 258 433 q 394 451 360 433 q 427 498 427 469 q 410 537 427 521 q 365 564 394 553 l 213 622 q 156 651 185 633 q 108 698 128 670 q 89 765 89 726 q 113 841 89 808 q 184 892 138 874 q 295 910 230 910 q 400 891 353 910 q 473 836 447 871 q 500 758 500 802 q 483 699 500 726 q 434 655 466 672 q 356 638 401 638 q 328 641 340 638 q 299 648 315 643 l 299 674 q 353 684 328 674 q 393 711 378 694 q 408 751 408 728 q 393 792 408 775 q 354 819 379 810 q 295 829 328 829 q 237 820 263 829 q 196 796 211 811 q 181 761 181 781 q 197 724 181 738 q 242 699 213 710 l 397 639 q 488 586 456 616 q 520 503 520 556 q 493 424 520 458 q 416 370 467 390 q 295 351 366 351 z "},"⁹":{"ha":561,"x_min":78,"x_max":494,"o":"m 276 351 q 178 372 222 351 q 109 432 134 394 q 83 521 83 471 l 177 521 q 205 457 178 481 q 274 433 231 433 q 349 459 320 433 q 391 535 378 486 q 404 649 404 583 q 403 675 404 663 q 401 701 403 688 q 372 627 393 656 q 318 585 350 599 q 249 572 287 572 q 161 593 199 572 q 100 653 122 615 q 78 741 78 692 q 103 830 78 792 q 170 889 127 868 q 269 910 213 910 q 358 891 317 910 q 429 836 399 872 q 477 751 460 801 q 494 640 494 701 q 470 486 494 551 q 398 386 447 422 q 276 351 349 351 m 269 647 q 319 658 297 647 q 355 690 342 670 q 369 737 369 710 q 340 804 369 779 q 269 828 310 828 q 199 804 228 828 q 171 737 171 779 q 199 670 171 694 q 269 647 228 647 z "},"…":{"ha":871,"x_min":35,"x_max":834,"o":"m 35 88 q 65 160 35 131 q 140 190 94 190 q 217 160 186 190 q 248 88 248 131 q 217 16 248 44 q 140 -12 186 -12 q 65 16 94 -12 q 35 88 35 45 m 335 88 q 365 160 335 131 q 440 190 394 190 q 517 160 486 190 q 548 88 548 131 q 517 16 548 44 q 440 -12 486 -12 q 365 16 394 -12 q 335 88 335 45 m 622 88 q 651 160 622 131 q 726 190 681 190 q 803 160 772 190 q 834 88 834 131 q 803 16 834 44 q 726 -12 772 -12 q 651 16 681 -12 q 622 88 622 45 z "},"¡":{"ha":401,"x_min":100,"x_max":312,"o":"m 142 604 l 267 604 l 285 -15 l 124 -15 l 142 604 m 205 904 q 281 876 251 904 q 312 803 312 847 q 281 732 312 762 q 205 702 251 702 q 130 732 159 702 q 100 803 100 762 q 130 876 100 847 q 205 904 159 904 z "},"¿":{"ha":711,"x_min":35,"x_max":661,"o":"m 453 629 l 453 572 q 439 473 453 511 q 395 407 426 434 q 314 353 365 379 q 244 311 269 331 q 209 269 219 291 q 199 218 199 248 q 236 141 199 172 q 340 110 274 110 q 457 143 416 110 q 506 231 499 176 l 661 231 q 573 45 653 115 q 346 -25 493 -25 q 180 8 250 -25 q 73 96 110 40 q 35 220 35 151 q 72 342 35 293 q 186 431 109 392 q 258 475 232 455 q 294 521 283 496 q 304 585 304 547 l 304 629 l 453 629 m 375 904 q 451 875 422 904 q 480 805 480 847 q 451 733 480 762 q 376 703 422 703 q 298 733 329 703 q 267 805 267 762 q 298 875 267 847 q 375 904 329 904 z "},"·":{"ha":285,"x_min":35,"x_max":248,"o":"m 35 365 q 65 438 35 408 q 140 467 94 467 q 217 438 186 467 q 248 365 248 408 q 217 294 248 322 q 140 265 186 265 q 65 294 94 265 q 35 365 35 323 z "},"•":{"ha":432,"x_min":35,"x_max":395,"o":"m 35 383 q 85 506 35 456 q 213 556 135 556 q 342 506 290 556 q 395 383 395 456 q 342 262 395 310 q 213 214 290 214 q 85 263 135 214 q 35 383 35 311 z "},"‚":{"ha":371,"x_min":50,"x_max":309,"o":"m 160 -178 l 50 -123 q 127 -73 94 -101 q 171 -7 160 -44 q 109 22 135 -1 q 84 82 84 45 q 113 147 84 120 q 187 173 142 173 q 276 133 243 173 q 309 38 309 93 q 270 -84 309 -24 q 160 -178 231 -144 z "},"„":{"ha":686,"x_min":50,"x_max":624,"o":"m 476 -178 l 365 -123 q 443 -73 410 -101 q 486 -7 476 -44 q 425 22 450 -1 q 399 82 399 45 q 428 147 399 120 q 502 173 458 173 q 591 133 558 173 q 624 38 624 93 q 585 -84 624 -24 q 476 -178 546 -144 m 160 -178 l 50 -123 q 127 -73 94 -101 q 171 -7 160 -44 q 109 22 135 -1 q 84 82 84 45 q 113 147 84 120 q 187 173 142 173 q 276 133 243 173 q 309 38 309 93 q 270 -84 309 -24 q 160 -178 231 -144 z "},"“":{"ha":648,"x_min":50,"x_max":586,"o":"m 449 542 q 385 561 413 542 q 342 611 358 580 q 327 681 327 643 q 369 802 327 744 q 482 896 412 860 l 585 838 q 509 788 542 817 q 463 722 476 760 q 527 694 501 716 q 552 635 552 672 q 523 569 552 597 q 449 542 494 542 m 172 542 q 108 561 135 542 q 65 611 81 580 q 50 681 50 643 q 92 802 50 744 q 205 896 135 860 l 308 838 q 232 788 265 817 q 186 722 199 760 q 250 694 224 716 q 275 635 275 672 q 246 569 275 597 q 172 542 217 542 z "},"”":{"ha":640,"x_min":50,"x_max":578,"o":"m 425 542 l 321 599 q 398 650 365 621 q 443 716 431 678 q 380 744 405 722 q 354 803 354 767 q 384 869 354 843 q 459 896 415 896 q 523 876 497 896 q 564 826 550 857 q 578 757 578 794 q 536 636 578 693 q 425 542 494 578 m 154 542 l 50 599 q 127 650 94 621 q 172 716 160 678 q 109 744 134 722 q 83 803 83 767 q 114 869 83 843 q 188 896 144 896 q 252 876 226 896 q 293 826 279 857 q 308 757 308 794 q 266 636 308 693 q 154 542 224 578 z "},"«":{"ha":845,"x_min":67,"x_max":778,"o":"m 353 74 l 67 373 l 353 672 l 456 597 l 206 352 l 206 394 l 456 149 l 353 74 m 676 74 l 390 373 l 676 672 l 778 597 l 529 352 l 529 394 l 778 149 l 676 74 z "},"»":{"ha":845,"x_min":67,"x_max":778,"o":"m 492 74 l 390 149 l 640 394 l 640 352 l 390 597 l 492 672 l 778 373 l 492 74 m 169 74 l 67 149 l 317 394 l 317 352 l 67 597 l 169 672 l 456 373 l 169 74 z "},"‹":{"ha":522,"x_min":67,"x_max":456,"o":"m 353 74 l 67 373 l 353 672 l 456 597 l 206 352 l 206 394 l 456 149 l 353 74 z "},"›":{"ha":522,"x_min":67,"x_max":456,"o":"m 169 74 l 67 149 l 316 394 l 316 352 l 67 597 l 169 672 l 456 373 l 169 74 z "},"ƒ":{"ha":493,"x_min":-110,"x_max":497,"o":"m 13 572 l 20 671 l 399 671 l 393 572 l 13 572 m -110 -293 l -73 -178 q -36 -188 -55 -184 q 1 -192 -17 -192 q 40 -184 21 -192 q 73 -157 60 -176 q 89 -103 86 -138 l 149 758 q 185 875 154 830 q 263 941 215 919 q 365 962 310 962 q 431 957 397 962 q 497 945 465 953 l 460 830 q 424 841 442 837 q 387 844 405 844 q 347 837 366 844 q 315 810 328 829 q 299 756 301 791 l 239 -106 q 202 -222 233 -176 q 124 -289 172 -267 q 22 -310 77 -310 q -43 -305 -9 -310 q -110 -293 -77 -301 z "},"¶":{"ha":833,"x_min":58,"x_max":697,"o":"m 373 330 q 140 404 222 330 q 58 612 58 478 q 140 819 58 745 q 373 893 222 893 l 674 893 l 674 760 l 454 760 l 454 330 l 373 330 m 380 -175 l 380 893 l 492 893 l 492 -175 l 380 -175 m 585 -175 l 585 893 l 697 893 l 697 -175 l 585 -175 z "},"§":{"ha":833,"x_min":99,"x_max":735,"o":"m 439 319 q 507 331 477 319 q 553 363 536 342 q 571 408 571 383 q 547 456 571 438 q 475 488 523 473 l 333 538 q 210 611 253 564 q 167 722 167 658 q 241 859 167 807 q 441 910 316 910 q 641 855 572 910 q 712 717 709 799 l 571 717 q 535 774 567 753 q 448 794 502 794 q 355 770 386 794 q 324 714 324 746 q 415 635 324 664 l 567 580 q 691 511 647 553 q 735 409 735 470 q 700 308 735 355 q 602 231 665 260 q 456 202 539 202 l 439 319 m 394 519 q 306 494 338 519 q 274 436 274 469 q 366 357 274 385 l 518 302 q 641 233 597 275 q 685 131 685 192 q 651 29 685 76 q 553 -47 617 -18 q 394 -76 488 -76 q 241 -50 308 -76 q 137 27 174 -23 q 99 146 99 77 l 238 146 q 280 67 238 92 q 383 42 321 42 q 484 67 448 42 q 521 129 521 92 q 497 177 521 159 q 425 210 474 195 l 283 260 q 159 334 202 287 q 117 445 117 381 q 192 584 117 534 q 394 634 267 634 l 394 519 z "},"©":{"ha":978,"x_min":33,"x_max":945,"o":"m 490 -8 q 313 27 395 -8 q 167 125 230 63 q 69 270 104 188 q 33 447 33 353 q 69 624 33 542 q 167 770 104 707 q 313 868 230 833 q 490 903 395 903 q 666 868 583 903 q 812 770 749 833 q 910 624 874 707 q 945 447 945 542 q 910 270 945 353 q 812 125 874 188 q 666 27 749 63 q 490 -8 583 -8 m 490 67 q 638 97 569 67 q 759 178 706 126 q 841 300 811 231 q 870 447 870 369 q 841 595 870 526 q 759 716 811 664 q 638 799 706 769 q 490 828 569 828 q 342 799 411 828 q 220 716 273 769 q 138 595 168 664 q 108 447 108 526 q 138 300 108 369 q 220 178 168 231 q 342 97 273 126 q 490 67 411 67 m 488 165 q 363 199 416 165 q 281 298 310 233 q 252 450 252 362 q 283 605 252 542 q 367 699 313 667 q 488 731 420 731 q 634 685 581 731 q 704 567 688 640 l 608 549 q 563 622 594 594 q 488 649 532 649 q 418 627 450 649 q 368 560 387 605 q 349 450 349 516 q 365 343 349 388 q 412 272 381 297 q 488 247 443 247 q 576 277 544 247 q 608 354 608 307 l 704 354 q 646 214 704 264 q 488 165 588 165 z "},"®":{"ha":978,"x_min":33,"x_max":945,"o":"m 490 -8 q 313 27 395 -8 q 167 125 230 63 q 69 270 104 188 q 33 447 33 353 q 69 624 33 542 q 167 770 104 707 q 313 868 230 833 q 490 903 395 903 q 666 868 583 903 q 812 770 749 833 q 910 624 874 707 q 945 447 945 542 q 910 270 945 353 q 812 125 874 188 q 666 27 749 63 q 490 -8 583 -8 m 490 67 q 638 97 569 67 q 759 178 706 126 q 841 300 811 231 q 870 447 870 369 q 841 595 870 526 q 759 716 811 664 q 638 799 706 769 q 490 828 569 828 q 342 799 411 828 q 220 716 273 769 q 138 595 168 664 q 108 447 108 526 q 138 300 108 369 q 220 178 168 231 q 342 97 273 126 q 490 67 411 67 m 597 199 l 458 437 l 549 437 l 707 199 l 597 199 m 317 199 l 317 710 l 503 710 q 642 668 594 710 q 690 556 690 625 q 642 444 690 487 q 503 401 594 401 l 402 401 l 402 199 l 317 199 m 402 458 l 495 458 q 576 483 549 458 q 603 548 603 508 q 578 613 603 588 q 503 638 553 638 l 402 638 l 402 458 z "},"™":{"ha":965,"x_min":4,"x_max":899,"o":"m 4 1056 l 4 1119 l 360 1119 l 360 1056 l 203 1056 l 219 1072 l 219 673 l 145 673 l 145 1072 l 162 1056 l 4 1056 m 429 1119 l 536 1119 l 669 837 l 663 837 l 796 1119 l 899 1119 l 899 673 l 824 673 l 824 1036 l 835 1036 l 690 724 l 641 724 l 497 1034 l 503 1034 l 503 673 l 429 673 l 429 1119 z "},"°":{"ha":521,"x_min":58,"x_max":463,"o":"m 261 671 q 159 698 206 671 q 86 772 113 726 q 58 874 58 818 q 85 975 58 930 q 159 1048 113 1021 q 261 1075 206 1075 q 363 1048 317 1075 q 435 975 408 1021 q 463 874 463 930 q 435 772 463 818 q 363 698 408 726 q 261 671 317 671 m 261 771 q 333 801 303 771 q 363 874 363 831 q 333 945 363 915 q 261 976 303 976 q 189 946 219 976 q 158 874 158 916 q 189 801 158 831 q 261 771 219 771 z "},"¦":{"ha":413,"x_min":132,"x_max":281,"o":"m 132 513 l 132 1062 l 281 1062 l 281 513 l 132 513 m 132 -169 l 132 379 l 281 379 l 281 -169 l 132 -169 z "},"†":{"ha":718,"x_min":62,"x_max":656,"o":"m 288 -175 l 270 893 l 448 893 l 428 -175 l 288 -175 m 62 537 l 62 638 l 359 649 l 656 638 l 656 537 l 359 524 l 62 537 z "},"‡":{"ha":718,"x_min":62,"x_max":656,"o":"m 288 -175 l 270 893 l 448 893 l 428 -175 l 288 -175 m 62 537 l 62 638 l 359 649 l 656 638 l 656 537 l 359 524 l 62 537 m 62 292 l 62 393 l 359 404 l 656 393 l 656 292 l 359 280 l 62 292 z "},"¢":{"ha":728,"x_min":67,"x_max":660,"o":"m 317 -149 l 317 24 l 440 24 l 440 -149 l 317 -149 m 317 653 l 317 809 l 440 809 l 440 653 l 317 653 m 382 -19 q 227 25 299 -19 q 111 149 155 69 q 67 336 67 228 q 111 529 67 450 q 227 649 155 608 q 382 690 299 690 q 494 669 445 690 q 578 615 543 649 q 633 539 613 581 q 660 453 653 497 l 510 448 q 464 526 497 496 q 381 556 431 556 q 301 533 338 556 q 241 461 264 510 q 217 336 217 413 q 239 216 217 265 q 298 141 260 167 q 381 116 335 116 q 478 148 447 116 q 510 235 510 181 l 660 235 q 628 107 660 165 q 533 15 595 49 q 382 -19 471 -19 z "},"¤":{"ha":833,"x_min":89,"x_max":744,"o":"m 417 152 q 270 191 336 152 q 165 297 204 231 q 126 443 126 363 q 165 590 126 524 q 270 695 204 656 q 417 734 336 734 q 563 695 497 734 q 667 590 628 656 q 706 443 706 524 q 667 297 706 363 q 563 191 628 231 q 417 152 497 152 m 417 285 q 496 307 460 285 q 553 364 531 328 q 574 443 574 399 q 553 523 574 488 q 496 579 531 558 q 417 600 460 600 q 338 579 374 600 q 280 523 301 558 q 259 443 259 488 q 280 364 259 399 q 338 307 301 328 q 417 285 374 285 m 591 552 l 526 618 l 678 771 l 744 706 l 591 552 m 235 560 l 89 705 l 153 771 l 299 625 l 235 560 m 599 327 l 744 181 l 680 115 l 534 261 l 599 327 m 235 327 l 299 261 l 153 115 l 89 181 l 235 327 z "},"€":{"ha":872,"x_min":30,"x_max":831,"o":"m 478 -19 q 276 38 362 -19 q 142 200 190 95 q 94 450 94 305 q 144 703 94 601 q 281 858 194 806 q 478 910 368 910 q 716 836 628 910 q 831 642 803 761 l 672 613 q 598 731 648 686 q 478 776 548 776 q 367 740 417 776 q 285 631 316 703 q 255 450 255 558 q 281 274 255 349 q 356 158 306 199 q 478 117 406 117 q 620 167 568 117 q 672 293 672 216 l 831 293 q 788 125 831 194 q 665 18 744 56 q 478 -19 586 -19 m 30 328 l 30 415 l 518 415 l 518 328 l 30 328 m 30 478 l 30 564 l 518 564 l 518 478 l 30 478 z "},"₨":{"ha":830,"x_min":119,"x_max":744,"o":"m 119 808 l 119 893 l 744 893 l 744 808 l 119 808 m 119 588 l 119 674 l 744 674 l 744 588 l 119 588 m 119 428 l 238 428 l 688 0 l 480 0 l 119 342 l 119 428 m 168 428 l 212 428 q 390 483 334 428 q 446 619 446 538 q 390 755 446 701 q 212 808 334 808 l 168 808 l 168 869 l 212 869 q 431 838 343 869 q 562 749 518 806 q 606 619 606 693 q 567 478 606 541 q 441 379 528 415 q 212 342 355 342 l 168 342 l 168 428 z "},"¥":{"ha":800,"x_min":10,"x_max":789,"o":"m 321 0 l 321 368 l 10 893 l 188 893 l 413 496 l 381 496 l 613 893 l 789 893 l 469 368 l 469 0 l 321 0 m 156 124 l 156 209 l 637 209 l 637 124 l 156 124 m 156 269 l 156 355 l 637 355 l 637 269 l 156 269 z "},"∕":{"ha":391,"x_min":-196,"x_max":608,"o":"m -196 -14 l 487 942 l 608 942 l -77 -14 l -196 -14 z "},"×":{"ha":742,"x_min":81,"x_max":661,"o":"m 185 67 l 81 172 l 265 358 l 81 541 l 185 647 l 370 462 l 556 647 l 661 541 l 474 358 l 661 172 l 556 67 l 370 251 l 185 67 z "},"÷":{"ha":742,"x_min":109,"x_max":633,"o":"m 109 293 l 109 424 l 633 424 l 633 293 l 109 293 m 369 55 q 307 80 332 55 q 282 140 282 104 q 307 199 282 175 q 369 224 332 224 q 434 199 408 224 q 460 140 460 175 q 434 80 460 104 q 369 55 408 55 m 369 492 q 307 515 332 492 q 282 576 282 539 q 307 635 282 610 q 369 660 332 660 q 434 635 408 660 q 460 576 460 610 q 434 515 460 539 q 369 492 408 492 z "},"≠":{"ha":742,"x_min":117,"x_max":624,"o":"m 214 51 l 432 659 l 530 659 l 313 51 l 214 51 m 117 141 l 117 270 l 624 270 l 624 141 l 117 141 m 117 425 l 117 556 l 624 556 l 624 425 l 117 425 z "},"≥":{"ha":742,"x_min":123,"x_max":617,"o":"m 156 194 l 123 314 l 531 449 l 531 397 l 123 535 l 156 653 l 613 478 l 613 367 l 156 194 m 141 0 l 141 113 l 617 113 l 617 0 l 141 0 z "},"≤":{"ha":742,"x_min":125,"x_max":619,"o":"m 588 194 l 130 367 l 130 478 l 588 653 l 619 535 l 211 397 l 211 449 l 619 314 l 588 194 m 125 0 l 125 113 l 601 113 l 601 0 l 125 0 z "},"±":{"ha":742,"x_min":113,"x_max":628,"o":"m 312 753 l 429 753 l 429 536 l 628 536 l 628 439 l 429 439 l 429 223 l 312 223 l 312 439 l 113 439 l 113 536 l 312 536 l 312 753 m 127 113 l 615 113 l 615 0 l 127 0 l 127 113 z "},"≈":{"ha":742,"x_min":75,"x_max":667,"o":"m 151 353 l 75 394 q 139 524 99 478 q 240 570 178 570 q 299 561 267 570 q 380 533 331 551 q 454 506 428 515 q 499 497 480 497 q 551 515 528 497 q 591 572 573 533 l 667 524 q 597 403 642 444 q 494 363 552 363 q 438 372 467 363 q 357 400 408 381 q 311 417 333 410 q 270 430 290 425 q 238 435 251 435 q 189 416 210 435 q 151 353 168 397 m 151 90 l 75 131 q 139 261 99 216 q 240 307 178 307 q 299 298 267 307 q 380 269 331 289 q 454 243 428 251 q 499 234 480 234 q 551 252 528 234 q 591 309 573 269 l 667 260 q 597 140 642 181 q 494 100 552 100 q 438 109 467 100 q 357 136 408 118 q 311 154 333 146 q 270 167 290 162 q 238 172 251 172 q 189 153 210 172 q 151 90 168 134 z "},"¬":{"ha":742,"x_min":126,"x_max":615,"o":"m 126 461 l 615 461 l 615 206 l 515 206 l 515 383 l 546 348 l 126 348 l 126 461 z "},"∞":{"ha":939,"x_min":32,"x_max":906,"o":"m 254 133 q 150 156 201 133 q 66 226 99 178 q 32 349 32 274 q 66 471 32 423 q 150 541 99 519 q 254 564 201 564 q 338 550 294 564 q 419 500 381 535 q 485 404 458 465 l 453 404 q 519 500 481 465 q 602 550 558 535 q 685 564 645 564 q 789 541 738 564 q 873 471 840 519 q 906 349 906 423 q 873 226 906 274 q 789 156 840 178 q 685 133 738 133 q 602 147 645 133 q 520 196 558 161 q 453 292 481 231 l 486 292 q 420 196 459 231 q 338 147 381 161 q 254 133 294 133 m 277 230 q 376 265 329 230 q 457 376 422 300 l 457 322 q 376 432 422 397 q 277 467 329 467 q 218 456 247 467 q 168 417 188 444 q 149 349 149 391 q 168 280 149 306 q 218 242 188 253 q 277 230 247 230 m 661 230 q 721 242 691 230 q 770 280 751 253 q 790 349 790 306 q 770 417 790 391 q 721 456 751 444 q 661 467 691 467 q 563 432 610 467 q 482 322 517 397 l 482 376 q 563 265 517 300 q 661 230 610 230 z "},"∅":{"ha":833,"x_min":76,"x_max":757,"o":"m 133 48 l 76 103 l 701 729 l 757 673 l 133 48 m 417 98 q 270 137 337 98 q 165 243 204 176 q 126 389 126 309 q 165 535 126 469 q 270 641 204 601 q 417 680 337 680 q 564 641 498 680 q 669 535 630 601 q 708 389 708 469 q 669 243 708 309 q 564 137 630 176 q 417 98 498 98 m 417 190 q 517 217 472 190 q 589 289 562 244 q 616 389 616 334 q 589 489 616 444 q 517 560 562 533 q 417 588 472 588 q 317 560 363 588 q 245 489 272 533 q 218 389 218 444 q 245 289 218 334 q 317 217 272 244 q 417 190 363 190 z "},"∫":{"ha":671,"x_min":32,"x_max":639,"o":"m 32 -293 l 69 -178 q 106 -188 88 -184 q 142 -192 124 -192 q 182 -184 163 -192 q 215 -157 201 -176 q 231 -103 228 -138 l 290 758 q 326 875 296 830 q 405 941 357 919 q 506 962 452 962 q 572 957 538 962 q 639 945 606 953 l 601 830 q 565 841 584 837 q 528 844 546 844 q 489 837 508 844 q 456 810 469 829 q 440 756 443 791 l 380 -106 q 345 -222 376 -176 q 266 -289 314 -267 q 165 -310 219 -310 q 99 -305 133 -310 q 32 -293 65 -301 z "},"∏":{"ha":912,"x_min":132,"x_max":779,"o":"m 132 -328 l 132 893 l 779 893 l 779 -328 l 631 -328 l 631 806 l 670 765 l 241 765 l 280 806 l 280 -328 l 132 -328 z "},"∑":{"ha":781,"x_min":67,"x_max":714,"o":"m 394 283 l 67 765 l 67 893 l 714 893 l 714 765 l 113 765 l 196 806 l 556 283 l 394 283 m 394 283 l 556 283 l 196 -240 l 113 -200 l 714 -200 l 714 -328 l 67 -328 l 67 -200 l 394 283 z "},"√":{"ha":838,"x_min":7,"x_max":831,"o":"m 321 1 l 173 331 l 225 272 l 45 217 l 7 303 l 283 410 l 424 97 l 360 97 l 705 1169 l 831 1169 l 440 1 l 321 1 z "},"µ":{"ha":863,"x_min":117,"x_max":730,"o":"m 582 674 l 730 674 l 730 0 l 582 0 l 582 124 q 495 22 549 56 q 372 -12 441 -12 q 265 10 310 -12 l 265 -278 l 117 -278 l 117 674 l 265 674 l 265 260 q 300 153 265 189 q 397 117 335 117 q 491 145 449 117 q 558 224 533 172 q 582 351 582 276 l 582 674 z "},"∂":{"ha":776,"x_min":74,"x_max":722,"o":"m 381 -19 q 228 26 298 -19 q 116 151 158 70 q 74 340 74 231 q 114 524 74 446 q 220 646 153 603 q 364 690 286 690 q 503 646 444 690 q 594 528 562 603 q 627 359 627 453 l 578 359 q 551 470 578 426 q 483 535 524 514 q 399 556 442 556 q 310 530 349 556 q 247 453 270 503 q 224 338 224 404 q 247 221 224 271 q 310 143 270 171 q 401 116 350 116 q 494 147 456 116 q 553 229 532 177 q 577 344 574 281 q 568 551 581 453 q 518 738 554 649 q 420 906 483 826 q 264 1058 358 986 l 387 1143 q 536 982 473 1067 q 640 804 599 896 q 702 620 681 713 q 722 440 722 528 q 694 245 722 330 q 619 101 667 160 q 510 12 572 42 q 381 -19 449 -19 z "},"‰":{"ha":1457,"x_min":67,"x_max":1391,"o":"m 1203 -15 q 1112 8 1154 -15 q 1043 77 1069 31 q 1017 193 1017 124 q 1043 309 1017 263 q 1112 378 1069 355 q 1203 401 1154 401 q 1296 378 1253 401 q 1365 309 1339 355 q 1391 193 1391 263 q 1365 77 1391 124 q 1296 8 1339 31 q 1203 -15 1253 -15 m 1203 82 q 1257 108 1236 82 q 1277 193 1277 133 q 1257 279 1277 253 q 1203 305 1236 305 q 1149 279 1169 305 q 1129 193 1129 253 q 1149 108 1129 133 q 1203 82 1169 82 m 131 0 l 736 893 l 887 893 l 283 0 l 131 0 m 767 -15 q 676 8 718 -15 q 607 77 633 31 q 581 193 581 124 q 607 309 581 263 q 676 378 633 355 q 767 401 718 401 q 860 378 817 401 q 929 309 903 355 q 955 193 955 263 q 929 77 955 124 q 860 8 903 31 q 767 -15 817 -15 m 767 82 q 820 108 800 82 q 841 193 841 133 q 820 279 841 253 q 767 305 800 305 q 714 279 734 305 q 693 193 693 253 q 714 108 693 133 q 767 82 734 82 m 252 497 q 161 519 203 497 q 93 589 119 542 q 67 704 67 635 q 93 819 67 773 q 161 888 119 865 q 252 910 203 910 q 346 888 303 910 q 415 819 389 865 q 441 704 441 773 q 415 589 441 635 q 346 519 389 542 q 252 497 303 497 m 252 592 q 306 618 285 592 q 326 704 326 644 q 306 789 326 763 q 252 815 285 815 q 199 789 219 815 q 179 704 179 763 q 199 618 179 644 q 252 592 219 592 z "},"◊":{"ha":786,"x_min":67,"x_max":719,"o":"m 67 447 l 335 893 l 453 893 l 719 447 l 453 0 l 335 0 l 67 447 m 215 419 l 215 475 l 412 132 l 376 132 l 572 475 l 572 419 l 376 761 l 412 761 l 215 419 z "},"̈":{"ha":0,"x_min":67,"x_max":506,"o":"m 415 792 q 351 817 377 792 q 324 878 324 842 q 351 940 324 915 q 415 965 377 965 q 480 940 454 965 q 506 878 506 915 q 480 817 506 842 q 415 792 454 792 m 158 792 q 92 817 117 792 q 67 877 67 842 q 92 939 67 915 q 158 964 117 964 q 223 939 197 964 q 249 877 249 915 q 223 817 249 842 q 158 792 197 792 z "},"̇":{"ha":0,"x_min":67,"x_max":271,"o":"m 167 800 q 95 827 124 800 q 67 896 67 855 q 95 966 67 938 q 167 995 124 995 q 241 967 212 995 q 271 896 271 938 q 241 827 271 855 q 167 800 212 800 z "},"̀":{"ha":0,"x_min":66,"x_max":419,"o":"m 347 777 l 66 1009 l 166 1090 l 419 836 l 347 777 z "},"́":{"ha":0,"x_min":67,"x_max":419,"o":"m 139 777 l 67 836 l 319 1090 l 419 1009 l 139 777 z "},"̋":{"ha":0,"x_min":67,"x_max":378,"o":"m 325 767 l 249 780 l 272 1013 l 378 989 l 325 767 m 144 776 l 67 786 l 76 1021 l 184 1003 l 144 776 z "},"̂":{"ha":0,"x_min":67,"x_max":547,"o":"m 155 767 l 67 836 l 306 1050 l 547 836 l 459 767 l 281 933 l 333 933 l 155 767 z "},"̌":{"ha":0,"x_min":67,"x_max":547,"o":"m 306 774 l 67 986 l 155 1056 l 333 874 l 281 874 l 459 1056 l 547 986 l 306 774 z "},"̆":{"ha":0,"x_min":67,"x_max":492,"o":"m 279 805 q 124 860 181 805 q 67 1010 67 915 l 185 1010 q 210 930 185 958 q 279 903 235 903 q 348 930 323 903 q 373 1010 373 958 l 492 1010 q 435 860 492 915 q 279 805 378 805 z "},"̊":{"ha":0,"x_min":67,"x_max":383,"o":"m 225 908 q 145 929 181 908 q 88 986 110 951 q 67 1066 67 1022 q 88 1145 67 1109 q 145 1202 110 1181 q 225 1224 181 1224 q 304 1202 268 1224 q 361 1145 340 1181 q 383 1066 383 1109 q 361 986 383 1022 q 304 929 340 951 q 225 908 268 908 m 225 1008 q 266 1025 249 1008 q 283 1066 283 1042 q 266 1107 283 1090 q 224 1124 249 1124 q 184 1107 201 1124 q 167 1065 167 1090 q 184 1025 167 1042 q 225 1008 201 1008 z "},"̃":{"ha":0,"x_min":32,"x_max":501,"o":"m 92 781 l 32 818 q 86 942 49 898 q 174 986 123 986 q 215 979 193 986 q 275 951 236 972 q 330 924 313 932 q 364 917 348 917 q 403 933 384 917 q 438 986 423 950 l 501 944 q 470 859 491 896 q 422 802 449 823 q 367 781 395 781 q 319 791 344 781 q 254 821 295 800 q 204 846 219 840 q 174 852 188 852 q 131 837 151 852 q 92 781 111 822 z "},"̄":{"ha":0,"x_min":185,"x_max":652,"o":"m 185 933 l 652 933 l 652 811 l 185 811 l 185 933 z "},"̒":{"ha":0,"x_min":65,"x_max":257,"o":"m 185 969 l 257 932 q 197 894 222 915 q 161 844 171 873 q 205 824 188 840 q 220 781 222 808 q 197 737 218 755 q 146 719 176 719 q 87 745 108 719 q 67 813 65 772 q 100 899 69 855 q 185 969 131 942 z "},"̦":{"ha":0,"x_min":67,"x_max":258,"o":"m 138 -310 l 67 -273 q 127 -235 102 -256 q 163 -185 153 -214 q 119 -165 136 -181 q 104 -123 102 -149 q 127 -78 106 -96 q 178 -60 148 -60 q 237 -86 215 -60 q 256 -153 258 -113 q 224 -240 254 -196 q 138 -310 193 -283 z "},"̧":{"ha":0,"x_min":67,"x_max":371,"o":"m 67 -253 l 89 -199 q 175 -225 137 -222 q 235 -216 213 -228 q 260 -181 258 -203 q 245 -144 262 -160 q 199 -116 228 -128 q 132 -96 169 -104 l 185 51 l 254 42 l 206 -92 l 183 -51 q 291 -83 249 -62 q 352 -131 333 -103 q 369 -189 371 -158 q 334 -253 366 -229 q 256 -286 303 -278 q 159 -286 210 -294 q 67 -253 108 -278 z "},"̨":{"ha":0,"x_min":67,"x_max":416,"o":"m 416 -253 q 325 -290 372 -277 q 233 -303 278 -303 q 114 -270 160 -303 q 67 -177 67 -237 q 105 -77 67 -126 q 217 1 143 -29 l 327 -26 q 211 -83 254 -53 q 169 -151 169 -114 q 192 -191 169 -179 q 245 -203 216 -203 q 308 -193 276 -203 q 381 -160 340 -183 l 416 -253 z "},"˙":{"ha":338,"x_min":67,"x_max":271,"o":"m 167 800 q 95 827 124 800 q 67 896 67 855 q 95 966 67 938 q 167 995 124 995 q 241 967 212 995 q 271 896 271 938 q 241 827 271 855 q 167 800 212 800 z "},"˝":{"ha":445,"x_min":67,"x_max":378,"o":"m 325 767 l 249 780 l 272 1013 l 378 989 l 325 767 m 144 776 l 67 786 l 76 1021 l 184 1003 l 144 776 z "},"ˇ":{"ha":614,"x_min":67,"x_max":547,"o":"m 306 774 l 67 986 l 155 1056 l 333 874 l 281 874 l 459 1056 l 547 986 l 306 774 z "},"˘":{"ha":558,"x_min":67,"x_max":492,"o":"m 279 805 q 124 860 181 805 q 67 1010 67 915 l 185 1010 q 210 930 185 958 q 279 903 235 903 q 348 930 323 903 q 373 1010 373 958 l 492 1010 q 435 860 492 915 q 279 805 378 805 z "},"˚":{"ha":449,"x_min":67,"x_max":383,"o":"m 225 908 q 145 929 181 908 q 88 986 110 951 q 67 1066 67 1022 q 88 1145 67 1109 q 145 1202 110 1181 q 225 1224 181 1224 q 304 1202 268 1224 q 361 1145 340 1181 q 383 1066 383 1109 q 361 986 383 1022 q 304 929 340 951 q 225 908 268 908 m 225 1008 q 266 1025 249 1008 q 283 1066 283 1042 q 266 1107 283 1090 q 224 1124 249 1124 q 184 1107 201 1124 q 167 1065 167 1090 q 184 1025 167 1042 q 225 1008 201 1008 z "},"¯":{"ha":601,"x_min":67,"x_max":535,"o":"m 67 933 l 534 933 l 534 811 l 67 811 l 67 933 z "},"¸":{"ha":435,"x_min":67,"x_max":371,"o":"m 67 -253 l 89 -199 q 175 -225 137 -222 q 235 -216 213 -228 q 260 -181 258 -203 q 245 -144 262 -160 q 199 -116 228 -128 q 132 -96 169 -104 l 185 51 l 254 42 l 206 -92 l 183 -51 q 291 -83 249 -62 q 352 -131 333 -103 q 369 -189 371 -158 q 334 -253 366 -229 q 256 -286 303 -278 q 159 -286 210 -294 q 67 -253 108 -278 z "},"˛":{"ha":483,"x_min":67,"x_max":416,"o":"m 416 -253 q 325 -290 372 -277 q 233 -303 278 -303 q 114 -270 160 -303 q 67 -177 67 -237 q 105 -77 67 -126 q 217 1 143 -29 l 327 -26 q 211 -83 254 -53 q 169 -151 169 -114 q 192 -191 169 -179 q 245 -203 216 -203 q 308 -193 276 -203 q 381 -160 340 -183 l 416 -253 z "}}}
